<ttFont>
<head>
    <!-- Most of this table will be recalculated by the compiler -->
    <tableVersion value="1.0"/>
    <fontRevision value="2.01"/>
    <checkSumAdjustment value="0xbc57ea60"/>
    <magicNumber value="0x5f0f3cf5"/>
    <flags value="00000000 00000011"/>
    <unitsPerEm value="1000"/>
    <created value="Wed Feb  7 19:23:30 2018"/>
    <modified value="Wed Feb  7 11:23:34 2018"/>
    <xMin value="-431"/>
    <yMin value="-629"/>
    <xMax value="1790"/>
    <yMax value="953"/>
    <macStyle value="00000000 00000000"/>
    <lowestRecPPEM value="7"/>
    <fontDirectionHint value="2"/>
    <indexToLocFormat value="0"/>
    <glyphDataFormat value="0"/>
  </head>
    <TTGlyph name=".notdef" xMin="172" yMin="0" xMax="581" yMax="701">
      <contour>
        <pt x="581" y="701" on="1"/>
        <pt x="581" y="0" on="1"/>
        <pt x="172" y="0" on="1"/>
        <pt x="172" y="701" on="1"/>
      </contour>
      <contour>
        <pt x="516" y="61" on="1"/>
        <pt x="516" y="640" on="1"/>
        <pt x="237" y="640" on="1"/>
        <pt x="237" y="61" on="1"/>
      </contour>
    </TTGlyph>
    <TTGlyph name="A" xMin="14" yMin="0" xMax="438" yMax="677">
      <contour>
        <pt x="310" y="180" on="1"/>
        <pt x="141" y="180" on="1"/>
        <pt x="104" y="0" on="1"/>
        <pt x="14" y="0" on="1"/>
        <pt x="161" y="677" on="1"/>
        <pt x="291" y="677" on="1"/>
        <pt x="438" y="0" on="1"/>
        <pt x="347" y="0" on="1"/>
      </contour>
      <contour>
        <pt x="293" y="260" on="1"/>
        <pt x="225" y="592" on="1"/>
        <pt x="157" y="260" on="1"/>
      </contour>
    </TTGlyph>
    <TTGlyph name="AE" xMin="6" yMin="0" xMax="658" yMax="677">
      <contour>
        <pt x="442" y="597" on="1"/>
        <pt x="442" y="382" on="1"/>
        <pt x="630" y="382" on="1"/>
        <pt x="630" y="302" on="1"/>
        <pt x="442" y="302" on="1"/>
        <pt x="442" y="81" on="1"/>
        <pt x="658" y="81" on="1"/>
        <pt x="658" y="0" on="1"/>
        <pt x="354" y="0" on="1"/>
        <pt x="354" y="180" on="1"/>
        <pt x="174" y="180" on="1"/>
        <pt x="99" y="0" on="1"/>
        <pt x="6" y="0" on="1"/>
        <pt x="299" y="677" on="1"/>
        <pt x="658" y="677" on="1"/>
        <pt x="658" y="597" on="1"/>
      </contour>
      <contour>
        <pt x="354" y="260" on="1"/>
        <pt x="354" y="612" on="1"/>
        <pt x="207" y="260" on="1"/>
      </contour>
    </TTGlyph>
    <TTGlyph name="Aacute" xMin="14" yMin="0" xMax="438" yMax="827">
      <component glyphName="A" x="0" y="0" flags="0x0"/>
      <component glyphName="acute" x="80" y="100" flags="0x4"/>
    </TTGlyph>
    <TTGlyph name="Abreve" xMin="14" yMin="0" xMax="438" yMax="827">
      <component glyphName="A" x="0" y="0" flags="0x0"/>
      <component glyphName="breve" x="50" y="100" flags="0x4"/>
    </TTGlyph>
    <TTGlyph name="Acircumflex" xMin="14" yMin="0" xMax="438" yMax="827">
      <component glyphName="A" x="0" y="0" flags="0x0"/>
      <component glyphName="circumflex" x="54" y="100" flags="0x4"/>
    </TTGlyph>
    <TTGlyph name="Adieresis" xMin="14" yMin="0" xMax="438" yMax="814">
      <component glyphName="dieresis" x="50" y="100" flags="0x4"/>
      <component glyphName="A" x="0" y="0" flags="0x0"/>
    </TTGlyph>
    <TTGlyph name="Agrave" xMin="14" yMin="0" xMax="438" yMax="827">
      <component glyphName="A" x="0" y="0" flags="0x0"/>
      <component glyphName="grave" x="14" y="100" flags="0x4"/>
    </TTGlyph>
    <TTGlyph name="Amacron" xMin="14" yMin="0" xMax="438" yMax="800">
      <component glyphName="A" x="0" y="0" flags="0x0"/>
      <component glyphName="macron" x="49" y="100" flags="0x4"/>
    </TTGlyph>
    <TTGlyph name="Aogonek" xMin="14" yMin="-183" xMax="438" yMax="677">
      <component glyphName="A" x="0" y="0" flags="0x0"/>
      <component glyphName="ogonek" x="210" y="0" flags="0x0"/>
    </TTGlyph>
    <TTGlyph name="Aring" xMin="14" yMin="0" xMax="438" yMax="847">
      <component glyphName="A" x="0" y="0" flags="0x0"/>
      <component glyphName="ring" x="50" y="100" flags="0x4"/>
    </TTGlyph>
    <TTGlyph name="Atilde" xMin="14" yMin="0" xMax="438" yMax="820">
      <component glyphName="A" x="0" y="0" flags="0x0"/>
      <component glyphName="tilde" x="52" y="100" flags="0x4"/>
    </TTGlyph>
    <TTGlyph name="B" xMin="62" yMin="0" xMax="422" yMax="677">
      <contour>
        <pt x="422" y="317" on="0"/>
        <pt x="422" y="217" on="1"/>
        <pt x="422" y="154" on="1"/>
        <pt x="422" y="79" on="0"/>
        <pt x="339" y="0" on="0"/>
        <pt x="258" y="0" on="1"/>
        <pt x="62" y="0" on="1"/>
        <pt x="62" y="677" on="1"/>
        <pt x="252" y="677" on="1"/>
        <pt x="333" y="677" on="0"/>
        <pt x="416" y="598" on="0"/>
        <pt x="416" y="524" on="1"/>
        <pt x="416" y="465" on="1"/>
        <pt x="416" y="369" on="0"/>
        <pt x="343" y="342" on="1"/>
      </contour>
      <contour>
        <pt x="154" y="598" on="1"/>
        <pt x="154" y="382" on="1"/>
        <pt x="242" y="382" on="1"/>
        <pt x="325" y="382" on="0"/>
        <pt x="325" y="461" on="1"/>
        <pt x="325" y="519" on="1"/>
        <pt x="325" y="598" on="0"/>
        <pt x="242" y="598" on="1"/>
      </contour>
      <contour>
        <pt x="331" y="221" on="1"/>
        <pt x="331" y="300" on="0"/>
        <pt x="248" y="300" on="1"/>
        <pt x="154" y="300" on="1"/>
        <pt x="154" y="79" on="1"/>
        <pt x="248" y="79" on="1"/>
        <pt x="331" y="79" on="0"/>
        <pt x="331" y="158" on="1"/>
      </contour>
    </TTGlyph>
    <TTGlyph name="C" xMin="52" yMin="-5" xMax="365" yMax="682">
      <contour>
        <pt x="52" y="604" on="0"/>
        <pt x="147" y="682" on="0"/>
        <pt x="244" y="682" on="1"/>
        <pt x="309" y="682" on="0"/>
        <pt x="363" y="667" on="1"/>
        <pt x="363" y="582" on="1"/>
        <pt x="303" y="599" on="0"/>
        <pt x="245" y="599" on="1"/>
        <pt x="190" y="599" on="0"/>
        <pt x="145" y="562" on="0"/>
        <pt x="145" y="527" on="1"/>
        <pt x="145" y="150" on="1"/>
        <pt x="145" y="115" on="0"/>
        <pt x="190" y="78" on="0"/>
        <pt x="245" y="78" on="1"/>
        <pt x="312" y="78" on="0"/>
        <pt x="365" y="95" on="1"/>
        <pt x="365" y="11" on="1"/>
        <pt x="343" y="4" on="0"/>
        <pt x="277" y="-5" on="0"/>
        <pt x="243" y="-5" on="1"/>
        <pt x="146" y="-5" on="0"/>
        <pt x="52" y="72" on="0"/>
        <pt x="52" y="144" on="1"/>
        <pt x="52" y="533" on="1"/>
      </contour>
    </TTGlyph>
    <TTGlyph name="Cacute" xMin="52" yMin="-5" xMax="365" yMax="827">
      <component glyphName="C" x="0" y="0" flags="0x0"/>
      <component glyphName="acute" x="88" y="100" flags="0x4"/>
    </TTGlyph>
    <TTGlyph name="Ccaron" xMin="52" yMin="-5" xMax="365" yMax="827">
      <component glyphName="C" x="0" y="0" flags="0x0"/>
      <component glyphName="caron" x="56" y="100" flags="0x4"/>
    </TTGlyph>
    <TTGlyph name="Ccedilla" xMin="52" yMin="-184" xMax="365" yMax="682">
      <component glyphName="C" x="0" y="0" flags="0x0"/>
      <component glyphName="cedilla" x="58" y="0" flags="0x0"/>
    </TTGlyph>
    <TTGlyph name="D" xMin="62" yMin="0" xMax="420" yMax="677">
      <contour>
        <pt x="337" y="677" on="0"/>
        <pt x="420" y="597" on="0"/>
        <pt x="420" y="526" on="1"/>
        <pt x="420" y="155" on="1"/>
        <pt x="420" y="83" on="0"/>
        <pt x="342" y="0" on="0"/>
        <pt x="260" y="0" on="1"/>
        <pt x="62" y="0" on="1"/>
        <pt x="62" y="677" on="1"/>
        <pt x="257" y="677" on="1"/>
      </contour>
      <contour>
        <pt x="328" y="560" on="0"/>
        <pt x="291" y="600" on="0"/>
        <pt x="248" y="600" on="1"/>
        <pt x="154" y="600" on="1"/>
        <pt x="154" y="80" on="1"/>
        <pt x="248" y="80" on="1"/>
        <pt x="328" y="80" on="0"/>
        <pt x="328" y="161" on="1"/>
        <pt x="328" y="523" on="1"/>
      </contour>
    </TTGlyph>
    <TTGlyph name="Dcaron" xMin="62" yMin="0" xMax="420" yMax="827">
      <component glyphName="D" x="0" y="0" flags="0x0"/>
      <component glyphName="caron" x="53" y="100" flags="0x4"/>
    </TTGlyph>
    <TTGlyph name="Dcroat" xMin="5" yMin="0" xMax="424" yMax="677">
      <contour>
        <pt x="341" y="677" on="0"/>
        <pt x="424" y="597" on="0"/>
        <pt x="424" y="526" on="1"/>
        <pt x="424" y="155" on="1"/>
        <pt x="424" y="83" on="0"/>
        <pt x="346" y="0" on="0"/>
        <pt x="264" y="0" on="1"/>
        <pt x="66" y="0" on="1"/>
        <pt x="66" y="298" on="1"/>
        <pt x="5" y="298" on="1"/>
        <pt x="5" y="376" on="1"/>
        <pt x="66" y="376" on="1"/>
        <pt x="66" y="677" on="1"/>
        <pt x="261" y="677" on="1"/>
      </contour>
      <contour>
        <pt x="332" y="523" on="1"/>
        <pt x="332" y="560" on="0"/>
        <pt x="295" y="600" on="0"/>
        <pt x="252" y="600" on="1"/>
        <pt x="158" y="600" on="1"/>
        <pt x="158" y="376" on="1"/>
        <pt x="248" y="376" on="1"/>
        <pt x="248" y="298" on="1"/>
        <pt x="158" y="298" on="1"/>
        <pt x="158" y="80" on="1"/>
        <pt x="252" y="80" on="1"/>
        <pt x="332" y="80" on="0"/>
        <pt x="332" y="161" on="1"/>
      </contour>
    </TTGlyph>
    <TTGlyph name="E" xMin="62" yMin="0" xMax="370" yMax="677">
      <contour>
        <pt x="370" y="597" on="1"/>
        <pt x="154" y="597" on="1"/>
        <pt x="154" y="382" on="1"/>
        <pt x="342" y="382" on="1"/>
        <pt x="342" y="302" on="1"/>
        <pt x="154" y="302" on="1"/>
        <pt x="154" y="81" on="1"/>
        <pt x="370" y="81" on="1"/>
        <pt x="370" y="0" on="1"/>
        <pt x="62" y="0" on="1"/>
        <pt x="62" y="677" on="1"/>
        <pt x="370" y="677" on="1"/>
      </contour>
    </TTGlyph>
    <TTGlyph name="Eacute" xMin="62" yMin="0" xMax="370" yMax="827">
      <component glyphName="E" x="0" y="0" flags="0x0"/>
      <component glyphName="acute" x="73" y="100" flags="0x4"/>
    </TTGlyph>
    <TTGlyph name="Ecaron" xMin="62" yMin="0" xMax="370" yMax="827">
      <component glyphName="E" x="0" y="0" flags="0x0"/>
      <component glyphName="caron" x="41" y="100" flags="0x4"/>
    </TTGlyph>
    <TTGlyph name="Ecircumflex" xMin="62" yMin="0" xMax="370" yMax="827">
      <component glyphName="E" x="0" y="0" flags="0x0"/>
      <component glyphName="circumflex" x="36" y="100" flags="0x4"/>
    </TTGlyph>
    <TTGlyph name="Edieresis" xMin="62" yMin="0" xMax="370" yMax="814">
      <component glyphName="E" x="0" y="0" flags="0x0"/>
      <component glyphName="dieresis" x="43" y="100" flags="0x4"/>
    </TTGlyph>
    <TTGlyph name="Edotaccent" xMin="62" yMin="0" xMax="370" yMax="831">
      <component glyphName="E" x="0" y="0" flags="0x0"/>
      <component glyphName="dotaccent" x="46" y="100" flags="0x4"/>
    </TTGlyph>
    <TTGlyph name="Egrave" xMin="62" yMin="0" xMax="370" yMax="827">
      <component glyphName="E" x="0" y="0" flags="0x0"/>
      <component glyphName="grave" x="11" y="100" flags="0x4"/>
    </TTGlyph>
    <TTGlyph name="Emacron" xMin="62" yMin="0" xMax="370" yMax="800">
      <component glyphName="E" x="0" y="0" flags="0x0"/>
      <component glyphName="macron" x="40" y="100" flags="0x4"/>
    </TTGlyph>
    <TTGlyph name="Eogonek" xMin="62" yMin="-183" xMax="370" yMax="677">
      <component glyphName="E" x="0" y="0" flags="0x0"/>
      <component glyphName="ogonek" x="143" y="0" flags="0x0"/>
    </TTGlyph>
    <TTGlyph name="Eth" xMin="-4" yMin="0" xMax="424" yMax="677">
      <contour>
        <pt x="341" y="677" on="0"/>
        <pt x="424" y="597" on="0"/>
        <pt x="424" y="526" on="1"/>
        <pt x="424" y="155" on="1"/>
        <pt x="424" y="83" on="0"/>
        <pt x="346" y="0" on="0"/>
        <pt x="264" y="0" on="1"/>
        <pt x="66" y="0" on="1"/>
        <pt x="66" y="294" on="1"/>
        <pt x="-4" y="294" on="1"/>
        <pt x="-4" y="372" on="1"/>
        <pt x="66" y="372" on="1"/>
        <pt x="66" y="677" on="1"/>
        <pt x="261" y="677" on="1"/>
      </contour>
      <contour>
        <pt x="332" y="523" on="1"/>
        <pt x="332" y="560" on="0"/>
        <pt x="295" y="600" on="0"/>
        <pt x="252" y="600" on="1"/>
        <pt x="158" y="600" on="1"/>
        <pt x="158" y="372" on="1"/>
        <pt x="253" y="372" on="1"/>
        <pt x="253" y="294" on="1"/>
        <pt x="158" y="294" on="1"/>
        <pt x="158" y="80" on="1"/>
        <pt x="252" y="80" on="1"/>
        <pt x="332" y="80" on="0"/>
        <pt x="332" y="161" on="1"/>
      </contour>
    </TTGlyph>
    <TTGlyph name="Euro" xMin="16" yMin="-5" xMax="381" yMax="682">
      <contour>
        <pt x="328" y="78" on="0"/>
        <pt x="381" y="95" on="1"/>
        <pt x="381" y="11" on="1"/>
        <pt x="359" y="4" on="0"/>
        <pt x="293" y="-5" on="0"/>
        <pt x="259" y="-5" on="1"/>
        <pt x="162" y="-5" on="0"/>
        <pt x="68" y="72" on="0"/>
        <pt x="68" y="144" on="1"/>
        <pt x="68" y="244" on="1"/>
        <pt x="16" y="244" on="1"/>
        <pt x="16" y="308" on="1"/>
        <pt x="68" y="308" on="1"/>
        <pt x="68" y="378" on="1"/>
        <pt x="16" y="378" on="1"/>
        <pt x="16" y="443" on="1"/>
        <pt x="68" y="443" on="1"/>
        <pt x="68" y="533" on="1"/>
        <pt x="68" y="604" on="0"/>
        <pt x="163" y="682" on="0"/>
        <pt x="260" y="682" on="1"/>
        <pt x="325" y="682" on="0"/>
        <pt x="379" y="667" on="1"/>
        <pt x="379" y="582" on="1"/>
        <pt x="319" y="599" on="0"/>
        <pt x="261" y="599" on="1"/>
        <pt x="206" y="599" on="0"/>
        <pt x="161" y="562" on="0"/>
        <pt x="161" y="527" on="1"/>
        <pt x="161" y="443" on="1"/>
        <pt x="301" y="443" on="1"/>
        <pt x="301" y="378" on="1"/>
        <pt x="161" y="378" on="1"/>
        <pt x="161" y="308" on="1"/>
        <pt x="301" y="308" on="1"/>
        <pt x="301" y="244" on="1"/>
        <pt x="161" y="244" on="1"/>
        <pt x="161" y="150" on="1"/>
        <pt x="161" y="115" on="0"/>
        <pt x="206" y="78" on="0"/>
        <pt x="261" y="78" on="1"/>
      </contour>
    </TTGlyph>
    <TTGlyph name="F" xMin="62" yMin="0" xMax="361" yMax="677">
      <contour>
        <pt x="361" y="596" on="1"/>
        <pt x="155" y="596" on="1"/>
        <pt x="155" y="366" on="1"/>
        <pt x="350" y="366" on="1"/>
        <pt x="350" y="284" on="1"/>
        <pt x="155" y="284" on="1"/>
        <pt x="155" y="0" on="1"/>
        <pt x="62" y="0" on="1"/>
        <pt x="62" y="677" on="1"/>
        <pt x="361" y="677" on="1"/>
      </contour>
    </TTGlyph>
    <TTGlyph name="G" xMin="52" yMin="-5" xMax="400" yMax="682">
      <contour>
        <pt x="52" y="600" on="0"/>
        <pt x="151" y="682" on="0"/>
        <pt x="251" y="682" on="1"/>
        <pt x="287" y="682" on="0"/>
        <pt x="355" y="672" on="0"/>
        <pt x="378" y="665" on="1"/>
        <pt x="378" y="577" on="1"/>
        <pt x="315" y="598" on="0"/>
        <pt x="253" y="598" on="1"/>
        <pt x="145" y="598" on="0"/>
        <pt x="145" y="521" on="1"/>
        <pt x="145" y="151" on="1"/>
        <pt x="145" y="113" on="0"/>
        <pt x="189" y="78" on="0"/>
        <pt x="234" y="78" on="1"/>
        <pt x="259" y="78" on="0"/>
        <pt x="301" y="89" on="0"/>
        <pt x="310" y="95" on="1"/>
        <pt x="310" y="341" on="1"/>
        <pt x="400" y="341" on="1"/>
        <pt x="400" y="35" on="1"/>
        <pt x="367" y="17" on="0"/>
        <pt x="295" y="-5" on="0"/>
        <pt x="235" y="-5" on="1"/>
        <pt x="148" y="-5" on="0"/>
        <pt x="52" y="69" on="0"/>
        <pt x="52" y="144" on="1"/>
        <pt x="52" y="528" on="1"/>
      </contour>
    </TTGlyph>
    <TTGlyph name="Gbreve" xMin="52" yMin="-5" xMax="400" yMax="827">
      <component glyphName="G" x="0" y="0" flags="0x0"/>
      <component glyphName="breve" x="60" y="100" flags="0x4"/>
    </TTGlyph>
    <TTGlyph name="H" xMin="62" yMin="0" xMax="442" yMax="677">
      <contour>
        <pt x="442" y="677" on="1"/>
        <pt x="442" y="0" on="1"/>
        <pt x="349" y="0" on="1"/>
        <pt x="349" y="291" on="1"/>
        <pt x="155" y="291" on="1"/>
        <pt x="155" y="0" on="1"/>
        <pt x="62" y="0" on="1"/>
        <pt x="62" y="677" on="1"/>
        <pt x="155" y="677" on="1"/>
        <pt x="155" y="374" on="1"/>
        <pt x="349" y="374" on="1"/>
        <pt x="349" y="677" on="1"/>
      </contour>
    </TTGlyph>
    <TTGlyph name="I" xMin="62" yMin="0" xMax="155" yMax="677">
      <contour>
        <pt x="155" y="0" on="1"/>
        <pt x="62" y="0" on="1"/>
        <pt x="62" y="677" on="1"/>
        <pt x="155" y="677" on="1"/>
      </contour>
    </TTGlyph>
    <TTGlyph name="Iacute" xMin="62" yMin="0" xMax="197" yMax="827">
      <component glyphName="I" x="0" y="0" flags="0x0"/>
      <component glyphName="acute" x="-37" y="100" flags="0x4"/>
    </TTGlyph>
    <TTGlyph name="Icircumflex" xMin="23" yMin="0" xMax="201" yMax="827">
      <component glyphName="I" x="0" y="0" flags="0x0"/>
      <component glyphName="circumflex" x="-63" y="100" flags="0x4"/>
    </TTGlyph>
    <TTGlyph name="Idieresis" xMin="-8" yMin="0" xMax="224" yMax="814">
      <component glyphName="I" x="0" y="0" flags="0x0"/>
      <component glyphName="dieresis" x="-67" y="100" flags="0x4"/>
    </TTGlyph>
    <TTGlyph name="Idotaccent" xMin="62" yMin="0" xMax="155" yMax="831">
      <component glyphName="I" x="0" y="0" flags="0x0"/>
      <component glyphName="dotaccent" x="-67" y="100" flags="0x4"/>
    </TTGlyph>
    <TTGlyph name="Igrave" xMin="21" yMin="0" xMax="155" yMax="827">
      <component glyphName="I" x="0" y="0" flags="0x0"/>
      <component glyphName="grave" x="-95" y="100" flags="0x4"/>
    </TTGlyph>
    <TTGlyph name="Imacron" xMin="-6" yMin="0" xMax="228" yMax="800">
      <component glyphName="I" x="0" y="0" flags="0x0"/>
      <component glyphName="macron" x="-64" y="100" flags="0x4"/>
    </TTGlyph>
    <TTGlyph name="Iogonek" xMin="54" yMin="-183" xMax="156" yMax="677">
      <component glyphName="I" x="0" y="0" flags="0x0"/>
      <component glyphName="ogonek" x="-71" y="0" flags="0x0"/>
    </TTGlyph>
    <TTGlyph name="J" xMin="-3" yMin="-149" xMax="157" yMax="677">
      <contour>
        <pt x="157" y="200" on="1"/>
        <pt x="157" y="122" on="0"/>
        <pt x="141" y="15" on="0"/>
        <pt x="124" y="-45" on="1"/>
        <pt x="93" y="-149" on="1"/>
        <pt x="-3" y="-149" on="1"/>
        <pt x="27" y="-44" on="1"/>
        <pt x="47" y="24" on="0"/>
        <pt x="65" y="130" on="0"/>
        <pt x="65" y="199" on="1"/>
        <pt x="65" y="677" on="1"/>
        <pt x="157" y="677" on="1"/>
      </contour>
    </TTGlyph>
    <TTGlyph name="K" xMin="62" yMin="0" xMax="433" yMax="677">
      <contour>
        <pt x="154" y="0" on="1"/>
        <pt x="62" y="0" on="1"/>
        <pt x="62" y="677" on="1"/>
        <pt x="154" y="677" on="1"/>
      </contour>
      <contour>
        <pt x="287" y="343" on="1"/>
        <pt x="433" y="0" on="1"/>
        <pt x="331" y="0" on="1"/>
        <pt x="189" y="341" on="1"/>
        <pt x="325" y="677" on="1"/>
        <pt x="424" y="677" on="1"/>
      </contour>
    </TTGlyph>
    <TTGlyph name="L" xMin="62" yMin="0" xMax="354" yMax="677">
      <contour>
        <pt x="155" y="79" on="1"/>
        <pt x="354" y="79" on="1"/>
        <pt x="354" y="0" on="1"/>
        <pt x="62" y="0" on="1"/>
        <pt x="62" y="677" on="1"/>
        <pt x="155" y="677" on="1"/>
      </contour>
    </TTGlyph>
    <TTGlyph name="Lacute" xMin="62" yMin="0" xMax="354" yMax="827">
      <component glyphName="L" x="0" y="0" flags="0x0"/>
      <component glyphName="acute" x="-37" y="100" flags="0x4"/>
    </TTGlyph>
    <TTGlyph name="Lcaron" xMin="62" yMin="0" xMax="354" yMax="726">
      <contour>
        <pt x="282" y="726" on="0"/>
        <pt x="282" y="699" on="1"/>
        <pt x="282" y="681" on="0"/>
        <pt x="249" y="618" on="0"/>
        <pt x="232" y="595" on="1"/>
        <pt x="194" y="595" on="1"/>
        <pt x="220" y="726" on="1"/>
        <pt x="253" y="726" on="1"/>
      </contour>
      <contour>
        <pt x="155" y="79" on="1"/>
        <pt x="354" y="79" on="1"/>
        <pt x="354" y="0" on="1"/>
        <pt x="62" y="0" on="1"/>
        <pt x="62" y="677" on="1"/>
        <pt x="155" y="677" on="1"/>
      </contour>
    </TTGlyph>
    <TTGlyph name="Lslash" xMin="12" yMin="0" xMax="358" yMax="677">
      <contour>
        <pt x="358" y="79" on="1"/>
        <pt x="358" y="0" on="1"/>
        <pt x="66" y="0" on="1"/>
        <pt x="66" y="274" on="1"/>
        <pt x="12" y="248" on="1"/>
        <pt x="12" y="316" on="1"/>
        <pt x="66" y="342" on="1"/>
        <pt x="66" y="677" on="1"/>
        <pt x="159" y="677" on="1"/>
        <pt x="159" y="387" on="1"/>
        <pt x="254" y="433" on="1"/>
        <pt x="254" y="364" on="1"/>
        <pt x="159" y="318" on="1"/>
        <pt x="159" y="79" on="1"/>
      </contour>
    </TTGlyph>
    <TTGlyph name="M" xMin="62" yMin="0" xMax="559" yMax="677">
      <contour>
        <pt x="559" y="0" on="1"/>
        <pt x="470" y="0" on="1"/>
        <pt x="470" y="324" on="1"/>
        <pt x="470" y="375" on="0"/>
        <pt x="475" y="468" on="0"/>
        <pt x="479" y="518" on="0"/>
        <pt x="480" y="525" on="1"/>
        <pt x="353" y="178" on="1"/>
        <pt x="267" y="178" on="1"/>
        <pt x="140" y="525" on="1"/>
        <pt x="142" y="509" on="0"/>
        <pt x="150" y="391" on="0"/>
        <pt x="150" y="325" on="1"/>
        <pt x="150" y="0" on="1"/>
        <pt x="62" y="0" on="1"/>
        <pt x="62" y="677" on="1"/>
        <pt x="165" y="677" on="1"/>
        <pt x="310" y="274" on="1"/>
        <pt x="455" y="677" on="1"/>
        <pt x="559" y="677" on="1"/>
      </contour>
    </TTGlyph>
    <TTGlyph name="N" xMin="62" yMin="0" xMax="446" yMax="677">
      <contour>
        <pt x="446" y="0" on="1"/>
        <pt x="347" y="0" on="1"/>
        <pt x="222" y="319" on="1"/>
        <pt x="200" y="375" on="0"/>
        <pt x="156" y="495" on="1"/>
        <pt x="141" y="535" on="1"/>
        <pt x="141" y="523" on="0"/>
        <pt x="143" y="498" on="0"/>
        <pt x="144" y="485" on="1"/>
        <pt x="152" y="402" on="0"/>
        <pt x="153" y="297" on="1"/>
        <pt x="153" y="0" on="1"/>
        <pt x="62" y="0" on="1"/>
        <pt x="62" y="677" on="1"/>
        <pt x="162" y="677" on="1"/>
        <pt x="287" y="360" on="1"/>
        <pt x="308" y="306" on="0"/>
        <pt x="343" y="208" on="0"/>
        <pt x="349" y="193" on="1"/>
        <pt x="356" y="171" on="0"/>
        <pt x="366" y="144" on="1"/>
        <pt x="366" y="165" on="0"/>
        <pt x="363" y="201" on="1"/>
        <pt x="355" y="316" on="0"/>
        <pt x="355" y="384" on="1"/>
        <pt x="355" y="677" on="1"/>
        <pt x="446" y="677" on="1"/>
      </contour>
    </TTGlyph>
    <TTGlyph name="Nacute" xMin="62" yMin="0" xMax="446" yMax="827">
      <component glyphName="N" x="0" y="0" flags="0x0"/>
      <component glyphName="acute" x="107" y="100" flags="0x4"/>
    </TTGlyph>
    <TTGlyph name="Ncaron" xMin="62" yMin="0" xMax="446" yMax="827">
      <component glyphName="N" x="0" y="0" flags="0x0"/>
      <component glyphName="caron" x="78" y="100" flags="0x4"/>
    </TTGlyph>
    <TTGlyph name="Ntilde" xMin="62" yMin="0" xMax="446" yMax="820">
      <component glyphName="N" x="0" y="0" flags="0x0"/>
      <component glyphName="tilde" x="87" y="100" flags="0x4"/>
    </TTGlyph>
    <TTGlyph name="O" xMin="52" yMin="-10" xMax="413" yMax="687">
      <contour>
        <pt x="52" y="597" on="0"/>
        <pt x="143" y="687" on="0"/>
        <pt x="232" y="687" on="1"/>
        <pt x="321" y="687" on="0"/>
        <pt x="413" y="597" on="0"/>
        <pt x="413" y="523" on="1"/>
        <pt x="413" y="154" on="1"/>
        <pt x="413" y="80" on="0"/>
        <pt x="321" y="-10" on="0"/>
        <pt x="232" y="-10" on="1"/>
        <pt x="143" y="-10" on="0"/>
        <pt x="52" y="80" on="0"/>
        <pt x="52" y="154" on="1"/>
        <pt x="52" y="523" on="1"/>
      </contour>
      <contour>
        <pt x="321" y="604" on="0"/>
        <pt x="232" y="604" on="1"/>
        <pt x="187" y="604" on="0"/>
        <pt x="144" y="559" on="0"/>
        <pt x="144" y="520" on="1"/>
        <pt x="144" y="157" on="1"/>
        <pt x="144" y="118" on="0"/>
        <pt x="187" y="74" on="0"/>
        <pt x="232" y="74" on="1"/>
        <pt x="321" y="74" on="0"/>
        <pt x="321" y="157" on="1"/>
        <pt x="321" y="520" on="1"/>
      </contour>
    </TTGlyph>
    <TTGlyph name="OE" xMin="72" yMin="0" xMax="653" yMax="677">
      <contour>
        <pt x="437" y="597" on="1"/>
        <pt x="437" y="382" on="1"/>
        <pt x="625" y="382" on="1"/>
        <pt x="625" y="302" on="1"/>
        <pt x="437" y="302" on="1"/>
        <pt x="437" y="81" on="1"/>
        <pt x="653" y="81" on="1"/>
        <pt x="653" y="0" on="1"/>
        <pt x="232" y="0" on="1"/>
        <pt x="151" y="0" on="0"/>
        <pt x="72" y="83" on="0"/>
        <pt x="72" y="155" on="1"/>
        <pt x="72" y="526" on="1"/>
        <pt x="72" y="597" on="0"/>
        <pt x="156" y="677" on="0"/>
        <pt x="236" y="677" on="1"/>
        <pt x="653" y="677" on="1"/>
        <pt x="653" y="597" on="1"/>
      </contour>
      <contour>
        <pt x="345" y="80" on="1"/>
        <pt x="345" y="600" on="1"/>
        <pt x="245" y="600" on="1"/>
        <pt x="201" y="600" on="0"/>
        <pt x="164" y="560" on="0"/>
        <pt x="164" y="523" on="1"/>
        <pt x="164" y="161" on="1"/>
        <pt x="164" y="80" on="0"/>
        <pt x="245" y="80" on="1"/>
      </contour>
    </TTGlyph>
    <TTGlyph name="Oacute" xMin="52" yMin="-10" xMax="413" yMax="827">
      <component glyphName="O" x="0" y="0" flags="0x0"/>
      <component glyphName="acute" x="92" y="100" flags="0x4"/>
    </TTGlyph>
    <TTGlyph name="Ocircumflex" xMin="52" yMin="-10" xMax="413" yMax="827">
      <component glyphName="O" x="0" y="0" flags="0x0"/>
      <component glyphName="circumflex" x="58" y="100" flags="0x4"/>
    </TTGlyph>
    <TTGlyph name="Odieresis" xMin="52" yMin="-10" xMax="413" yMax="814">
      <component glyphName="O" x="0" y="0" flags="0x0"/>
      <component glyphName="dieresis" x="57" y="100" flags="0x4"/>
    </TTGlyph>
    <TTGlyph name="Ograve" xMin="52" yMin="-10" xMax="413" yMax="827">
      <component glyphName="O" x="0" y="0" flags="0x0"/>
      <component glyphName="grave" x="21" y="100" flags="0x4"/>
    </TTGlyph>
    <TTGlyph name="Ohungarumlaut" xMin="52" yMin="-10" xMax="413" yMax="827">
      <component glyphName="O" x="0" y="0" flags="0x0"/>
      <component glyphName="hungarumlaut" x="87" y="100" flags="0x4"/>
    </TTGlyph>
    <TTGlyph name="Omacron" xMin="52" yMin="-10" xMax="413" yMax="800">
      <component glyphName="O" x="0" y="0" flags="0x0"/>
      <component glyphName="macron" x="59" y="100" flags="0x4"/>
    </TTGlyph>
    <TTGlyph name="Oslash" xMin="50" yMin="-10" xMax="415" yMax="687">
      <contour>
        <pt x="388" y="617" on="1"/>
        <pt x="413" y="579" on="0"/>
        <pt x="413" y="523" on="1"/>
        <pt x="413" y="154" on="1"/>
        <pt x="413" y="80" on="0"/>
        <pt x="321" y="-10" on="0"/>
        <pt x="232" y="-10" on="1"/>
        <pt x="165" y="-10" on="0"/>
        <pt x="121" y="17" on="1"/>
        <pt x="114" y="0" on="1"/>
        <pt x="50" y="0" on="1"/>
        <pt x="77" y="60" on="1"/>
        <pt x="52" y="98" on="0"/>
        <pt x="52" y="154" on="1"/>
        <pt x="52" y="523" on="1"/>
        <pt x="52" y="597" on="0"/>
        <pt x="143" y="687" on="0"/>
        <pt x="232" y="687" on="1"/>
        <pt x="300" y="687" on="0"/>
        <pt x="344" y="660" on="1"/>
        <pt x="352" y="677" on="1"/>
        <pt x="415" y="677" on="1"/>
      </contour>
      <contour>
        <pt x="144" y="211" on="1"/>
        <pt x="306" y="574" on="1"/>
        <pt x="284" y="604" on="0"/>
        <pt x="232" y="604" on="1"/>
        <pt x="187" y="604" on="0"/>
        <pt x="144" y="559" on="0"/>
        <pt x="144" y="520" on="1"/>
      </contour>
      <contour>
        <pt x="321" y="466" on="1"/>
        <pt x="160" y="103" on="1"/>
        <pt x="181" y="74" on="0"/>
        <pt x="232" y="74" on="1"/>
        <pt x="321" y="74" on="0"/>
        <pt x="321" y="157" on="1"/>
      </contour>
    </TTGlyph>
    <TTGlyph name="Otilde" xMin="52" yMin="-10" xMax="413" yMax="820">
      <component glyphName="O" x="0" y="0" flags="0x0"/>
      <component glyphName="tilde" x="58" y="100" flags="0x4"/>
    </TTGlyph>
    <TTGlyph name="P" xMin="62" yMin="0" xMax="408" yMax="677">
      <contour>
        <pt x="323" y="677" on="0"/>
        <pt x="408" y="597" on="0"/>
        <pt x="408" y="526" on="1"/>
        <pt x="408" y="374" on="1"/>
        <pt x="408" y="303" on="0"/>
        <pt x="323" y="223" on="0"/>
        <pt x="243" y="223" on="1"/>
        <pt x="155" y="223" on="1"/>
        <pt x="155" y="0" on="1"/>
        <pt x="62" y="0" on="1"/>
        <pt x="62" y="677" on="1"/>
        <pt x="243" y="677" on="1"/>
      </contour>
      <contour>
        <pt x="316" y="597" on="0"/>
        <pt x="235" y="597" on="1"/>
        <pt x="155" y="597" on="1"/>
        <pt x="155" y="303" on="1"/>
        <pt x="235" y="303" on="1"/>
        <pt x="316" y="303" on="0"/>
        <pt x="316" y="382" on="1"/>
        <pt x="316" y="518" on="1"/>
      </contour>
    </TTGlyph>
    <TTGlyph name="Q" xMin="52" yMin="-97" xMax="461" yMax="687">
      <contour>
        <pt x="349" y="-97" on="1"/>
        <pt x="267" y="-8" on="1"/>
        <pt x="245" y="-10" on="0"/>
        <pt x="232" y="-10" on="1"/>
        <pt x="143" y="-10" on="0"/>
        <pt x="52" y="80" on="0"/>
        <pt x="52" y="154" on="1"/>
        <pt x="52" y="523" on="1"/>
        <pt x="52" y="597" on="0"/>
        <pt x="143" y="687" on="0"/>
        <pt x="232" y="687" on="1"/>
        <pt x="321" y="687" on="0"/>
        <pt x="413" y="597" on="0"/>
        <pt x="413" y="523" on="1"/>
        <pt x="413" y="154" on="1"/>
        <pt x="413" y="64" on="0"/>
        <pt x="350" y="22" on="1"/>
        <pt x="461" y="-97" on="1"/>
      </contour>
      <contour>
        <pt x="144" y="118" on="0"/>
        <pt x="187" y="74" on="0"/>
        <pt x="232" y="74" on="1"/>
        <pt x="321" y="74" on="0"/>
        <pt x="321" y="157" on="1"/>
        <pt x="321" y="520" on="1"/>
        <pt x="321" y="604" on="0"/>
        <pt x="232" y="604" on="1"/>
        <pt x="187" y="604" on="0"/>
        <pt x="144" y="559" on="0"/>
        <pt x="144" y="520" on="1"/>
        <pt x="144" y="157" on="1"/>
      </contour>
    </TTGlyph>
    <TTGlyph name="R" xMin="62" yMin="0" xMax="430" yMax="677">
      <contour>
        <pt x="329" y="0" on="1"/>
        <pt x="232" y="265" on="1"/>
        <pt x="154" y="265" on="1"/>
        <pt x="154" y="0" on="1"/>
        <pt x="62" y="0" on="1"/>
        <pt x="62" y="677" on="1"/>
        <pt x="243" y="677" on="1"/>
        <pt x="323" y="677" on="0"/>
        <pt x="408" y="597" on="0"/>
        <pt x="408" y="526" on="1"/>
        <pt x="408" y="420" on="1"/>
        <pt x="408" y="307" on="0"/>
        <pt x="323" y="277" on="1"/>
        <pt x="430" y="0" on="1"/>
      </contour>
      <contour>
        <pt x="154" y="342" on="1"/>
        <pt x="235" y="342" on="1"/>
        <pt x="278" y="342" on="0"/>
        <pt x="316" y="381" on="0"/>
        <pt x="316" y="420" on="1"/>
        <pt x="316" y="521" on="1"/>
        <pt x="316" y="559" on="0"/>
        <pt x="277" y="597" on="0"/>
        <pt x="235" y="597" on="1"/>
        <pt x="154" y="597" on="1"/>
      </contour>
    </TTGlyph>
    <TTGlyph name="Racute" xMin="62" yMin="0" xMax="430" yMax="827">
      <component glyphName="R" x="0" y="0" flags="0x0"/>
      <component glyphName="acute" x="83" y="100" flags="0x4"/>
    </TTGlyph>
    <TTGlyph name="Rcaron" xMin="62" yMin="0" xMax="430" yMax="827">
      <component glyphName="R" x="0" y="0" flags="0x0"/>
      <component glyphName="caron" x="49" y="100" flags="0x4"/>
    </TTGlyph>
    <TTGlyph name="S" xMin="26" yMin="-5" xMax="373" yMax="682">
      <contour>
        <pt x="26" y="604" on="0"/>
        <pt x="119" y="682" on="0"/>
        <pt x="212" y="682" on="1"/>
        <pt x="253" y="682" on="0"/>
        <pt x="322" y="672" on="0"/>
        <pt x="343" y="665" on="1"/>
        <pt x="343" y="577" on="1"/>
        <pt x="291" y="597" on="0"/>
        <pt x="213" y="597" on="1"/>
        <pt x="119" y="597" on="0"/>
        <pt x="119" y="527" on="1"/>
        <pt x="119" y="488" on="1"/>
        <pt x="119" y="455" on="0"/>
        <pt x="144" y="417" on="0"/>
        <pt x="176" y="400" on="1"/>
        <pt x="292" y="336" on="1"/>
        <pt x="333" y="313" on="0"/>
        <pt x="373" y="249" on="0"/>
        <pt x="373" y="202" on="1"/>
        <pt x="373" y="146" on="1"/>
        <pt x="373" y="74" on="0"/>
        <pt x="272" y="-5" on="0"/>
        <pt x="172" y="-5" on="1"/>
        <pt x="130" y="-5" on="0"/>
        <pt x="53" y="8" on="0"/>
        <pt x="32" y="16" on="1"/>
        <pt x="32" y="104" on="1"/>
        <pt x="60" y="94" on="0"/>
        <pt x="134" y="80" on="0"/>
        <pt x="171" y="80" on="1"/>
        <pt x="228" y="80" on="0"/>
        <pt x="281" y="120" on="0"/>
        <pt x="281" y="155" on="1"/>
        <pt x="281" y="189" on="1"/>
        <pt x="281" y="219" on="0"/>
        <pt x="258" y="253" on="0"/>
        <pt x="228" y="270" on="1"/>
        <pt x="115" y="331" on="1"/>
        <pt x="71" y="355" on="0"/>
        <pt x="26" y="424" on="0"/>
        <pt x="26" y="474" on="1"/>
        <pt x="26" y="534" on="1"/>
      </contour>
    </TTGlyph>
    <TTGlyph name="Sacute" xMin="26" yMin="-5" xMax="373" yMax="827">
      <component glyphName="S" x="0" y="0" flags="0x0"/>
      <component glyphName="acute" x="58" y="100" flags="0x4"/>
    </TTGlyph>
    <TTGlyph name="Scaron" xMin="26" yMin="-5" xMax="373" yMax="827">
      <component glyphName="S" x="0" y="0" flags="0x0"/>
      <component glyphName="caron" x="28" y="100" flags="0x4"/>
    </TTGlyph>
    <TTGlyph name="T" xMin="8" yMin="0" xMax="359" yMax="677">
      <contour>
        <pt x="359" y="597" on="1"/>
        <pt x="230" y="597" on="1"/>
        <pt x="230" y="0" on="1"/>
        <pt x="137" y="0" on="1"/>
        <pt x="137" y="597" on="1"/>
        <pt x="8" y="597" on="1"/>
        <pt x="8" y="677" on="1"/>
        <pt x="359" y="677" on="1"/>
      </contour>
    </TTGlyph>
    <TTGlyph name="Tcaron" xMin="8" yMin="0" xMax="359" yMax="827">
      <component glyphName="T" x="0" y="0" flags="0x0"/>
      <component glyphName="caron" x="7" y="100" flags="0x4"/>
    </TTGlyph>
    <TTGlyph name="Thorn" xMin="72" yMin="0" xMax="413" yMax="677">
      <contour>
        <pt x="328" y="561" on="0"/>
        <pt x="413" y="480" on="0"/>
        <pt x="413" y="409" on="1"/>
        <pt x="413" y="268" on="1"/>
        <pt x="413" y="197" on="0"/>
        <pt x="328" y="117" on="0"/>
        <pt x="248" y="117" on="1"/>
        <pt x="162" y="117" on="1"/>
        <pt x="162" y="0" on="1"/>
        <pt x="72" y="0" on="1"/>
        <pt x="72" y="677" on="1"/>
        <pt x="162" y="677" on="1"/>
        <pt x="162" y="561" on="1"/>
        <pt x="248" y="561" on="1"/>
      </contour>
      <contour>
        <pt x="323" y="403" on="1"/>
        <pt x="323" y="441" on="0"/>
        <pt x="285" y="481" on="0"/>
        <pt x="242" y="481" on="1"/>
        <pt x="162" y="481" on="1"/>
        <pt x="162" y="198" on="1"/>
        <pt x="242" y="198" on="1"/>
        <pt x="285" y="198" on="0"/>
        <pt x="323" y="236" on="0"/>
        <pt x="323" y="275" on="1"/>
      </contour>
    </TTGlyph>
    <TTGlyph name="U" xMin="57" yMin="-10" xMax="416" yMax="677">
      <contour>
        <pt x="416" y="154" on="1"/>
        <pt x="416" y="80" on="0"/>
        <pt x="326" y="-10" on="0"/>
        <pt x="237" y="-10" on="1"/>
        <pt x="148" y="-10" on="0"/>
        <pt x="57" y="80" on="0"/>
        <pt x="57" y="154" on="1"/>
        <pt x="57" y="677" on="1"/>
        <pt x="149" y="677" on="1"/>
        <pt x="149" y="157" on="1"/>
        <pt x="149" y="74" on="0"/>
        <pt x="237" y="74" on="1"/>
        <pt x="324" y="74" on="0"/>
        <pt x="324" y="157" on="1"/>
        <pt x="324" y="677" on="1"/>
        <pt x="416" y="677" on="1"/>
      </contour>
    </TTGlyph>
    <TTGlyph name="Uacute" xMin="57" yMin="-10" xMax="416" yMax="827">
      <component glyphName="U" x="0" y="0" flags="0x0"/>
      <component glyphName="acute" x="93" y="100" flags="0x4"/>
    </TTGlyph>
    <TTGlyph name="Ucircumflex" xMin="57" yMin="-10" xMax="416" yMax="827">
      <component glyphName="U" x="0" y="0" flags="0x0"/>
      <component glyphName="circumflex" x="61" y="100" flags="0x4"/>
    </TTGlyph>
    <TTGlyph name="Udieresis" xMin="57" yMin="-10" xMax="416" yMax="814">
      <component glyphName="U" x="0" y="0" flags="0x0"/>
      <component glyphName="dieresis" x="61" y="100" flags="0x4"/>
    </TTGlyph>
    <TTGlyph name="Ugrave" xMin="57" yMin="-10" xMax="416" yMax="827">
      <component glyphName="U" x="0" y="0" flags="0x0"/>
      <component glyphName="grave" x="30" y="100" flags="0x4"/>
    </TTGlyph>
    <TTGlyph name="Uhungarumlaut" xMin="57" yMin="-10" xMax="416" yMax="827">
      <component glyphName="hungarumlaut" x="86" y="100" flags="0x4"/>
      <component glyphName="U" x="0" y="0" flags="0x0"/>
    </TTGlyph>
    <TTGlyph name="Umacron" xMin="57" yMin="-10" xMax="416" yMax="800">
      <component glyphName="U" x="0" y="0" flags="0x0"/>
      <component glyphName="macron" x="62" y="100" flags="0x4"/>
    </TTGlyph>
    <TTGlyph name="Uogonek" xMin="57" yMin="-173" xMax="416" yMax="677">
      <component glyphName="U" x="0" y="0" flags="0x0"/>
      <component glyphName="ogonek" x="105" y="10" flags="0x4"/>
    </TTGlyph>
    <TTGlyph name="Uring" xMin="57" yMin="-10" xMax="416" yMax="847">
      <component glyphName="U" x="0" y="0" flags="0x0"/>
      <component glyphName="ring" x="63" y="100" flags="0x4"/>
    </TTGlyph>
    <TTGlyph name="V" xMin="11" yMin="0" xMax="426" yMax="677">
      <contour>
        <pt x="284" y="0" on="1"/>
        <pt x="154" y="0" on="1"/>
        <pt x="11" y="677" on="1"/>
        <pt x="105" y="677" on="1"/>
        <pt x="171" y="355" on="1"/>
        <pt x="173" y="345" on="0"/>
        <pt x="195" y="218" on="1"/>
        <pt x="210" y="131" on="0"/>
        <pt x="219" y="85" on="1"/>
        <pt x="228" y="123" on="0"/>
        <pt x="244" y="225" on="1"/>
        <pt x="267" y="355" on="1"/>
        <pt x="330" y="677" on="1"/>
        <pt x="426" y="677" on="1"/>
      </contour>
    </TTGlyph>
    <TTGlyph name="W" xMin="17" yMin="0" xMax="588" yMax="677">
      <contour>
        <pt x="482" y="0" on="1"/>
        <pt x="384" y="0" on="1"/>
        <pt x="331" y="319" on="1"/>
        <pt x="320" y="387" on="0"/>
        <pt x="305" y="517" on="0"/>
        <pt x="303" y="536" on="1"/>
        <pt x="301" y="517" on="0"/>
        <pt x="287" y="386" on="0"/>
        <pt x="276" y="319" on="1"/>
        <pt x="223" y="0" on="1"/>
        <pt x="121" y="0" on="1"/>
        <pt x="17" y="677" on="1"/>
        <pt x="102" y="677" on="1"/>
        <pt x="158" y="323" on="1"/>
        <pt x="167" y="267" on="0"/>
        <pt x="179" y="157" on="0"/>
        <pt x="180" y="141" on="1"/>
        <pt x="182" y="157" on="0"/>
        <pt x="195" y="257" on="0"/>
        <pt x="205" y="323" on="1"/>
        <pt x="259" y="677" on="1"/>
        <pt x="347" y="677" on="1"/>
        <pt x="401" y="323" on="1"/>
        <pt x="425" y="144" on="1"/>
        <pt x="427" y="161" on="0"/>
        <pt x="440" y="276" on="0"/>
        <pt x="447" y="323" on="1"/>
        <pt x="504" y="677" on="1"/>
        <pt x="588" y="677" on="1"/>
      </contour>
    </TTGlyph>
    <TTGlyph name="X" xMin="11" yMin="0" xMax="402" yMax="677">
      <contour>
        <pt x="254" y="338" on="1"/>
        <pt x="402" y="0" on="1"/>
        <pt x="301" y="0" on="1"/>
        <pt x="207" y="237" on="1"/>
        <pt x="111" y="0" on="1"/>
        <pt x="11" y="0" on="1"/>
        <pt x="157" y="338" on="1"/>
        <pt x="11" y="677" on="1"/>
        <pt x="111" y="677" on="1"/>
        <pt x="207" y="439" on="1"/>
        <pt x="302" y="677" on="1"/>
        <pt x="402" y="677" on="1"/>
      </contour>
    </TTGlyph>
    <TTGlyph name="Y" xMin="3" yMin="0" xMax="426" yMax="677">
      <contour>
        <pt x="261" y="224" on="1"/>
        <pt x="261" y="0" on="1"/>
        <pt x="168" y="0" on="1"/>
        <pt x="168" y="224" on="1"/>
        <pt x="3" y="677" on="1"/>
        <pt x="98" y="677" on="1"/>
        <pt x="156" y="516" on="1"/>
        <pt x="183" y="437" on="0"/>
        <pt x="207" y="357" on="1"/>
        <pt x="216" y="326" on="1"/>
        <pt x="232" y="381" on="0"/>
        <pt x="275" y="516" on="1"/>
        <pt x="333" y="677" on="1"/>
        <pt x="426" y="677" on="1"/>
      </contour>
    </TTGlyph>
    <TTGlyph name="Yacute" xMin="3" yMin="0" xMax="426" yMax="827">
      <component glyphName="Y" x="0" y="0" flags="0x0"/>
      <component glyphName="acute" x="69" y="100" flags="0x4"/>
    </TTGlyph>
    <TTGlyph name="Ydieresis" xMin="3" yMin="0" xMax="426" yMax="814">
      <component glyphName="dieresis" x="37" y="100" flags="0x4"/>
      <component glyphName="Y" x="0" y="0" flags="0x0"/>
    </TTGlyph>
    <TTGlyph name="Z" xMin="26" yMin="0" xMax="366" yMax="677">
      <contour>
        <pt x="366" y="600" on="1"/>
        <pt x="122" y="79" on="1"/>
        <pt x="364" y="79" on="1"/>
        <pt x="364" y="0" on="1"/>
        <pt x="26" y="0" on="1"/>
        <pt x="26" y="79" on="1"/>
        <pt x="267" y="598" on="1"/>
        <pt x="31" y="598" on="1"/>
        <pt x="31" y="677" on="1"/>
        <pt x="366" y="677" on="1"/>
      </contour>
    </TTGlyph>
    <TTGlyph name="Zacute" xMin="26" yMin="0" xMax="366" yMax="827">
      <component glyphName="Z" x="0" y="0" flags="0x0"/>
      <component glyphName="acute" x="51" y="100" flags="0x4"/>
    </TTGlyph>
    <TTGlyph name="Zcaron" xMin="26" yMin="0" xMax="366" yMax="827">
      <component glyphName="Z" x="0" y="0" flags="0x0"/>
      <component glyphName="caron" x="23" y="100" flags="0x4"/>
    </TTGlyph>
    <TTGlyph name="Zdotaccent" xMin="26" yMin="0" xMax="366" yMax="831">
      <component glyphName="Z" x="0" y="0" flags="0x0"/>
      <component glyphName="dotaccent" x="23" y="100" flags="0x4"/>
    </TTGlyph>
    <TTGlyph name="a" xMin="28" yMin="-3" xMax="371" yMax="579">
      <contour>
        <pt x="79" y="568" on="0"/>
        <pt x="153" y="579" on="0"/>
        <pt x="194" y="579" on="1"/>
        <pt x="288" y="579" on="0"/>
        <pt x="371" y="501" on="0"/>
        <pt x="371" y="425" on="1"/>
        <pt x="371" y="0" on="1"/>
        <pt x="283" y="0" on="1"/>
        <pt x="283" y="41" on="1"/>
        <pt x="261" y="20" on="0"/>
        <pt x="209" y="-3" on="0"/>
        <pt x="166" y="-3" on="1"/>
        <pt x="95" y="-3" on="0"/>
        <pt x="28" y="66" on="0"/>
        <pt x="28" y="135" on="1"/>
        <pt x="28" y="168" on="1"/>
        <pt x="28" y="224" on="0"/>
        <pt x="86" y="293" on="0"/>
        <pt x="150" y="311" on="1"/>
        <pt x="282" y="348" on="1"/>
        <pt x="282" y="426" on="1"/>
        <pt x="282" y="463" on="0"/>
        <pt x="242" y="496" on="0"/>
        <pt x="188" y="496" on="1"/>
        <pt x="152" y="496" on="0"/>
        <pt x="78" y="484" on="0"/>
        <pt x="56" y="476" on="1"/>
        <pt x="56" y="561" on="1"/>
      </contour>
      <contour>
        <pt x="186" y="243" on="1"/>
        <pt x="147" y="232" on="0"/>
        <pt x="119" y="198" on="0"/>
        <pt x="119" y="165" on="1"/>
        <pt x="119" y="135" on="1"/>
        <pt x="119" y="102" on="0"/>
        <pt x="151" y="69" on="0"/>
        <pt x="188" y="69" on="1"/>
        <pt x="215" y="69" on="0"/>
        <pt x="264" y="86" on="0"/>
        <pt x="282" y="100" on="1"/>
        <pt x="282" y="269" on="1"/>
      </contour>
    </TTGlyph>
    <TTGlyph name="aacute" xMin="28" yMin="-3" xMax="371" yMax="727">
      <component glyphName="a" x="0" y="0" flags="0x0"/>
      <component glyphName="acute" x="62" y="0" flags="0x0"/>
    </TTGlyph>
    <TTGlyph name="abreve" xMin="28" yMin="-3" xMax="371" yMax="727">
      <component glyphName="a" x="0" y="0" flags="0x0"/>
      <component glyphName="breve" x="37" y="0" flags="0x0"/>
    </TTGlyph>
    <TTGlyph name="acircumflex" xMin="28" yMin="-3" xMax="371" yMax="727">
      <component glyphName="a" x="0" y="0" flags="0x0"/>
      <component glyphName="circumflex" x="40" y="0" flags="0x0"/>
    </TTGlyph>
    <TTGlyph name="acute" xMin="116" yMin="618" xMax="234" yMax="727">
      <contour>
        <pt x="171" y="618" on="1"/>
        <pt x="116" y="618" on="1"/>
        <pt x="156" y="727" on="1"/>
        <pt x="234" y="727" on="1"/>
      </contour>
    </TTGlyph>
    <TTGlyph name="adieresis" xMin="28" yMin="-3" xMax="371" yMax="714">
      <component glyphName="a" x="0" y="0" flags="0x0"/>
      <component glyphName="dieresis" x="35" y="0" flags="0x0"/>
    </TTGlyph>
    <TTGlyph name="ae" xMin="30" yMin="-5" xMax="620" yMax="584">
      <contour>
        <pt x="346" y="558" on="0"/>
        <pt x="411" y="584" on="0"/>
        <pt x="453" y="584" on="1"/>
        <pt x="538" y="584" on="0"/>
        <pt x="620" y="499" on="0"/>
        <pt x="620" y="427" on="1"/>
        <pt x="620" y="245" on="1"/>
        <pt x="371" y="245" on="1"/>
        <pt x="371" y="156" on="1"/>
        <pt x="371" y="115" on="0"/>
        <pt x="425" y="77" on="0"/>
        <pt x="483" y="77" on="1"/>
        <pt x="546" y="77" on="0"/>
        <pt x="604" y="95" on="1"/>
        <pt x="604" y="11" on="1"/>
        <pt x="576" y="3" on="0"/>
        <pt x="518" y="-5" on="0"/>
        <pt x="476" y="-5" on="1"/>
        <pt x="374" y="-5" on="0"/>
        <pt x="328" y="38" on="1"/>
        <pt x="302" y="18" on="0"/>
        <pt x="222" y="-4" on="0"/>
        <pt x="175" y="-4" on="1"/>
        <pt x="103" y="-4" on="0"/>
        <pt x="30" y="67" on="0"/>
        <pt x="30" y="135" on="1"/>
        <pt x="30" y="168" on="1"/>
        <pt x="30" y="224" on="0"/>
        <pt x="87" y="293" on="0"/>
        <pt x="150" y="312" on="1"/>
        <pt x="282" y="350" on="1"/>
        <pt x="281" y="429" on="1"/>
        <pt x="281" y="463" on="0"/>
        <pt x="242" y="496" on="0"/>
        <pt x="188" y="496" on="1"/>
        <pt x="151" y="496" on="0"/>
        <pt x="78" y="484" on="0"/>
        <pt x="56" y="476" on="1"/>
        <pt x="56" y="560" on="1"/>
        <pt x="79" y="567" on="0"/>
        <pt x="154" y="579" on="0"/>
        <pt x="193" y="579" on="1"/>
        <pt x="283" y="579" on="0"/>
        <pt x="326" y="538" on="1"/>
      </contour>
      <contour>
        <pt x="533" y="464" on="0"/>
        <pt x="494" y="506" on="0"/>
        <pt x="453" y="506" on="1"/>
        <pt x="412" y="506" on="0"/>
        <pt x="370" y="464" on="0"/>
        <pt x="370" y="427" on="1"/>
        <pt x="370" y="320" on="1"/>
        <pt x="533" y="320" on="1"/>
        <pt x="533" y="427" on="1"/>
      </contour>
      <contour>
        <pt x="186" y="243" on="1"/>
        <pt x="147" y="232" on="0"/>
        <pt x="119" y="198" on="0"/>
        <pt x="119" y="165" on="1"/>
        <pt x="119" y="135" on="1"/>
        <pt x="119" y="101" on="0"/>
        <pt x="152" y="69" on="0"/>
        <pt x="188" y="69" on="1"/>
        <pt x="216" y="69" on="0"/>
        <pt x="266" y="84" on="0"/>
        <pt x="283" y="98" on="1"/>
        <pt x="283" y="270" on="1"/>
      </contour>
    </TTGlyph>
    <TTGlyph name="agrave" xMin="28" yMin="-3" xMax="371" yMax="727">
      <component glyphName="a" x="0" y="0" flags="0x0"/>
      <component glyphName="grave" x="2" y="0" flags="0x0"/>
    </TTGlyph>
    <TTGlyph name="amacron" xMin="28" yMin="-3" xMax="371" yMax="700">
      <component glyphName="a" x="0" y="0" flags="0x0"/>
      <component glyphName="macron" x="36" y="0" flags="0x0"/>
    </TTGlyph>
    <TTGlyph name="ampersand" xMin="53" yMin="-8" xMax="457" yMax="683">
      <contour>
        <pt x="457" y="309" on="1"/>
        <pt x="413" y="309" on="1"/>
        <pt x="413" y="156" on="1"/>
        <pt x="413" y="81" on="0"/>
        <pt x="324" y="-8" on="0"/>
        <pt x="235" y="-8" on="1"/>
        <pt x="146" y="-8" on="0"/>
        <pt x="53" y="82" on="0"/>
        <pt x="53" y="156" on="1"/>
        <pt x="53" y="231" on="1"/>
        <pt x="53" y="324" on="0"/>
        <pt x="129" y="351" on="1"/>
        <pt x="93" y="365" on="0"/>
        <pt x="54" y="427" on="0"/>
        <pt x="54" y="472" on="1"/>
        <pt x="54" y="529" on="1"/>
        <pt x="54" y="600" on="0"/>
        <pt x="153" y="683" on="0"/>
        <pt x="253" y="683" on="1"/>
        <pt x="326" y="683" on="0"/>
        <pt x="379" y="666" on="1"/>
        <pt x="379" y="578" on="1"/>
        <pt x="328" y="597" on="0"/>
        <pt x="255" y="597" on="1"/>
        <pt x="194" y="597" on="0"/>
        <pt x="146" y="557" on="0"/>
        <pt x="146" y="521" on="1"/>
        <pt x="146" y="473" on="1"/>
        <pt x="146" y="432" on="0"/>
        <pt x="182" y="389" on="0"/>
        <pt x="224" y="389" on="1"/>
        <pt x="323" y="389" on="1"/>
        <pt x="323" y="450" on="1"/>
        <pt x="413" y="450" on="1"/>
        <pt x="413" y="389" on="1"/>
        <pt x="457" y="389" on="1"/>
      </contour>
      <contour>
        <pt x="323" y="309" on="1"/>
        <pt x="226" y="309" on="1"/>
        <pt x="145" y="309" on="0"/>
        <pt x="145" y="227" on="1"/>
        <pt x="145" y="157" on="1"/>
        <pt x="145" y="118" on="0"/>
        <pt x="190" y="73" on="0"/>
        <pt x="235" y="73" on="1"/>
        <pt x="280" y="73" on="0"/>
        <pt x="323" y="118" on="0"/>
        <pt x="323" y="157" on="1"/>
      </contour>
    </TTGlyph>
    <TTGlyph name="aogonek" xMin="28" yMin="-183" xMax="371" yMax="579">
      <component glyphName="a" x="0" y="0" flags="0x0"/>
      <component glyphName="ogonek" x="143" y="0" flags="0x0"/>
    </TTGlyph>
    <TTGlyph name="apostrophemod" xMin="28" yMin="505" xMax="143" yMax="719">
      <component glyphName="quoteright" x="0" y="0" flags="0x0"/>
    </TTGlyph>
    <TTGlyph name="approxequal" xMin="38" yMin="175" xMax="469" yMax="497">
      <contour>
        <pt x="466" y="484" on="0"/>
        <pt x="469" y="463" on="0"/>
        <pt x="469" y="450" on="1"/>
        <pt x="469" y="399" on="0"/>
        <pt x="414" y="347" on="0"/>
        <pt x="370" y="347" on="1"/>
        <pt x="339" y="347" on="0"/>
        <pt x="303" y="361" on="1"/>
        <pt x="200" y="402" on="1"/>
        <pt x="177" y="412" on="0"/>
        <pt x="157" y="412" on="1"/>
        <pt x="138" y="412" on="0"/>
        <pt x="117" y="393" on="0"/>
        <pt x="117" y="373" on="1"/>
        <pt x="117" y="369" on="0"/>
        <pt x="119" y="357" on="1"/>
        <pt x="41" y="357" on="1"/>
        <pt x="40" y="360" on="0"/>
        <pt x="38" y="380" on="0"/>
        <pt x="38" y="394" on="1"/>
        <pt x="38" y="444" on="0"/>
        <pt x="94" y="497" on="0"/>
        <pt x="138" y="497" on="1"/>
        <pt x="170" y="497" on="0"/>
        <pt x="204" y="483" on="1"/>
        <pt x="307" y="442" on="1"/>
        <pt x="334" y="431" on="0"/>
        <pt x="352" y="431" on="1"/>
        <pt x="369" y="431" on="0"/>
        <pt x="389" y="450" on="0"/>
        <pt x="389" y="470" on="1"/>
        <pt x="389" y="475" on="0"/>
        <pt x="387" y="487" on="1"/>
        <pt x="465" y="487" on="1"/>
      </contour>
      <contour>
        <pt x="466" y="312" on="0"/>
        <pt x="469" y="291" on="0"/>
        <pt x="469" y="278" on="1"/>
        <pt x="469" y="227" on="0"/>
        <pt x="414" y="175" on="0"/>
        <pt x="370" y="175" on="1"/>
        <pt x="339" y="175" on="0"/>
        <pt x="303" y="189" on="1"/>
        <pt x="200" y="230" on="1"/>
        <pt x="177" y="240" on="0"/>
        <pt x="157" y="240" on="1"/>
        <pt x="138" y="240" on="0"/>
        <pt x="117" y="221" on="0"/>
        <pt x="117" y="201" on="1"/>
        <pt x="117" y="197" on="0"/>
        <pt x="119" y="185" on="1"/>
        <pt x="41" y="185" on="1"/>
        <pt x="40" y="188" on="0"/>
        <pt x="38" y="208" on="0"/>
        <pt x="38" y="222" on="1"/>
        <pt x="38" y="272" on="0"/>
        <pt x="94" y="325" on="0"/>
        <pt x="138" y="325" on="1"/>
        <pt x="170" y="325" on="0"/>
        <pt x="204" y="311" on="1"/>
        <pt x="307" y="270" on="1"/>
        <pt x="334" y="259" on="0"/>
        <pt x="352" y="259" on="1"/>
        <pt x="369" y="259" on="0"/>
        <pt x="389" y="278" on="0"/>
        <pt x="389" y="298" on="1"/>
        <pt x="389" y="303" on="0"/>
        <pt x="387" y="315" on="1"/>
        <pt x="465" y="315" on="1"/>
      </contour>
    </TTGlyph>
    <TTGlyph name="aring" xMin="28" yMin="-3" xMax="371" yMax="747">
      <component glyphName="a" x="0" y="0" flags="0x0"/>
      <component glyphName="ring" x="34" y="0" flags="0x0"/>
    </TTGlyph>
    <TTGlyph name="asciicircum" xMin="2" yMin="385" xMax="344" yMax="683">
      <contour>
        <pt x="255" y="385" on="1"/>
        <pt x="174" y="630" on="1"/>
        <pt x="92" y="385" on="1"/>
        <pt x="2" y="385" on="1"/>
        <pt x="117" y="683" on="1"/>
        <pt x="230" y="683" on="1"/>
        <pt x="344" y="385" on="1"/>
      </contour>
    </TTGlyph>
    <TTGlyph name="asciitilde" xMin="24" yMin="267" xMax="455" yMax="417">
      <contour>
        <pt x="452" y="404" on="0"/>
        <pt x="455" y="383" on="0"/>
        <pt x="455" y="370" on="1"/>
        <pt x="455" y="320" on="0"/>
        <pt x="399" y="267" on="0"/>
        <pt x="355" y="267" on="1"/>
        <pt x="323" y="267" on="0"/>
        <pt x="289" y="281" on="1"/>
        <pt x="186" y="322" on="1"/>
        <pt x="163" y="332" on="0"/>
        <pt x="143" y="332" on="1"/>
        <pt x="124" y="332" on="0"/>
        <pt x="103" y="313" on="0"/>
        <pt x="103" y="293" on="1"/>
        <pt x="103" y="289" on="0"/>
        <pt x="105" y="277" on="1"/>
        <pt x="27" y="277" on="1"/>
        <pt x="26" y="280" on="0"/>
        <pt x="24" y="300" on="0"/>
        <pt x="24" y="314" on="1"/>
        <pt x="24" y="364" on="0"/>
        <pt x="80" y="417" on="0"/>
        <pt x="124" y="417" on="1"/>
        <pt x="156" y="417" on="0"/>
        <pt x="190" y="403" on="1"/>
        <pt x="293" y="362" on="1"/>
        <pt x="318" y="351" on="0"/>
        <pt x="337" y="351" on="1"/>
        <pt x="375" y="351" on="0"/>
        <pt x="375" y="390" on="1"/>
        <pt x="375" y="395" on="0"/>
        <pt x="373" y="407" on="1"/>
        <pt x="451" y="407" on="1"/>
      </contour>
    </TTGlyph>
    <TTGlyph name="asterisk" xMin="52" yMin="409" xMax="462" yMax="799">
      <contour>
        <pt x="330" y="565" on="0"/>
        <pt x="351" y="537" on="1"/>
        <pt x="409" y="458" on="1"/>
        <pt x="342" y="409" on="1"/>
        <pt x="285" y="488" on="1"/>
        <pt x="265" y="515" on="0"/>
        <pt x="256" y="540" on="1"/>
        <pt x="246" y="512" on="0"/>
        <pt x="228" y="488" on="1"/>
        <pt x="171" y="409" on="1"/>
        <pt x="105" y="458" on="1"/>
        <pt x="162" y="536" on="1"/>
        <pt x="181" y="562" on="0"/>
        <pt x="204" y="580" on="1"/>
        <pt x="174" y="580" on="0"/>
        <pt x="144" y="590" on="1"/>
        <pt x="52" y="620" on="1"/>
        <pt x="77" y="699" on="1"/>
        <pt x="170" y="669" on="1"/>
        <pt x="201" y="658" on="0"/>
        <pt x="223" y="643" on="1"/>
        <pt x="215" y="667" on="0"/>
        <pt x="215" y="701" on="1"/>
        <pt x="215" y="799" on="1"/>
        <pt x="298" y="799" on="1"/>
        <pt x="298" y="701" on="1"/>
        <pt x="298" y="665" on="0"/>
        <pt x="290" y="643" on="1"/>
        <pt x="309" y="656" on="0"/>
        <pt x="343" y="668" on="1"/>
        <pt x="436" y="699" on="1"/>
        <pt x="462" y="621" on="1"/>
        <pt x="369" y="590" on="1"/>
        <pt x="339" y="580" on="0"/>
        <pt x="310" y="580" on="1"/>
      </contour>
    </TTGlyph>
    <TTGlyph name="at" xMin="69" yMin="-120" xMax="812" yMax="674">
      <contour>
        <pt x="580" y="674" on="0"/>
        <pt x="743" y="583" on="0"/>
        <pt x="812" y="412" on="0"/>
        <pt x="812" y="284" on="1"/>
        <pt x="812" y="144" on="0"/>
        <pt x="724" y="22" on="0"/>
        <pt x="640" y="22" on="1"/>
        <pt x="556" y="22" on="0"/>
        <pt x="523" y="75" on="1"/>
        <pt x="484" y="48" on="0"/>
        <pt x="413" y="48" on="1"/>
        <pt x="355" y="48" on="0"/>
        <pt x="294" y="107" on="0"/>
        <pt x="294" y="161" on="1"/>
        <pt x="294" y="180" on="1"/>
        <pt x="294" y="230" on="0"/>
        <pt x="346" y="285" on="0"/>
        <pt x="399" y="303" on="1"/>
        <pt x="501" y="336" on="1"/>
        <pt x="501" y="393" on="1"/>
        <pt x="501" y="422" on="0"/>
        <pt x="474" y="452" on="0"/>
        <pt x="437" y="452" on="1"/>
        <pt x="407" y="452" on="0"/>
        <pt x="356" y="443" on="0"/>
        <pt x="316" y="434" on="1"/>
        <pt x="316" y="501" on="1"/>
        <pt x="385" y="517" on="0"/>
        <pt x="437" y="517" on="1"/>
        <pt x="575" y="517" on="0"/>
        <pt x="575" y="395" on="1"/>
        <pt x="575" y="168" on="1"/>
        <pt x="575" y="128" on="0"/>
        <pt x="609" y="93" on="0"/>
        <pt x="645" y="93" on="1"/>
        <pt x="689" y="93" on="0"/>
        <pt x="733" y="178" on="0"/>
        <pt x="733" y="284" on="1"/>
        <pt x="733" y="392" on="0"/>
        <pt x="685" y="528" on="0"/>
        <pt x="558" y="601" on="0"/>
        <pt x="441" y="601" on="1"/>
        <pt x="325" y="601" on="0"/>
        <pt x="197" y="524" on="0"/>
        <pt x="149" y="384" on="0"/>
        <pt x="149" y="277" on="1"/>
        <pt x="149" y="170" on="0"/>
        <pt x="198" y="30" on="0"/>
        <pt x="326" y="-46" on="0"/>
        <pt x="441" y="-46" on="1"/>
        <pt x="529" y="-46" on="1"/>
        <pt x="529" y="-120" on="1"/>
        <pt x="441" y="-120" on="1"/>
        <pt x="238" y="-120" on="0"/>
        <pt x="69" y="83" on="0"/>
        <pt x="69" y="277" on="1"/>
        <pt x="69" y="470" on="0"/>
        <pt x="240" y="674" on="0"/>
        <pt x="441" y="674" on="1"/>
      </contour>
      <contour>
        <pt x="501" y="268" on="1"/>
        <pt x="427" y="246" on="1"/>
        <pt x="395" y="235" on="0"/>
        <pt x="370" y="210" on="0"/>
        <pt x="370" y="181" on="1"/>
        <pt x="370" y="161" on="1"/>
        <pt x="370" y="135" on="0"/>
        <pt x="397" y="112" on="0"/>
        <pt x="426" y="112" on="1"/>
        <pt x="446" y="112" on="0"/>
        <pt x="480" y="122" on="0"/>
        <pt x="499" y="132" on="0"/>
        <pt x="501" y="134" on="1"/>
      </contour>
    </TTGlyph>
    <TTGlyph name="atilde" xMin="28" yMin="-3" xMax="371" yMax="720">
      <component glyphName="a" x="0" y="0" flags="0x0"/>
      <component glyphName="tilde" x="37" y="0" flags="0x0"/>
    </TTGlyph>
    <TTGlyph name="b" xMin="62" yMin="0" xMax="399" yMax="727">
      <contour>
        <pt x="154" y="555" on="1"/>
        <pt x="210" y="577" on="0"/>
        <pt x="268" y="577" on="1"/>
        <pt x="328" y="577" on="0"/>
        <pt x="399" y="510" on="0"/>
        <pt x="399" y="447" on="1"/>
        <pt x="399" y="148" on="1"/>
        <pt x="399" y="76" on="0"/>
        <pt x="317" y="0" on="0"/>
        <pt x="249" y="0" on="1"/>
        <pt x="62" y="0" on="1"/>
        <pt x="62" y="727" on="1"/>
        <pt x="154" y="727" on="1"/>
      </contour>
      <contour>
        <pt x="306" y="492" on="0"/>
        <pt x="244" y="492" on="1"/>
        <pt x="210" y="492" on="0"/>
        <pt x="155" y="471" on="1"/>
        <pt x="155" y="84" on="1"/>
        <pt x="227" y="84" on="1"/>
        <pt x="306" y="84" on="0"/>
        <pt x="306" y="158" on="1"/>
        <pt x="306" y="431" on="1"/>
      </contour>
    </TTGlyph>
    <TTGlyph name="backslash" xMin="34" yMin="-146" xMax="388" yMax="808">
      <contour>
        <pt x="388" y="-146" on="1"/>
        <pt x="304" y="-146" on="1"/>
        <pt x="34" y="808" on="1"/>
        <pt x="118" y="808" on="1"/>
      </contour>
    </TTGlyph>
    <TTGlyph name="bar" xMin="72" yMin="-161" xMax="139" yMax="824">
      <contour>
        <pt x="139" y="-161" on="1"/>
        <pt x="72" y="-161" on="1"/>
        <pt x="72" y="824" on="1"/>
        <pt x="139" y="824" on="1"/>
      </contour>
    </TTGlyph>
    <TTGlyph name="braceleft" xMin="57" yMin="-145" xMax="309" yMax="801">
      <contour>
        <pt x="216" y="401" on="0"/>
        <pt x="178" y="336" on="0"/>
        <pt x="128" y="328" on="1"/>
        <pt x="178" y="321" on="0"/>
        <pt x="216" y="259" on="0"/>
        <pt x="216" y="198" on="1"/>
        <pt x="216" y="-7" on="1"/>
        <pt x="216" y="-67" on="0"/>
        <pt x="286" y="-67" on="1"/>
        <pt x="309" y="-67" on="1"/>
        <pt x="309" y="-145" on="1"/>
        <pt x="281" y="-145" on="1"/>
        <pt x="211" y="-145" on="0"/>
        <pt x="135" y="-69" on="0"/>
        <pt x="135" y="-4" on="1"/>
        <pt x="135" y="221" on="1"/>
        <pt x="135" y="253" on="0"/>
        <pt x="97" y="289" on="0"/>
        <pt x="61" y="289" on="1"/>
        <pt x="57" y="289" on="1"/>
        <pt x="57" y="367" on="1"/>
        <pt x="61" y="367" on="1"/>
        <pt x="97" y="367" on="0"/>
        <pt x="135" y="403" on="0"/>
        <pt x="135" y="435" on="1"/>
        <pt x="135" y="660" on="1"/>
        <pt x="135" y="725" on="0"/>
        <pt x="211" y="801" on="0"/>
        <pt x="281" y="801" on="1"/>
        <pt x="309" y="801" on="1"/>
        <pt x="309" y="722" on="1"/>
        <pt x="286" y="722" on="1"/>
        <pt x="249" y="722" on="0"/>
        <pt x="216" y="692" on="0"/>
        <pt x="216" y="663" on="1"/>
        <pt x="216" y="462" on="1"/>
      </contour>
    </TTGlyph>
    <TTGlyph name="braceright" xMin="56" yMin="-145" xMax="307" yMax="801">
      <contour>
        <pt x="307" y="289" on="1"/>
        <pt x="304" y="289" on="1"/>
        <pt x="268" y="289" on="0"/>
        <pt x="230" y="253" on="0"/>
        <pt x="230" y="221" on="1"/>
        <pt x="230" y="-4" on="1"/>
        <pt x="230" y="-69" on="0"/>
        <pt x="154" y="-145" on="0"/>
        <pt x="84" y="-145" on="1"/>
        <pt x="56" y="-145" on="1"/>
        <pt x="56" y="-67" on="1"/>
        <pt x="79" y="-67" on="1"/>
        <pt x="149" y="-67" on="0"/>
        <pt x="149" y="-7" on="1"/>
        <pt x="149" y="198" on="1"/>
        <pt x="149" y="259" on="0"/>
        <pt x="187" y="321" on="0"/>
        <pt x="237" y="328" on="1"/>
        <pt x="187" y="336" on="0"/>
        <pt x="149" y="401" on="0"/>
        <pt x="149" y="462" on="1"/>
        <pt x="149" y="663" on="1"/>
        <pt x="149" y="692" on="0"/>
        <pt x="116" y="722" on="0"/>
        <pt x="79" y="722" on="1"/>
        <pt x="56" y="722" on="1"/>
        <pt x="56" y="801" on="1"/>
        <pt x="84" y="801" on="1"/>
        <pt x="154" y="801" on="0"/>
        <pt x="230" y="725" on="0"/>
        <pt x="230" y="660" on="1"/>
        <pt x="230" y="435" on="1"/>
        <pt x="230" y="403" on="0"/>
        <pt x="268" y="367" on="0"/>
        <pt x="304" y="367" on="1"/>
        <pt x="307" y="367" on="1"/>
      </contour>
    </TTGlyph>
    <TTGlyph name="bracketleft" xMin="83" yMin="-146" xMax="283" yMax="808">
      <contour>
        <pt x="283" y="-74" on="1"/>
        <pt x="283" y="-146" on="1"/>
        <pt x="83" y="-146" on="1"/>
        <pt x="83" y="808" on="1"/>
        <pt x="283" y="808" on="1"/>
        <pt x="283" y="736" on="1"/>
        <pt x="160" y="736" on="1"/>
        <pt x="160" y="-74" on="1"/>
      </contour>
    </TTGlyph>
    <TTGlyph name="bracketright" xMin="34" yMin="-146" xMax="233" yMax="808">
      <contour>
        <pt x="233" y="808" on="1"/>
        <pt x="233" y="-146" on="1"/>
        <pt x="34" y="-146" on="1"/>
        <pt x="34" y="-74" on="1"/>
        <pt x="156" y="-74" on="1"/>
        <pt x="156" y="736" on="1"/>
        <pt x="34" y="736" on="1"/>
        <pt x="34" y="808" on="1"/>
      </contour>
    </TTGlyph>
    <TTGlyph name="breve" xMin="63" yMin="618" xMax="287" yMax="727">
      <contour>
        <pt x="286" y="679" on="0"/>
        <pt x="226" y="618" on="0"/>
        <pt x="175" y="618" on="1"/>
        <pt x="124" y="618" on="0"/>
        <pt x="64" y="679" on="0"/>
        <pt x="63" y="727" on="1"/>
        <pt x="120" y="727" on="1"/>
        <pt x="120" y="701" on="0"/>
        <pt x="149" y="670" on="0"/>
        <pt x="175" y="670" on="1"/>
        <pt x="201" y="670" on="0"/>
        <pt x="230" y="701" on="0"/>
        <pt x="230" y="727" on="1"/>
        <pt x="287" y="727" on="1"/>
      </contour>
    </TTGlyph>
    <TTGlyph name="brokenbar" xMin="72" yMin="-161" xMax="139" yMax="824">
      <contour>
        <pt x="139" y="443" on="1"/>
        <pt x="72" y="443" on="1"/>
        <pt x="72" y="824" on="1"/>
        <pt x="139" y="824" on="1"/>
      </contour>
      <contour>
        <pt x="139" y="-161" on="1"/>
        <pt x="72" y="-161" on="1"/>
        <pt x="72" y="220" on="1"/>
        <pt x="139" y="220" on="1"/>
      </contour>
    </TTGlyph>
    <TTGlyph name="bullet" xMin="52" yMin="249" xMax="211" yMax="408">
      <contour>
        <pt x="52" y="408" on="0"/>
        <pt x="132" y="408" on="1"/>
        <pt x="211" y="408" on="0"/>
        <pt x="211" y="329" on="1"/>
        <pt x="211" y="249" on="0"/>
        <pt x="132" y="249" on="1"/>
        <pt x="52" y="249" on="0"/>
        <pt x="52" y="329" on="1"/>
      </contour>
    </TTGlyph>
    <TTGlyph name="c" xMin="52" yMin="-5" xMax="340" yMax="579">
      <contour>
        <pt x="52" y="579" on="0"/>
        <pt x="228" y="579" on="1"/>
        <pt x="289" y="579" on="0"/>
        <pt x="339" y="566" on="1"/>
        <pt x="339" y="480" on="1"/>
        <pt x="294" y="495" on="0"/>
        <pt x="239" y="495" on="1"/>
        <pt x="186" y="495" on="0"/>
        <pt x="145" y="461" on="0"/>
        <pt x="145" y="423" on="1"/>
        <pt x="145" y="151" on="1"/>
        <pt x="145" y="113" on="0"/>
        <pt x="185" y="80" on="0"/>
        <pt x="239" y="80" on="1"/>
        <pt x="295" y="80" on="0"/>
        <pt x="340" y="95" on="1"/>
        <pt x="340" y="9" on="1"/>
        <pt x="284" y="-5" on="0"/>
        <pt x="228" y="-5" on="1"/>
        <pt x="138" y="-5" on="0"/>
        <pt x="52" y="71" on="0"/>
        <pt x="52" y="146" on="1"/>
        <pt x="52" y="428" on="1"/>
      </contour>
    </TTGlyph>
    <TTGlyph name="cacute" xMin="52" yMin="-5" xMax="340" yMax="727">
      <component glyphName="c" x="0" y="0" flags="0x0"/>
      <component glyphName="acute" x="82" y="0" flags="0x0"/>
    </TTGlyph>
    <TTGlyph name="caron" xMin="86" yMin="618" xMax="264" yMax="727">
      <contour>
        <pt x="264" y="727" on="1"/>
        <pt x="211" y="618" on="1"/>
        <pt x="139" y="618" on="1"/>
        <pt x="86" y="727" on="1"/>
        <pt x="137" y="727" on="1"/>
        <pt x="175" y="667" on="1"/>
        <pt x="212" y="727" on="1"/>
      </contour>
    </TTGlyph>
    <TTGlyph name="ccaron" xMin="52" yMin="-5" xMax="340" yMax="727">
      <component glyphName="c" x="0" y="0" flags="0x0"/>
      <component glyphName="caron" x="48" y="0" flags="0x0"/>
    </TTGlyph>
    <TTGlyph name="ccedilla" xMin="52" yMin="-184" xMax="340" yMax="579">
      <component glyphName="c" x="0" y="0" flags="0x0"/>
      <component glyphName="cedilla" x="42" y="0" flags="0x0"/>
    </TTGlyph>
    <TTGlyph name="cedilla" xMin="103" yMin="-184" xMax="246" yMax="6">
      <contour>
        <pt x="181" y="-40" on="1"/>
        <pt x="208" y="-42" on="0"/>
        <pt x="246" y="-75" on="0"/>
        <pt x="246" y="-107" on="1"/>
        <pt x="246" y="-143" on="0"/>
        <pt x="194" y="-184" on="0"/>
        <pt x="153" y="-184" on="1"/>
        <pt x="124" y="-184" on="0"/>
        <pt x="103" y="-177" on="1"/>
        <pt x="103" y="-131" on="1"/>
        <pt x="118" y="-137" on="0"/>
        <pt x="144" y="-137" on="1"/>
        <pt x="165" y="-137" on="0"/>
        <pt x="190" y="-121" on="0"/>
        <pt x="190" y="-104" on="1"/>
        <pt x="190" y="-73" on="0"/>
        <pt x="142" y="-71" on="1"/>
        <pt x="130" y="-71" on="1"/>
        <pt x="146" y="6" on="1"/>
        <pt x="191" y="6" on="1"/>
      </contour>
    </TTGlyph>
    <TTGlyph name="cent" xMin="59" yMin="-75" xMax="347" yMax="654">
      <contour>
        <pt x="347" y="9" on="1"/>
        <pt x="306" y="-1" on="0"/>
        <pt x="272" y="-4" on="1"/>
        <pt x="272" y="-75" on="1"/>
        <pt x="187" y="-75" on="1"/>
        <pt x="187" y="-2" on="1"/>
        <pt x="59" y="17" on="0"/>
        <pt x="59" y="146" on="1"/>
        <pt x="59" y="428" on="1"/>
        <pt x="59" y="559" on="0"/>
        <pt x="189" y="576" on="1"/>
        <pt x="189" y="654" on="1"/>
        <pt x="274" y="654" on="1"/>
        <pt x="274" y="578" on="1"/>
        <pt x="309" y="576" on="0"/>
        <pt x="346" y="566" on="1"/>
        <pt x="346" y="480" on="1"/>
        <pt x="301" y="495" on="0"/>
        <pt x="246" y="495" on="1"/>
        <pt x="193" y="495" on="0"/>
        <pt x="152" y="461" on="0"/>
        <pt x="152" y="423" on="1"/>
        <pt x="152" y="151" on="1"/>
        <pt x="152" y="113" on="0"/>
        <pt x="192" y="80" on="0"/>
        <pt x="246" y="80" on="1"/>
        <pt x="302" y="80" on="0"/>
        <pt x="347" y="95" on="1"/>
      </contour>
    </TTGlyph>
    <TTGlyph name="circumflex" xMin="86" yMin="618" xMax="264" yMax="727">
      <contour>
        <pt x="212" y="618" on="1"/>
        <pt x="175" y="678" on="1"/>
        <pt x="137" y="618" on="1"/>
        <pt x="86" y="618" on="1"/>
        <pt x="139" y="727" on="1"/>
        <pt x="211" y="727" on="1"/>
        <pt x="264" y="618" on="1"/>
      </contour>
    </TTGlyph>
    <TTGlyph name="colon" xMin="33" yMin="-7" xMax="142" yMax="452">
      <contour>
        <pt x="33" y="452" on="0"/>
        <pt x="88" y="452" on="1"/>
        <pt x="142" y="452" on="0"/>
        <pt x="142" y="398" on="1"/>
        <pt x="142" y="343" on="0"/>
        <pt x="88" y="343" on="1"/>
        <pt x="33" y="343" on="0"/>
        <pt x="33" y="398" on="1"/>
      </contour>
      <contour>
        <pt x="33" y="102" on="0"/>
        <pt x="88" y="102" on="1"/>
        <pt x="142" y="102" on="0"/>
        <pt x="142" y="47" on="1"/>
        <pt x="142" y="-7" on="0"/>
        <pt x="88" y="-7" on="1"/>
        <pt x="33" y="-7" on="0"/>
        <pt x="33" y="47" on="1"/>
      </contour>
    </TTGlyph>
    <TTGlyph name="comma" xMin="9" yMin="-128" xMax="140" yMax="101">
      <contour>
        <pt x="117" y="101" on="0"/>
        <pt x="140" y="81" on="0"/>
        <pt x="140" y="62" on="1"/>
        <pt x="140" y="32" on="0"/>
        <pt x="89" y="-78" on="0"/>
        <pt x="61" y="-128" on="1"/>
        <pt x="9" y="-128" on="1"/>
        <pt x="51" y="101" on="1"/>
        <pt x="97" y="101" on="1"/>
      </contour>
    </TTGlyph>
    <TTGlyph name="copyright" xMin="44" yMin="0" xMax="649" yMax="655">
      <contour>
        <pt x="44" y="430" on="0"/>
        <pt x="96" y="573" on="0"/>
        <pt x="230" y="655" on="0"/>
        <pt x="347" y="655" on="1"/>
        <pt x="466" y="655" on="0"/>
        <pt x="599" y="574" on="0"/>
        <pt x="649" y="432" on="0"/>
        <pt x="649" y="327" on="1"/>
        <pt x="649" y="172" on="0"/>
        <pt x="515" y="0" on="0"/>
        <pt x="347" y="0" on="1"/>
        <pt x="230" y="0" on="0"/>
        <pt x="97" y="81" on="0"/>
        <pt x="44" y="224" on="0"/>
        <pt x="44" y="327" on="1"/>
      </contour>
      <contour>
        <pt x="576" y="416" on="0"/>
        <pt x="546" y="524" on="0"/>
        <pt x="447" y="587" on="0"/>
        <pt x="347" y="587" on="1"/>
        <pt x="248" y="587" on="0"/>
        <pt x="147" y="523" on="0"/>
        <pt x="116" y="414" on="0"/>
        <pt x="116" y="327" on="1"/>
        <pt x="116" y="240" on="0"/>
        <pt x="148" y="131" on="0"/>
        <pt x="249" y="68" on="0"/>
        <pt x="347" y="68" on="1"/>
        <pt x="443" y="68" on="0"/>
        <pt x="543" y="132" on="0"/>
        <pt x="576" y="242" on="0"/>
        <pt x="576" y="327" on="1"/>
      </contour>
      <contour>
        <pt x="226" y="444" on="0"/>
        <pt x="288" y="507" on="0"/>
        <pt x="359" y="507" on="1"/>
        <pt x="399" y="507" on="0"/>
        <pt x="434" y="499" on="1"/>
        <pt x="434" y="434" on="1"/>
        <pt x="414" y="439" on="0"/>
        <pt x="382" y="443" on="0"/>
        <pt x="359" y="443" on="1"/>
        <pt x="319" y="443" on="0"/>
        <pt x="296" y="414" on="0"/>
        <pt x="296" y="383" on="1"/>
        <pt x="296" y="273" on="1"/>
        <pt x="296" y="242" on="0"/>
        <pt x="319" y="213" on="0"/>
        <pt x="359" y="213" on="1"/>
        <pt x="382" y="213" on="0"/>
        <pt x="414" y="217" on="0"/>
        <pt x="434" y="222" on="1"/>
        <pt x="434" y="157" on="1"/>
        <pt x="431" y="156" on="0"/>
        <pt x="387" y="149" on="0"/>
        <pt x="359" y="149" on="1"/>
        <pt x="288" y="149" on="0"/>
        <pt x="226" y="211" on="0"/>
        <pt x="226" y="272" on="1"/>
        <pt x="226" y="384" on="1"/>
      </contour>
    </TTGlyph>
    <TTGlyph name="currency" xMin="31" yMin="114" xMax="431" yMax="564">
      <contour>
        <pt x="400" y="248" on="0"/>
        <pt x="385" y="215" on="1"/>
        <pt x="431" y="170" on="1"/>
        <pt x="375" y="114" on="1"/>
        <pt x="331" y="157" on="1"/>
        <pt x="294" y="136" on="0"/>
        <pt x="231" y="136" on="1"/>
        <pt x="169" y="136" on="0"/>
        <pt x="131" y="157" on="1"/>
        <pt x="87" y="114" on="1"/>
        <pt x="31" y="170" on="1"/>
        <pt x="77" y="215" on="1"/>
        <pt x="62" y="250" on="0"/>
        <pt x="62" y="294" on="1"/>
        <pt x="62" y="383" on="1"/>
        <pt x="62" y="430" on="0"/>
        <pt x="77" y="463" on="1"/>
        <pt x="32" y="508" on="1"/>
        <pt x="88" y="564" on="1"/>
        <pt x="131" y="521" on="1"/>
        <pt x="171" y="541" on="0"/>
        <pt x="231" y="541" on="1"/>
        <pt x="294" y="541" on="0"/>
        <pt x="331" y="520" on="1"/>
        <pt x="375" y="564" on="1"/>
        <pt x="431" y="508" on="1"/>
        <pt x="385" y="463" on="1"/>
        <pt x="400" y="429" on="0"/>
        <pt x="400" y="383" on="1"/>
        <pt x="400" y="294" on="1"/>
      </contour>
      <contour>
        <pt x="276" y="217" on="0"/>
        <pt x="311" y="255" on="0"/>
        <pt x="311" y="296" on="1"/>
        <pt x="311" y="381" on="1"/>
        <pt x="311" y="422" on="0"/>
        <pt x="276" y="461" on="0"/>
        <pt x="231" y="461" on="1"/>
        <pt x="187" y="461" on="0"/>
        <pt x="152" y="422" on="0"/>
        <pt x="152" y="381" on="1"/>
        <pt x="152" y="296" on="1"/>
        <pt x="152" y="256" on="0"/>
        <pt x="187" y="217" on="0"/>
        <pt x="231" y="217" on="1"/>
      </contour>
    </TTGlyph>
    <TTGlyph name="d" xMin="52" yMin="-3" xMax="389" yMax="727">
      <contour>
        <pt x="389" y="0" on="1"/>
        <pt x="298" y="0" on="1"/>
        <pt x="298" y="36" on="1"/>
        <pt x="257" y="-3" on="0"/>
        <pt x="190" y="-3" on="1"/>
        <pt x="122" y="-3" on="0"/>
        <pt x="52" y="71" on="0"/>
        <pt x="52" y="138" on="1"/>
        <pt x="52" y="417" on="1"/>
        <pt x="52" y="491" on="0"/>
        <pt x="138" y="574" on="0"/>
        <pt x="215" y="574" on="1"/>
        <pt x="296" y="574" on="1"/>
        <pt x="296" y="727" on="1"/>
        <pt x="389" y="727" on="1"/>
      </contour>
      <contour>
        <pt x="227" y="491" on="1"/>
        <pt x="145" y="491" on="0"/>
        <pt x="145" y="415" on="1"/>
        <pt x="145" y="149" on="1"/>
        <pt x="145" y="80" on="0"/>
        <pt x="212" y="80" on="1"/>
        <pt x="239" y="80" on="0"/>
        <pt x="283" y="96" on="0"/>
        <pt x="296" y="108" on="1"/>
        <pt x="296" y="491" on="1"/>
      </contour>
    </TTGlyph>
    <TTGlyph name="dagger" xMin="40" yMin="-29" xMax="324" yMax="793">
      <contour>
        <pt x="224" y="750" on="0"/>
        <pt x="219" y="662" on="0"/>
        <pt x="218" y="649" on="1"/>
        <pt x="227" y="650" on="0"/>
        <pt x="288" y="655" on="0"/>
        <pt x="324" y="655" on="1"/>
        <pt x="324" y="583" on="1"/>
        <pt x="288" y="583" on="0"/>
        <pt x="227" y="589" on="0"/>
        <pt x="218" y="590" on="1"/>
        <pt x="219" y="577" on="0"/>
        <pt x="224" y="484" on="0"/>
        <pt x="224" y="434" on="1"/>
        <pt x="224" y="-29" on="1"/>
        <pt x="140" y="-29" on="1"/>
        <pt x="140" y="434" on="1"/>
        <pt x="140" y="484" on="0"/>
        <pt x="146" y="577" on="0"/>
        <pt x="147" y="590" on="1"/>
        <pt x="139" y="589" on="0"/>
        <pt x="78" y="583" on="0"/>
        <pt x="40" y="583" on="1"/>
        <pt x="40" y="655" on="1"/>
        <pt x="78" y="655" on="0"/>
        <pt x="139" y="650" on="0"/>
        <pt x="147" y="649" on="1"/>
        <pt x="146" y="662" on="0"/>
        <pt x="140" y="751" on="0"/>
        <pt x="140" y="793" on="1"/>
        <pt x="224" y="793" on="1"/>
      </contour>
    </TTGlyph>
    <TTGlyph name="daggerdbl" xMin="40" yMin="-29" xMax="324" yMax="793">
      <contour>
        <pt x="224" y="751" on="0"/>
        <pt x="218" y="662" on="0"/>
        <pt x="217" y="649" on="1"/>
        <pt x="225" y="650" on="0"/>
        <pt x="286" y="655" on="0"/>
        <pt x="324" y="655" on="1"/>
        <pt x="324" y="583" on="1"/>
        <pt x="286" y="583" on="0"/>
        <pt x="225" y="589" on="0"/>
        <pt x="217" y="590" on="1"/>
        <pt x="219" y="476" on="0"/>
        <pt x="219" y="383" on="1"/>
        <pt x="219" y="290" on="0"/>
        <pt x="217" y="174" on="1"/>
        <pt x="225" y="175" on="0"/>
        <pt x="286" y="181" on="0"/>
        <pt x="324" y="181" on="1"/>
        <pt x="324" y="108" on="1"/>
        <pt x="286" y="108" on="0"/>
        <pt x="225" y="114" on="0"/>
        <pt x="217" y="115" on="1"/>
        <pt x="218" y="105" on="0"/>
        <pt x="224" y="27" on="0"/>
        <pt x="224" y="-29" on="1"/>
        <pt x="140" y="-29" on="1"/>
        <pt x="140" y="27" on="0"/>
        <pt x="145" y="105" on="0"/>
        <pt x="146" y="115" on="1"/>
        <pt x="138" y="114" on="0"/>
        <pt x="78" y="108" on="0"/>
        <pt x="40" y="108" on="1"/>
        <pt x="40" y="181" on="1"/>
        <pt x="78" y="181" on="0"/>
        <pt x="138" y="175" on="0"/>
        <pt x="146" y="174" on="1"/>
        <pt x="145" y="232" on="0"/>
        <pt x="145" y="383" on="1"/>
        <pt x="145" y="533" on="0"/>
        <pt x="146" y="590" on="1"/>
        <pt x="138" y="589" on="0"/>
        <pt x="78" y="583" on="0"/>
        <pt x="40" y="583" on="1"/>
        <pt x="40" y="655" on="1"/>
        <pt x="78" y="655" on="0"/>
        <pt x="138" y="650" on="0"/>
        <pt x="146" y="649" on="1"/>
        <pt x="145" y="662" on="0"/>
        <pt x="140" y="751" on="0"/>
        <pt x="140" y="793" on="1"/>
        <pt x="224" y="793" on="1"/>
      </contour>
    </TTGlyph>
    <TTGlyph name="danda" xMin="146" yMin="0" xMax="231" yMax="655">
      <contour>
        <pt x="231" y="655" on="1"/>
        <pt x="231" y="0" on="1"/>
        <pt x="146" y="0" on="1"/>
        <pt x="146" y="655" on="1"/>
      </contour>
    </TTGlyph>
    <TTGlyph name="dcaron" xMin="52" yMin="-3" xMax="516" yMax="727">
      <contour>
        <pt x="389" y="0" on="1"/>
        <pt x="298" y="0" on="1"/>
        <pt x="298" y="36" on="1"/>
        <pt x="257" y="-3" on="0"/>
        <pt x="190" y="-3" on="1"/>
        <pt x="122" y="-3" on="0"/>
        <pt x="52" y="71" on="0"/>
        <pt x="52" y="138" on="1"/>
        <pt x="52" y="417" on="1"/>
        <pt x="52" y="491" on="0"/>
        <pt x="138" y="574" on="0"/>
        <pt x="215" y="574" on="1"/>
        <pt x="296" y="574" on="1"/>
        <pt x="296" y="727" on="1"/>
        <pt x="389" y="727" on="1"/>
      </contour>
      <contour>
        <pt x="516" y="726" on="0"/>
        <pt x="516" y="699" on="1"/>
        <pt x="516" y="681" on="0"/>
        <pt x="483" y="618" on="0"/>
        <pt x="466" y="595" on="1"/>
        <pt x="428" y="595" on="1"/>
        <pt x="454" y="726" on="1"/>
        <pt x="487" y="726" on="1"/>
      </contour>
      <contour>
        <pt x="227" y="491" on="1"/>
        <pt x="145" y="491" on="0"/>
        <pt x="145" y="415" on="1"/>
        <pt x="145" y="149" on="1"/>
        <pt x="145" y="80" on="0"/>
        <pt x="212" y="80" on="1"/>
        <pt x="239" y="80" on="0"/>
        <pt x="283" y="96" on="0"/>
        <pt x="296" y="108" on="1"/>
        <pt x="296" y="491" on="1"/>
      </contour>
    </TTGlyph>
    <TTGlyph name="dcroat" xMin="53" yMin="-3" xMax="430" yMax="727">
      <contour>
        <pt x="430" y="630" on="1"/>
        <pt x="390" y="630" on="1"/>
        <pt x="390" y="0" on="1"/>
        <pt x="299" y="0" on="1"/>
        <pt x="299" y="36" on="1"/>
        <pt x="258" y="-3" on="0"/>
        <pt x="191" y="-3" on="1"/>
        <pt x="123" y="-3" on="0"/>
        <pt x="53" y="71" on="0"/>
        <pt x="53" y="138" on="1"/>
        <pt x="53" y="417" on="1"/>
        <pt x="53" y="491" on="0"/>
        <pt x="139" y="574" on="0"/>
        <pt x="216" y="574" on="1"/>
        <pt x="297" y="574" on="1"/>
        <pt x="297" y="630" on="1"/>
        <pt x="172" y="630" on="1"/>
        <pt x="172" y="680" on="1"/>
        <pt x="297" y="680" on="1"/>
        <pt x="297" y="727" on="1"/>
        <pt x="390" y="727" on="1"/>
        <pt x="390" y="680" on="1"/>
        <pt x="430" y="680" on="1"/>
      </contour>
      <contour>
        <pt x="297" y="491" on="1"/>
        <pt x="228" y="491" on="1"/>
        <pt x="146" y="491" on="0"/>
        <pt x="146" y="415" on="1"/>
        <pt x="146" y="149" on="1"/>
        <pt x="146" y="80" on="0"/>
        <pt x="213" y="80" on="1"/>
        <pt x="240" y="80" on="0"/>
        <pt x="284" y="96" on="0"/>
        <pt x="297" y="108" on="1"/>
      </contour>
    </TTGlyph>
    <TTGlyph name="degree" xMin="50" yMin="502" xMax="343" yMax="811">
      <contour>
        <pt x="50" y="728" on="0"/>
        <pt x="119" y="811" on="0"/>
        <pt x="196" y="811" on="1"/>
        <pt x="272" y="811" on="0"/>
        <pt x="343" y="728" on="0"/>
        <pt x="343" y="657" on="1"/>
        <pt x="343" y="586" on="0"/>
        <pt x="272" y="502" on="0"/>
        <pt x="196" y="502" on="1"/>
        <pt x="119" y="502" on="0"/>
        <pt x="50" y="586" on="0"/>
        <pt x="50" y="657" on="1"/>
      </contour>
      <contour>
        <pt x="268" y="697" on="0"/>
        <pt x="237" y="740" on="0"/>
        <pt x="196" y="740" on="1"/>
        <pt x="155" y="740" on="0"/>
        <pt x="125" y="697" on="0"/>
        <pt x="125" y="656" on="1"/>
        <pt x="125" y="615" on="0"/>
        <pt x="155" y="573" on="0"/>
        <pt x="196" y="573" on="1"/>
        <pt x="237" y="573" on="0"/>
        <pt x="268" y="615" on="0"/>
        <pt x="268" y="656" on="1"/>
      </contour>
    </TTGlyph>
    <TTGlyph name="dieresis" xMin="59" yMin="630" xMax="291" yMax="714">
      <contour>
        <pt x="59" y="714" on="0"/>
        <pt x="103" y="714" on="1"/>
        <pt x="146" y="714" on="0"/>
        <pt x="146" y="672" on="1"/>
        <pt x="146" y="630" on="0"/>
        <pt x="103" y="630" on="1"/>
        <pt x="59" y="630" on="0"/>
        <pt x="59" y="672" on="1"/>
      </contour>
      <contour>
        <pt x="204" y="714" on="0"/>
        <pt x="247" y="714" on="1"/>
        <pt x="291" y="714" on="0"/>
        <pt x="291" y="672" on="1"/>
        <pt x="291" y="630" on="0"/>
        <pt x="247" y="630" on="1"/>
        <pt x="224" y="630" on="0"/>
        <pt x="204" y="652" on="0"/>
        <pt x="204" y="672" on="1"/>
      </contour>
    </TTGlyph>
    <TTGlyph name="divide" xMin="40" yMin="102" xMax="412" yMax="547">
      <contour>
        <pt x="177" y="547" on="0"/>
        <pt x="228" y="547" on="1"/>
        <pt x="279" y="547" on="0"/>
        <pt x="279" y="496" on="1"/>
        <pt x="279" y="445" on="0"/>
        <pt x="228" y="445" on="1"/>
        <pt x="177" y="445" on="0"/>
        <pt x="177" y="496" on="1"/>
      </contour>
      <contour>
        <pt x="412" y="286" on="1"/>
        <pt x="40" y="286" on="1"/>
        <pt x="40" y="364" on="1"/>
        <pt x="412" y="364" on="1"/>
      </contour>
      <contour>
        <pt x="177" y="204" on="0"/>
        <pt x="228" y="204" on="1"/>
        <pt x="279" y="204" on="0"/>
        <pt x="279" y="153" on="1"/>
        <pt x="279" y="102" on="0"/>
        <pt x="228" y="102" on="1"/>
        <pt x="177" y="102" on="0"/>
        <pt x="177" y="153" on="1"/>
      </contour>
    </TTGlyph>
    <TTGlyph name="dollar" xMin="26" yMin="-69" xMax="373" yMax="739">
      <contour>
        <pt x="333" y="313" on="0"/>
        <pt x="373" y="249" on="0"/>
        <pt x="373" y="202" on="1"/>
        <pt x="373" y="146" on="1"/>
        <pt x="373" y="86" on="0"/>
        <pt x="303" y="11" on="0"/>
        <pt x="233" y="-1" on="1"/>
        <pt x="233" y="-69" on="1"/>
        <pt x="148" y="-69" on="1"/>
        <pt x="148" y="-4" on="1"/>
        <pt x="113" y="-3" on="0"/>
        <pt x="50" y="9" on="0"/>
        <pt x="32" y="16" on="1"/>
        <pt x="32" y="104" on="1"/>
        <pt x="60" y="94" on="0"/>
        <pt x="134" y="80" on="0"/>
        <pt x="171" y="80" on="1"/>
        <pt x="228" y="80" on="0"/>
        <pt x="281" y="120" on="0"/>
        <pt x="281" y="155" on="1"/>
        <pt x="281" y="189" on="1"/>
        <pt x="281" y="219" on="0"/>
        <pt x="258" y="253" on="0"/>
        <pt x="228" y="270" on="1"/>
        <pt x="115" y="331" on="1"/>
        <pt x="71" y="355" on="0"/>
        <pt x="26" y="424" on="0"/>
        <pt x="26" y="474" on="1"/>
        <pt x="26" y="534" on="1"/>
        <pt x="26" y="592" on="0"/>
        <pt x="91" y="667" on="0"/>
        <pt x="156" y="678" on="1"/>
        <pt x="156" y="739" on="1"/>
        <pt x="242" y="739" on="1"/>
        <pt x="242" y="681" on="1"/>
        <pt x="305" y="678" on="0"/>
        <pt x="343" y="665" on="1"/>
        <pt x="343" y="577" on="1"/>
        <pt x="291" y="597" on="0"/>
        <pt x="213" y="597" on="1"/>
        <pt x="119" y="597" on="0"/>
        <pt x="119" y="527" on="1"/>
        <pt x="119" y="488" on="1"/>
        <pt x="119" y="455" on="0"/>
        <pt x="144" y="417" on="0"/>
        <pt x="176" y="400" on="1"/>
        <pt x="292" y="336" on="1"/>
      </contour>
    </TTGlyph>
    <TTGlyph name="dotaccent" xMin="130" yMin="647" xMax="217" yMax="731">
      <contour>
        <pt x="130" y="731" on="0"/>
        <pt x="174" y="731" on="1"/>
        <pt x="217" y="731" on="0"/>
        <pt x="217" y="688" on="1"/>
        <pt x="217" y="647" on="0"/>
        <pt x="174" y="647" on="1"/>
        <pt x="130" y="647" on="0"/>
        <pt x="130" y="688" on="1"/>
      </contour>
    </TTGlyph>
    <TTGlyph name="dotlessi" xMin="62" yMin="0" xMax="155" yMax="568">
      <contour>
        <pt x="155" y="0" on="1"/>
        <pt x="62" y="0" on="1"/>
        <pt x="62" y="568" on="1"/>
        <pt x="155" y="568" on="1"/>
      </contour>
    </TTGlyph>
    <TTGlyph name="dottedcircle" xMin="44" yMin="30" xMax="616" yMax="604">
      <contour>
        <pt x="257" y="580" on="0"/>
        <pt x="282" y="604" on="0"/>
        <pt x="301" y="604" on="1"/>
        <pt x="321" y="604" on="0"/>
        <pt x="345" y="580" on="0"/>
        <pt x="345" y="560" on="1"/>
        <pt x="345" y="541" on="0"/>
        <pt x="321" y="516" on="0"/>
        <pt x="301" y="516" on="1"/>
        <pt x="282" y="516" on="0"/>
        <pt x="257" y="541" on="0"/>
        <pt x="257" y="560" on="1"/>
      </contour>
      <contour>
        <pt x="383" y="565" on="0"/>
        <pt x="409" y="590" on="0"/>
        <pt x="428" y="590" on="1"/>
        <pt x="447" y="590" on="0"/>
        <pt x="471" y="565" on="0"/>
        <pt x="471" y="545" on="1"/>
        <pt x="471" y="527" on="0"/>
        <pt x="446" y="501" on="0"/>
        <pt x="428" y="501" on="1"/>
        <pt x="409" y="501" on="0"/>
        <pt x="383" y="527" on="0"/>
        <pt x="383" y="545" on="1"/>
      </contour>
      <contour>
        <pt x="139" y="536" on="0"/>
        <pt x="164" y="561" on="0"/>
        <pt x="183" y="561" on="1"/>
        <pt x="202" y="561" on="0"/>
        <pt x="227" y="536" on="0"/>
        <pt x="227" y="517" on="1"/>
        <pt x="227" y="497" on="0"/>
        <pt x="202" y="472" on="0"/>
        <pt x="183" y="472" on="1"/>
        <pt x="164" y="472" on="0"/>
        <pt x="139" y="497" on="0"/>
        <pt x="139" y="517" on="1"/>
      </contour>
      <contour>
        <pt x="478" y="496" on="0"/>
        <pt x="503" y="522" on="0"/>
        <pt x="522" y="522" on="1"/>
        <pt x="541" y="522" on="0"/>
        <pt x="566" y="497" on="0"/>
        <pt x="566" y="477" on="1"/>
        <pt x="566" y="458" on="0"/>
        <pt x="541" y="433" on="0"/>
        <pt x="522" y="433" on="1"/>
        <pt x="503" y="433" on="0"/>
        <pt x="478" y="458" on="0"/>
        <pt x="478" y="477" on="1"/>
      </contour>
      <contour>
        <pt x="57" y="426" on="0"/>
        <pt x="83" y="451" on="0"/>
        <pt x="103" y="451" on="1"/>
        <pt x="121" y="451" on="0"/>
        <pt x="147" y="426" on="0"/>
        <pt x="147" y="407" on="1"/>
        <pt x="147" y="388" on="0"/>
        <pt x="121" y="363" on="0"/>
        <pt x="103" y="363" on="1"/>
        <pt x="83" y="363" on="0"/>
        <pt x="57" y="388" on="0"/>
        <pt x="57" y="407" on="1"/>
      </contour>
      <contour>
        <pt x="528" y="379" on="0"/>
        <pt x="553" y="403" on="0"/>
        <pt x="572" y="403" on="1"/>
        <pt x="591" y="403" on="0"/>
        <pt x="616" y="378" on="0"/>
        <pt x="616" y="359" on="1"/>
        <pt x="616" y="340" on="0"/>
        <pt x="591" y="315" on="0"/>
        <pt x="572" y="315" on="1"/>
        <pt x="553" y="315" on="0"/>
        <pt x="528" y="340" on="0"/>
        <pt x="528" y="359" on="1"/>
      </contour>
      <contour>
        <pt x="44" y="300" on="0"/>
        <pt x="69" y="326" on="0"/>
        <pt x="88" y="326" on="1"/>
        <pt x="107" y="326" on="0"/>
        <pt x="132" y="301" on="0"/>
        <pt x="132" y="281" on="1"/>
        <pt x="132" y="262" on="0"/>
        <pt x="107" y="238" on="0"/>
        <pt x="88" y="238" on="1"/>
        <pt x="69" y="238" on="0"/>
        <pt x="44" y="262" on="0"/>
        <pt x="44" y="281" on="1"/>
      </contour>
      <contour>
        <pt x="518" y="245" on="0"/>
        <pt x="544" y="270" on="0"/>
        <pt x="563" y="270" on="1"/>
        <pt x="581" y="270" on="0"/>
        <pt x="606" y="244" on="0"/>
        <pt x="606" y="225" on="1"/>
        <pt x="606" y="206" on="0"/>
        <pt x="581" y="181" on="0"/>
        <pt x="563" y="181" on="1"/>
        <pt x="544" y="181" on="0"/>
        <pt x="518" y="206" on="0"/>
        <pt x="518" y="225" on="1"/>
      </contour>
      <contour>
        <pt x="96" y="184" on="0"/>
        <pt x="121" y="209" on="0"/>
        <pt x="140" y="209" on="1"/>
        <pt x="159" y="209" on="0"/>
        <pt x="184" y="184" on="0"/>
        <pt x="184" y="165" on="1"/>
        <pt x="184" y="146" on="0"/>
        <pt x="159" y="121" on="0"/>
        <pt x="140" y="121" on="1"/>
        <pt x="121" y="121" on="0"/>
        <pt x="96" y="146" on="0"/>
        <pt x="96" y="165" on="1"/>
      </contour>
      <contour>
        <pt x="445" y="146" on="0"/>
        <pt x="470" y="171" on="0"/>
        <pt x="489" y="171" on="1"/>
        <pt x="508" y="171" on="0"/>
        <pt x="534" y="146" on="0"/>
        <pt x="534" y="127" on="1"/>
        <pt x="534" y="108" on="0"/>
        <pt x="508" y="83" on="0"/>
        <pt x="489" y="83" on="1"/>
        <pt x="470" y="83" on="0"/>
        <pt x="445" y="108" on="0"/>
        <pt x="445" y="127" on="1"/>
      </contour>
      <contour>
        <pt x="197" y="108" on="0"/>
        <pt x="223" y="134" on="0"/>
        <pt x="242" y="134" on="1"/>
        <pt x="261" y="134" on="0"/>
        <pt x="286" y="108" on="0"/>
        <pt x="286" y="90" on="1"/>
        <pt x="286" y="70" on="0"/>
        <pt x="261" y="44" on="0"/>
        <pt x="242" y="44" on="1"/>
        <pt x="223" y="44" on="0"/>
        <pt x="197" y="70" on="0"/>
        <pt x="197" y="90" on="1"/>
      </contour>
      <contour>
        <pt x="324" y="94" on="0"/>
        <pt x="349" y="118" on="0"/>
        <pt x="368" y="118" on="1"/>
        <pt x="388" y="118" on="0"/>
        <pt x="413" y="93" on="0"/>
        <pt x="413" y="74" on="1"/>
        <pt x="413" y="55" on="0"/>
        <pt x="388" y="30" on="0"/>
        <pt x="368" y="30" on="1"/>
        <pt x="349" y="30" on="0"/>
        <pt x="324" y="55" on="0"/>
        <pt x="324" y="74" on="1"/>
      </contour>
    </TTGlyph>
    <TTGlyph name="doubledanda" xMin="93" yMin="0" xMax="381" yMax="655">
      <contour>
        <pt x="178" y="655" on="1"/>
        <pt x="178" y="0" on="1"/>
        <pt x="93" y="0" on="1"/>
        <pt x="93" y="655" on="1"/>
      </contour>
      <contour>
        <pt x="381" y="655" on="1"/>
        <pt x="381" y="0" on="1"/>
        <pt x="296" y="0" on="1"/>
        <pt x="296" y="655" on="1"/>
      </contour>
    </TTGlyph>
    <TTGlyph name="dvA" xMin="38" yMin="0" xMax="603" yMax="660">
      <contour>
        <pt x="603" y="655" on="1"/>
        <pt x="603" y="583" on="1"/>
        <pt x="510" y="583" on="1"/>
        <pt x="510" y="0" on="1"/>
        <pt x="425" y="0" on="1"/>
        <pt x="425" y="213" on="1"/>
        <pt x="321" y="213" on="1"/>
        <pt x="321" y="180" on="1"/>
        <pt x="320" y="110" on="0"/>
        <pt x="235" y="35" on="0"/>
        <pt x="148" y="35" on="1"/>
        <pt x="85" y="35" on="0"/>
        <pt x="38" y="49" on="1"/>
        <pt x="38" y="128" on="1"/>
        <pt x="91" y="113" on="0"/>
        <pt x="147" y="113" on="1"/>
        <pt x="237" y="113" on="0"/>
        <pt x="237" y="182" on="1"/>
        <pt x="237" y="246" on="1"/>
        <pt x="237" y="280" on="0"/>
        <pt x="206" y="315" on="0"/>
        <pt x="162" y="316" on="1"/>
        <pt x="102" y="316" on="1"/>
        <pt x="102" y="394" on="1"/>
        <pt x="162" y="394" on="1"/>
        <pt x="206" y="395" on="0"/>
        <pt x="237" y="429" on="0"/>
        <pt x="237" y="463" on="1"/>
        <pt x="237" y="513" on="1"/>
        <pt x="237" y="583" on="0"/>
        <pt x="148" y="583" on="1"/>
        <pt x="103" y="583" on="0"/>
        <pt x="50" y="567" on="1"/>
        <pt x="50" y="647" on="1"/>
        <pt x="89" y="660" on="0"/>
        <pt x="148" y="660" on="1"/>
        <pt x="236" y="660" on="0"/>
        <pt x="321" y="585" on="0"/>
        <pt x="321" y="515" on="1"/>
        <pt x="321" y="463" on="1"/>
        <pt x="321" y="378" on="0"/>
        <pt x="271" y="355" on="1"/>
        <pt x="309" y="337" on="0"/>
        <pt x="317" y="287" on="1"/>
        <pt x="425" y="287" on="1"/>
        <pt x="425" y="655" on="1"/>
      </contour>
    </TTGlyph>
    <TTGlyph name="dvAA" xMin="55" yMin="0" xMax="833" yMax="660">
      <component glyphName="dvA" x="17" y="0" flags="0x0"/>
      <component glyphName="dvmAA" x="592" y="0" flags="0x0"/>
    </TTGlyph>
    <TTGlyph name="dvAI" xMin="-28" yMin="-5" xMax="459" yMax="885">
      <contour>
        <pt x="459" y="655" on="1"/>
        <pt x="459" y="583" on="1"/>
        <pt x="377" y="583" on="1"/>
        <pt x="377" y="399" on="1"/>
        <pt x="377" y="335" on="0"/>
        <pt x="314" y="265" on="0"/>
        <pt x="243" y="265" on="1"/>
        <pt x="228" y="265" on="0"/>
        <pt x="220" y="266" on="1"/>
        <pt x="220" y="345" on="1"/>
        <pt x="225" y="344" on="0"/>
        <pt x="236" y="344" on="1"/>
        <pt x="269" y="344" on="0"/>
        <pt x="292" y="373" on="0"/>
        <pt x="292" y="403" on="1"/>
        <pt x="292" y="583" on="1"/>
        <pt x="146" y="583" on="1"/>
        <pt x="146" y="144" on="1"/>
        <pt x="146" y="109" on="0"/>
        <pt x="187" y="74" on="0"/>
        <pt x="235" y="74" on="1"/>
        <pt x="302" y="74" on="0"/>
        <pt x="357" y="93" on="1"/>
        <pt x="357" y="15" on="1"/>
        <pt x="336" y="7" on="0"/>
        <pt x="271" y="-5" on="0"/>
        <pt x="233" y="-5" on="1"/>
        <pt x="145" y="-5" on="0"/>
        <pt x="61" y="69" on="0"/>
        <pt x="61" y="142" on="1"/>
        <pt x="61" y="583" on="1"/>
        <pt x="-28" y="583" on="1"/>
        <pt x="-28" y="655" on="1"/>
        <pt x="287" y="655" on="1"/>
        <pt x="123" y="885" on="1"/>
        <pt x="218" y="885" on="1"/>
        <pt x="374" y="655" on="1"/>
      </contour>
    </TTGlyph>
    <TTGlyph name="dvAU" xMin="55" yMin="0" xMax="833" yMax="885">
      <component glyphName="dvA" x="17" y="0" flags="0x0"/>
      <component glyphName="dvmAU" x="592" y="0" flags="0x0"/>
    </TTGlyph>
    <TTGlyph name="dvAbbreviationsign" xMin="50" yMin="178" xMax="343" yMax="483">
      <contour>
        <pt x="50" y="401" on="0"/>
        <pt x="119" y="483" on="0"/>
        <pt x="196" y="483" on="1"/>
        <pt x="272" y="483" on="0"/>
        <pt x="343" y="401" on="0"/>
        <pt x="343" y="330" on="1"/>
        <pt x="343" y="260" on="0"/>
        <pt x="272" y="178" on="0"/>
        <pt x="196" y="178" on="1"/>
        <pt x="119" y="178" on="0"/>
        <pt x="50" y="259" on="0"/>
        <pt x="50" y="330" on="1"/>
      </contour>
      <contour>
        <pt x="125" y="289" on="0"/>
        <pt x="155" y="248" on="0"/>
        <pt x="196" y="248" on="1"/>
        <pt x="237" y="248" on="0"/>
        <pt x="268" y="289" on="0"/>
        <pt x="268" y="330" on="1"/>
        <pt x="268" y="371" on="0"/>
        <pt x="237" y="412" on="0"/>
        <pt x="196" y="412" on="1"/>
        <pt x="155" y="412" on="0"/>
        <pt x="125" y="371" on="0"/>
        <pt x="125" y="330" on="1"/>
      </contour>
    </TTGlyph>
    <TTGlyph name="dvAcandra" xMin="38" yMin="0" xMax="642" yMax="856">
      <component glyphName="dvA" x="0" y="0" flags="0x0"/>
      <component glyphName="dvmEcandra" x="575" y="0" flags="0x0"/>
    </TTGlyph>
    <TTGlyph name="dvAnusvara" xMin="-157" yMin="727" xMax="-57" yMax="828">
      <contour>
        <pt x="-157" y="828" on="0"/>
        <pt x="-107" y="828" on="1"/>
        <pt x="-57" y="828" on="0"/>
        <pt x="-57" y="778" on="1"/>
        <pt x="-57" y="727" on="0"/>
        <pt x="-107" y="727" on="1"/>
        <pt x="-157" y="727" on="0"/>
        <pt x="-157" y="778" on="1"/>
      </contour>
    </TTGlyph>
    <TTGlyph name="dvAnusvara.amI" xMin="28" yMin="720" xMax="128" yMax="821">
      <component glyphName="dvAnusvara" x="185" y="-7" flags="0x4"/>
    </TTGlyph>
    <TTGlyph name="dvAvagraha" xMin="45" yMin="-5" xMax="387" yMax="655">
      <contour>
        <pt x="387" y="71" on="0"/>
        <pt x="308" y="-5" on="0"/>
        <pt x="221" y="-5" on="1"/>
        <pt x="213" y="-5" on="1"/>
        <pt x="126" y="-5" on="0"/>
        <pt x="46" y="71" on="0"/>
        <pt x="46" y="144" on="1"/>
        <pt x="46" y="208" on="1"/>
        <pt x="131" y="208" on="1"/>
        <pt x="131" y="142" on="1"/>
        <pt x="131" y="110" on="0"/>
        <pt x="166" y="74" on="0"/>
        <pt x="215" y="74" on="1"/>
        <pt x="218" y="74" on="1"/>
        <pt x="267" y="74" on="0"/>
        <pt x="302" y="110" on="0"/>
        <pt x="302" y="142" on="1"/>
        <pt x="302" y="198" on="1"/>
        <pt x="302" y="227" on="0"/>
        <pt x="282" y="265" on="0"/>
        <pt x="255" y="281" on="1"/>
        <pt x="123" y="360" on="1"/>
        <pt x="82" y="384" on="0"/>
        <pt x="45" y="451" on="0"/>
        <pt x="45" y="497" on="1"/>
        <pt x="45" y="523" on="1"/>
        <pt x="45" y="589" on="0"/>
        <pt x="114" y="655" on="0"/>
        <pt x="196" y="655" on="1"/>
        <pt x="363" y="655" on="1"/>
        <pt x="363" y="576" on="1"/>
        <pt x="200" y="576" on="1"/>
        <pt x="157" y="576" on="0"/>
        <pt x="130" y="548" on="0"/>
        <pt x="130" y="520" on="1"/>
        <pt x="130" y="500" on="1"/>
        <pt x="130" y="472" on="0"/>
        <pt x="150" y="435" on="0"/>
        <pt x="177" y="419" on="1"/>
        <pt x="307" y="342" on="1"/>
        <pt x="353" y="314" on="0"/>
        <pt x="387" y="248" on="0"/>
        <pt x="387" y="197" on="1"/>
        <pt x="387" y="144" on="1"/>
      </contour>
    </TTGlyph>
    <TTGlyph name="dvB" xMin="-28" yMin="65" xMax="380" yMax="655">
      <contour>
        <pt x="380" y="583" on="1"/>
        <pt x="-28" y="583" on="1"/>
        <pt x="-28" y="655" on="1"/>
        <pt x="380" y="655" on="1"/>
      </contour>
      <contour>
        <pt x="42" y="434" on="0"/>
        <pt x="121" y="505" on="0"/>
        <pt x="208" y="505" on="1"/>
        <pt x="292" y="505" on="0"/>
        <pt x="371" y="434" on="0"/>
        <pt x="371" y="363" on="1"/>
        <pt x="371" y="208" on="1"/>
        <pt x="371" y="137" on="0"/>
        <pt x="292" y="65" on="0"/>
        <pt x="208" y="65" on="1"/>
        <pt x="123" y="65" on="0"/>
        <pt x="42" y="137" on="0"/>
        <pt x="42" y="208" on="1"/>
        <pt x="42" y="363" on="1"/>
      </contour>
      <contour>
        <pt x="293" y="395" on="0"/>
        <pt x="254" y="433" on="0"/>
        <pt x="208" y="433" on="1"/>
        <pt x="156" y="433" on="0"/>
        <pt x="136" y="405" on="1"/>
        <pt x="293" y="229" on="1"/>
        <pt x="293" y="360" on="1"/>
      </contour>
      <contour>
        <pt x="124" y="174" on="0"/>
        <pt x="162" y="138" on="0"/>
        <pt x="208" y="138" on="1"/>
        <pt x="265" y="138" on="0"/>
        <pt x="282" y="166" on="1"/>
        <pt x="124" y="345" on="1"/>
        <pt x="124" y="210" on="1"/>
      </contour>
    </TTGlyph>
    <TTGlyph name="dvBA" xMin="-28" yMin="0" xMax="462" yMax="655">
      <contour>
        <pt x="462" y="655" on="1"/>
        <pt x="462" y="583" on="1"/>
        <pt x="369" y="583" on="1"/>
        <pt x="369" y="0" on="1"/>
        <pt x="289" y="0" on="1"/>
        <pt x="289" y="77" on="1"/>
        <pt x="278" y="72" on="0"/>
        <pt x="235" y="65" on="0"/>
        <pt x="207" y="65" on="1"/>
        <pt x="42" y="65" on="0"/>
        <pt x="42" y="206" on="1"/>
        <pt x="42" y="365" on="1"/>
        <pt x="42" y="437" on="0"/>
        <pt x="124" y="505" on="0"/>
        <pt x="205" y="505" on="1"/>
        <pt x="258" y="505" on="0"/>
        <pt x="289" y="493" on="1"/>
        <pt x="289" y="583" on="1"/>
        <pt x="-28" y="583" on="1"/>
        <pt x="-28" y="655" on="1"/>
      </contour>
      <contour>
        <pt x="143" y="433" on="0"/>
        <pt x="128" y="389" on="1"/>
        <pt x="289" y="254" on="1"/>
        <pt x="289" y="420" on="1"/>
        <pt x="255" y="433" on="0"/>
        <pt x="212" y="433" on="1"/>
      </contour>
      <contour>
        <pt x="257" y="138" on="0"/>
        <pt x="289" y="148" on="1"/>
        <pt x="289" y="187" on="1"/>
        <pt x="124" y="326" on="1"/>
        <pt x="124" y="208" on="1"/>
        <pt x="124" y="138" on="0"/>
        <pt x="212" y="138" on="1"/>
      </contour>
    </TTGlyph>
    <TTGlyph name="dvBH" xMin="44" yMin="59" xMax="497" yMax="660">
      <contour>
        <pt x="336" y="333" on="1"/>
        <pt x="336" y="188" on="1"/>
        <pt x="336" y="125" on="0"/>
        <pt x="266" y="59" on="0"/>
        <pt x="190" y="59" on="1"/>
        <pt x="114" y="59" on="0"/>
        <pt x="44" y="125" on="0"/>
        <pt x="44" y="188" on="1"/>
        <pt x="44" y="279" on="1"/>
        <pt x="44" y="342" on="0"/>
        <pt x="114" y="406" on="0"/>
        <pt x="190" y="406" on="1"/>
        <pt x="254" y="406" on="1"/>
        <pt x="254" y="522" on="1"/>
        <pt x="254" y="552" on="0"/>
        <pt x="229" y="582" on="0"/>
        <pt x="193" y="582" on="1"/>
        <pt x="157" y="582" on="0"/>
        <pt x="132" y="552" on="0"/>
        <pt x="132" y="522" on="1"/>
        <pt x="132" y="508" on="0"/>
        <pt x="136" y="480" on="0"/>
        <pt x="137" y="476" on="1"/>
        <pt x="52" y="476" on="1"/>
        <pt x="51" y="480" on="0"/>
        <pt x="47" y="510" on="0"/>
        <pt x="47" y="524" on="1"/>
        <pt x="47" y="660" on="0"/>
        <pt x="193" y="660" on="1"/>
        <pt x="339" y="660" on="0"/>
        <pt x="339" y="524" on="1"/>
        <pt x="339" y="406" on="1"/>
        <pt x="497" y="406" on="1"/>
        <pt x="497" y="333" on="1"/>
      </contour>
      <contour>
        <pt x="190" y="333" on="1"/>
        <pt x="152" y="333" on="0"/>
        <pt x="126" y="306" on="0"/>
        <pt x="126" y="276" on="1"/>
        <pt x="126" y="191" on="1"/>
        <pt x="126" y="161" on="0"/>
        <pt x="152" y="134" on="0"/>
        <pt x="190" y="134" on="1"/>
        <pt x="228" y="134" on="0"/>
        <pt x="254" y="161" on="0"/>
        <pt x="254" y="191" on="1"/>
        <pt x="254" y="333" on="1"/>
      </contour>
    </TTGlyph>
    <TTGlyph name="dvBHA" xMin="44" yMin="0" xMax="632" yMax="660">
      <contour>
        <pt x="254" y="553" on="0"/>
        <pt x="230" y="582" on="0"/>
        <pt x="193" y="582" on="1"/>
        <pt x="157" y="582" on="0"/>
        <pt x="133" y="552" on="0"/>
        <pt x="133" y="522" on="1"/>
        <pt x="133" y="510" on="0"/>
        <pt x="136" y="480" on="0"/>
        <pt x="137" y="476" on="1"/>
        <pt x="52" y="476" on="1"/>
        <pt x="51" y="481" on="0"/>
        <pt x="48" y="511" on="0"/>
        <pt x="48" y="524" on="1"/>
        <pt x="48" y="660" on="0"/>
        <pt x="193" y="660" on="1"/>
        <pt x="339" y="660" on="0"/>
        <pt x="339" y="524" on="1"/>
        <pt x="339" y="406" on="1"/>
        <pt x="454" y="406" on="1"/>
        <pt x="454" y="655" on="1"/>
        <pt x="632" y="655" on="1"/>
        <pt x="632" y="583" on="1"/>
        <pt x="539" y="583" on="1"/>
        <pt x="539" y="0" on="1"/>
        <pt x="454" y="0" on="1"/>
        <pt x="454" y="333" on="1"/>
        <pt x="337" y="333" on="1"/>
        <pt x="337" y="188" on="1"/>
        <pt x="337" y="125" on="0"/>
        <pt x="266" y="59" on="0"/>
        <pt x="190" y="59" on="1"/>
        <pt x="44" y="59" on="0"/>
        <pt x="44" y="188" on="1"/>
        <pt x="44" y="279" on="1"/>
        <pt x="44" y="342" on="0"/>
        <pt x="114" y="406" on="0"/>
        <pt x="190" y="406" on="1"/>
        <pt x="254" y="406" on="1"/>
        <pt x="254" y="522" on="1"/>
      </contour>
      <contour>
        <pt x="190" y="333" on="1"/>
        <pt x="152" y="333" on="0"/>
        <pt x="127" y="306" on="0"/>
        <pt x="127" y="276" on="1"/>
        <pt x="127" y="191" on="1"/>
        <pt x="127" y="161" on="0"/>
        <pt x="152" y="134" on="0"/>
        <pt x="190" y="134" on="1"/>
        <pt x="229" y="134" on="0"/>
        <pt x="254" y="161" on="0"/>
        <pt x="254" y="191" on="1"/>
        <pt x="254" y="333" on="1"/>
      </contour>
    </TTGlyph>
    <TTGlyph name="dvBH_LA" xMin="44" yMin="0" xMax="1059" yMax="660">
      <contour>
        <pt x="1059" y="655" on="1"/>
        <pt x="1059" y="583" on="1"/>
        <pt x="966" y="583" on="1"/>
        <pt x="966" y="0" on="1"/>
        <pt x="881" y="0" on="1"/>
        <pt x="881" y="394" on="1"/>
        <pt x="855" y="405" on="0"/>
        <pt x="820" y="405" on="1"/>
        <pt x="750" y="405" on="0"/>
        <pt x="750" y="344" on="1"/>
        <pt x="750" y="209" on="1"/>
        <pt x="665" y="209" on="1"/>
        <pt x="665" y="344" on="1"/>
        <pt x="665" y="373" on="0"/>
        <pt x="636" y="405" on="0"/>
        <pt x="599" y="405" on="1"/>
        <pt x="561" y="405" on="0"/>
        <pt x="534" y="372" on="0"/>
        <pt x="534" y="342" on="1"/>
        <pt x="534" y="164" on="1"/>
        <pt x="534" y="122" on="0"/>
        <pt x="573" y="77" on="0"/>
        <pt x="627" y="77" on="1"/>
        <pt x="648" y="77" on="0"/>
        <pt x="685" y="82" on="1"/>
        <pt x="685" y="5" on="1"/>
        <pt x="658" y="0" on="0"/>
        <pt x="624" y="0" on="1"/>
        <pt x="533" y="0" on="0"/>
        <pt x="449" y="81" on="0"/>
        <pt x="449" y="161" on="1"/>
        <pt x="449" y="333" on="1"/>
        <pt x="336" y="333" on="1"/>
        <pt x="336" y="188" on="1"/>
        <pt x="336" y="125" on="0"/>
        <pt x="266" y="59" on="0"/>
        <pt x="190" y="59" on="1"/>
        <pt x="114" y="59" on="0"/>
        <pt x="44" y="125" on="0"/>
        <pt x="44" y="188" on="1"/>
        <pt x="44" y="279" on="1"/>
        <pt x="44" y="342" on="0"/>
        <pt x="114" y="406" on="0"/>
        <pt x="190" y="406" on="1"/>
        <pt x="254" y="406" on="1"/>
        <pt x="254" y="522" on="1"/>
        <pt x="254" y="552" on="0"/>
        <pt x="229" y="582" on="0"/>
        <pt x="193" y="582" on="1"/>
        <pt x="157" y="582" on="0"/>
        <pt x="132" y="552" on="0"/>
        <pt x="132" y="522" on="1"/>
        <pt x="132" y="508" on="0"/>
        <pt x="136" y="480" on="0"/>
        <pt x="137" y="476" on="1"/>
        <pt x="52" y="476" on="1"/>
        <pt x="51" y="480" on="0"/>
        <pt x="47" y="510" on="0"/>
        <pt x="47" y="524" on="1"/>
        <pt x="47" y="660" on="0"/>
        <pt x="193" y="660" on="1"/>
        <pt x="339" y="660" on="0"/>
        <pt x="339" y="524" on="1"/>
        <pt x="339" y="406" on="1"/>
        <pt x="459" y="406" on="1"/>
        <pt x="473" y="444" on="0"/>
        <pt x="543" y="484" on="0"/>
        <pt x="597" y="484" on="1"/>
        <pt x="637" y="484" on="0"/>
        <pt x="692" y="457" on="0"/>
        <pt x="706" y="436" on="1"/>
        <pt x="740" y="483" on="0"/>
        <pt x="815" y="483" on="1"/>
        <pt x="854" y="483" on="0"/>
        <pt x="881" y="472" on="1"/>
        <pt x="881" y="583" on="1"/>
        <pt x="396" y="583" on="1"/>
        <pt x="396" y="655" on="1"/>
      </contour>
      <contour>
        <pt x="254" y="333" on="1"/>
        <pt x="190" y="333" on="1"/>
        <pt x="152" y="333" on="0"/>
        <pt x="126" y="306" on="0"/>
        <pt x="126" y="276" on="1"/>
        <pt x="126" y="191" on="1"/>
        <pt x="126" y="161" on="0"/>
        <pt x="152" y="134" on="0"/>
        <pt x="190" y="134" on="1"/>
        <pt x="228" y="134" on="0"/>
        <pt x="254" y="161" on="0"/>
        <pt x="254" y="191" on="1"/>
      </contour>
    </TTGlyph>
    <TTGlyph name="dvBH_NA" xMin="44" yMin="0" xMax="1012" yMax="660">
      <contour>
        <pt x="1012" y="655" on="1"/>
        <pt x="1012" y="583" on="1"/>
        <pt x="920" y="583" on="1"/>
        <pt x="920" y="0" on="1"/>
        <pt x="835" y="0" on="1"/>
        <pt x="835" y="405" on="1"/>
        <pt x="717" y="405" on="1"/>
        <pt x="727" y="375" on="0"/>
        <pt x="727" y="338" on="1"/>
        <pt x="727" y="192" on="1"/>
        <pt x="727" y="126" on="0"/>
        <pt x="658" y="58" on="0"/>
        <pt x="586" y="58" on="1"/>
        <pt x="444" y="58" on="0"/>
        <pt x="444" y="192" on="1"/>
        <pt x="444" y="333" on="1"/>
        <pt x="336" y="333" on="1"/>
        <pt x="336" y="188" on="1"/>
        <pt x="336" y="125" on="0"/>
        <pt x="266" y="59" on="0"/>
        <pt x="190" y="59" on="1"/>
        <pt x="114" y="59" on="0"/>
        <pt x="44" y="125" on="0"/>
        <pt x="44" y="188" on="1"/>
        <pt x="44" y="279" on="1"/>
        <pt x="44" y="342" on="0"/>
        <pt x="114" y="406" on="0"/>
        <pt x="190" y="406" on="1"/>
        <pt x="254" y="406" on="1"/>
        <pt x="254" y="522" on="1"/>
        <pt x="254" y="552" on="0"/>
        <pt x="229" y="582" on="0"/>
        <pt x="193" y="582" on="1"/>
        <pt x="157" y="582" on="0"/>
        <pt x="132" y="552" on="0"/>
        <pt x="132" y="522" on="1"/>
        <pt x="132" y="508" on="0"/>
        <pt x="135" y="480" on="0"/>
        <pt x="136" y="476" on="1"/>
        <pt x="51" y="476" on="1"/>
        <pt x="50" y="480" on="0"/>
        <pt x="47" y="509" on="0"/>
        <pt x="47" y="524" on="1"/>
        <pt x="47" y="660" on="0"/>
        <pt x="193" y="660" on="1"/>
        <pt x="339" y="660" on="0"/>
        <pt x="339" y="524" on="1"/>
        <pt x="339" y="406" on="1"/>
        <pt x="452" y="406" on="1"/>
        <pt x="478" y="482" on="0"/>
        <pt x="586" y="482" on="1"/>
        <pt x="835" y="482" on="1"/>
        <pt x="835" y="583" on="1"/>
        <pt x="400" y="583" on="1"/>
        <pt x="400" y="655" on="1"/>
      </contour>
      <contour>
        <pt x="646" y="336" on="1"/>
        <pt x="646" y="361" on="0"/>
        <pt x="639" y="400" on="0"/>
        <pt x="636" y="405" on="1"/>
        <pt x="586" y="405" on="1"/>
        <pt x="552" y="405" on="0"/>
        <pt x="526" y="377" on="0"/>
        <pt x="526" y="348" on="1"/>
        <pt x="526" y="192" on="1"/>
        <pt x="526" y="164" on="0"/>
        <pt x="552" y="135" on="0"/>
        <pt x="586" y="135" on="1"/>
        <pt x="620" y="135" on="0"/>
        <pt x="646" y="163" on="0"/>
        <pt x="646" y="192" on="1"/>
      </contour>
      <contour>
        <pt x="254" y="333" on="1"/>
        <pt x="190" y="333" on="1"/>
        <pt x="152" y="333" on="0"/>
        <pt x="126" y="306" on="0"/>
        <pt x="126" y="276" on="1"/>
        <pt x="126" y="191" on="1"/>
        <pt x="126" y="161" on="0"/>
        <pt x="152" y="134" on="0"/>
        <pt x="190" y="134" on="1"/>
        <pt x="228" y="134" on="0"/>
        <pt x="254" y="161" on="0"/>
        <pt x="254" y="191" on="1"/>
      </contour>
    </TTGlyph>
    <TTGlyph name="dvBH_R" xMin="48" yMin="-50" xMax="501" yMax="660">
      <contour>
        <pt x="341" y="359" on="1"/>
        <pt x="341" y="257" on="1"/>
        <pt x="341" y="193" on="0"/>
        <pt x="271" y="128" on="0"/>
        <pt x="195" y="128" on="1"/>
        <pt x="119" y="128" on="0"/>
        <pt x="48" y="193" on="0"/>
        <pt x="48" y="257" on="1"/>
        <pt x="48" y="303" on="1"/>
        <pt x="48" y="367" on="0"/>
        <pt x="119" y="432" on="0"/>
        <pt x="195" y="432" on="1"/>
        <pt x="258" y="432" on="1"/>
        <pt x="258" y="522" on="1"/>
        <pt x="258" y="553" on="0"/>
        <pt x="234" y="582" on="0"/>
        <pt x="198" y="582" on="1"/>
        <pt x="161" y="582" on="0"/>
        <pt x="137" y="552" on="0"/>
        <pt x="137" y="522" on="1"/>
        <pt x="137" y="507" on="0"/>
        <pt x="139" y="485" on="0"/>
        <pt x="140" y="482" on="1"/>
        <pt x="55" y="482" on="1"/>
        <pt x="54" y="486" on="0"/>
        <pt x="52" y="509" on="0"/>
        <pt x="52" y="524" on="1"/>
        <pt x="52" y="660" on="0"/>
        <pt x="198" y="660" on="1"/>
        <pt x="343" y="660" on="0"/>
        <pt x="343" y="524" on="1"/>
        <pt x="343" y="432" on="1"/>
        <pt x="501" y="432" on="1"/>
        <pt x="501" y="359" on="1"/>
      </contour>
      <contour>
        <pt x="195" y="359" on="1"/>
        <pt x="156" y="359" on="0"/>
        <pt x="131" y="332" on="0"/>
        <pt x="131" y="302" on="1"/>
        <pt x="131" y="259" on="1"/>
        <pt x="131" y="230" on="0"/>
        <pt x="157" y="202" on="0"/>
        <pt x="195" y="202" on="1"/>
        <pt x="233" y="202" on="0"/>
        <pt x="258" y="229" on="0"/>
        <pt x="258" y="259" on="1"/>
        <pt x="258" y="359" on="1"/>
      </contour>
      <contour>
        <pt x="485" y="171" on="0"/>
        <pt x="420" y="81" on="0"/>
        <pt x="390" y="48" on="1"/>
        <pt x="300" y="-50" on="1"/>
        <pt x="196" y="-50" on="1"/>
        <pt x="501" y="290" on="1"/>
        <pt x="501" y="198" on="1"/>
      </contour>
    </TTGlyph>
    <TTGlyph name="dvBH_RA" xMin="48" yMin="-50" xMax="638" yMax="660">
      <contour>
        <pt x="341" y="359" on="1"/>
        <pt x="341" y="257" on="1"/>
        <pt x="341" y="193" on="0"/>
        <pt x="271" y="128" on="0"/>
        <pt x="195" y="128" on="1"/>
        <pt x="119" y="128" on="0"/>
        <pt x="48" y="193" on="0"/>
        <pt x="48" y="257" on="1"/>
        <pt x="48" y="303" on="1"/>
        <pt x="48" y="367" on="0"/>
        <pt x="119" y="432" on="0"/>
        <pt x="195" y="432" on="1"/>
        <pt x="258" y="432" on="1"/>
        <pt x="258" y="522" on="1"/>
        <pt x="258" y="553" on="0"/>
        <pt x="234" y="582" on="0"/>
        <pt x="198" y="582" on="1"/>
        <pt x="161" y="582" on="0"/>
        <pt x="137" y="552" on="0"/>
        <pt x="137" y="522" on="1"/>
        <pt x="137" y="507" on="0"/>
        <pt x="139" y="485" on="0"/>
        <pt x="140" y="482" on="1"/>
        <pt x="55" y="482" on="1"/>
        <pt x="54" y="485" on="0"/>
        <pt x="52" y="508" on="0"/>
        <pt x="52" y="524" on="1"/>
        <pt x="52" y="660" on="0"/>
        <pt x="198" y="660" on="1"/>
        <pt x="343" y="660" on="0"/>
        <pt x="343" y="524" on="1"/>
        <pt x="343" y="432" on="1"/>
        <pt x="460" y="432" on="1"/>
        <pt x="460" y="655" on="1"/>
        <pt x="638" y="655" on="1"/>
        <pt x="638" y="583" on="1"/>
        <pt x="545" y="583" on="1"/>
        <pt x="545" y="-3" on="1"/>
        <pt x="464" y="-3" on="1"/>
        <pt x="464" y="20" on="1"/>
        <pt x="464" y="114" on="0"/>
        <pt x="471" y="154" on="1"/>
        <pt x="470" y="154" on="1"/>
        <pt x="458" y="122" on="0"/>
        <pt x="387" y="44" on="1"/>
        <pt x="300" y="-50" on="1"/>
        <pt x="196" y="-50" on="1"/>
        <pt x="460" y="244" on="1"/>
        <pt x="460" y="359" on="1"/>
      </contour>
      <contour>
        <pt x="195" y="359" on="1"/>
        <pt x="156" y="359" on="0"/>
        <pt x="131" y="332" on="0"/>
        <pt x="131" y="302" on="1"/>
        <pt x="131" y="259" on="1"/>
        <pt x="131" y="230" on="0"/>
        <pt x="157" y="202" on="0"/>
        <pt x="195" y="202" on="1"/>
        <pt x="233" y="202" on="0"/>
        <pt x="258" y="229" on="0"/>
        <pt x="258" y="259" on="1"/>
        <pt x="258" y="359" on="1"/>
      </contour>
    </TTGlyph>
    <TTGlyph name="dvBH_R_YA" xMin="44" yMin="-50" xMax="938" yMax="660">
      <contour>
        <pt x="938" y="655" on="1"/>
        <pt x="938" y="583" on="1"/>
        <pt x="845" y="583" on="1"/>
        <pt x="845" y="0" on="1"/>
        <pt x="761" y="0" on="1"/>
        <pt x="761" y="116" on="1"/>
        <pt x="727" y="85" on="0"/>
        <pt x="649" y="85" on="1"/>
        <pt x="530" y="85" on="0"/>
        <pt x="482" y="150" on="1"/>
        <pt x="445" y="95" on="0"/>
        <pt x="403" y="48" on="1"/>
        <pt x="313" y="-50" on="1"/>
        <pt x="209" y="-50" on="1"/>
        <pt x="454" y="223" on="1"/>
        <pt x="451" y="240" on="0"/>
        <pt x="451" y="260" on="1"/>
        <pt x="451" y="342" on="1"/>
        <pt x="439" y="350" on="0"/>
        <pt x="412" y="350" on="1"/>
        <pt x="337" y="350" on="1"/>
        <pt x="337" y="256" on="1"/>
        <pt x="337" y="192" on="0"/>
        <pt x="266" y="127" on="0"/>
        <pt x="190" y="127" on="1"/>
        <pt x="114" y="127" on="0"/>
        <pt x="44" y="192" on="0"/>
        <pt x="44" y="256" on="1"/>
        <pt x="44" y="295" on="1"/>
        <pt x="44" y="358" on="0"/>
        <pt x="114" y="422" on="0"/>
        <pt x="190" y="422" on="1"/>
        <pt x="254" y="422" on="1"/>
        <pt x="254" y="522" on="1"/>
        <pt x="254" y="553" on="0"/>
        <pt x="230" y="582" on="0"/>
        <pt x="193" y="582" on="1"/>
        <pt x="157" y="582" on="0"/>
        <pt x="133" y="552" on="0"/>
        <pt x="133" y="522" on="1"/>
        <pt x="134" y="485" on="1"/>
        <pt x="49" y="485" on="1"/>
        <pt x="48" y="524" on="1"/>
        <pt x="48" y="660" on="0"/>
        <pt x="193" y="660" on="1"/>
        <pt x="339" y="660" on="0"/>
        <pt x="339" y="524" on="1"/>
        <pt x="339" y="422" on="1"/>
        <pt x="418" y="422" on="1"/>
        <pt x="488" y="422" on="0"/>
        <pt x="510" y="392" on="1"/>
        <pt x="547" y="395" on="0"/>
        <pt x="576" y="425" on="0"/>
        <pt x="576" y="460" on="1"/>
        <pt x="576" y="520" on="1"/>
        <pt x="576" y="552" on="0"/>
        <pt x="552" y="583" on="0"/>
        <pt x="523" y="583" on="1"/>
        <pt x="396" y="583" on="1"/>
        <pt x="396" y="655" on="1"/>
      </contour>
      <contour>
        <pt x="761" y="583" on="1"/>
        <pt x="638" y="583" on="1"/>
        <pt x="646" y="578" on="0"/>
        <pt x="659" y="545" on="0"/>
        <pt x="659" y="520" on="1"/>
        <pt x="659" y="448" on="1"/>
        <pt x="659" y="332" on="0"/>
        <pt x="534" y="329" on="1"/>
        <pt x="534" y="269" on="1"/>
        <pt x="534" y="215" on="0"/>
        <pt x="588" y="164" on="0"/>
        <pt x="652" y="164" on="1"/>
        <pt x="704" y="164" on="0"/>
        <pt x="753" y="200" on="0"/>
        <pt x="761" y="241" on="1"/>
      </contour>
      <contour>
        <pt x="254" y="351" on="1"/>
        <pt x="190" y="351" on="1"/>
        <pt x="152" y="351" on="0"/>
        <pt x="127" y="323" on="0"/>
        <pt x="127" y="294" on="1"/>
        <pt x="127" y="259" on="1"/>
        <pt x="127" y="230" on="0"/>
        <pt x="152" y="202" on="0"/>
        <pt x="190" y="202" on="1"/>
        <pt x="229" y="202" on="0"/>
        <pt x="254" y="229" on="0"/>
        <pt x="254" y="259" on="1"/>
      </contour>
    </TTGlyph>
    <TTGlyph name="dvBH_VA" xMin="44" yMin="0" xMax="864" yMax="660">
      <contour>
        <pt x="864" y="655" on="1"/>
        <pt x="864" y="583" on="1"/>
        <pt x="772" y="583" on="1"/>
        <pt x="772" y="0" on="1"/>
        <pt x="687" y="0" on="1"/>
        <pt x="687" y="76" on="1"/>
        <pt x="676" y="72" on="0"/>
        <pt x="630" y="65" on="0"/>
        <pt x="602" y="65" on="1"/>
        <pt x="448" y="65" on="0"/>
        <pt x="448" y="204" on="1"/>
        <pt x="448" y="333" on="1"/>
        <pt x="336" y="333" on="1"/>
        <pt x="336" y="188" on="1"/>
        <pt x="336" y="125" on="0"/>
        <pt x="266" y="59" on="0"/>
        <pt x="190" y="59" on="1"/>
        <pt x="114" y="59" on="0"/>
        <pt x="44" y="125" on="0"/>
        <pt x="44" y="188" on="1"/>
        <pt x="44" y="279" on="1"/>
        <pt x="44" y="342" on="0"/>
        <pt x="114" y="406" on="0"/>
        <pt x="190" y="406" on="1"/>
        <pt x="254" y="406" on="1"/>
        <pt x="254" y="522" on="1"/>
        <pt x="254" y="552" on="0"/>
        <pt x="229" y="582" on="0"/>
        <pt x="193" y="582" on="1"/>
        <pt x="157" y="582" on="0"/>
        <pt x="132" y="552" on="0"/>
        <pt x="132" y="522" on="1"/>
        <pt x="132" y="508" on="0"/>
        <pt x="136" y="480" on="0"/>
        <pt x="137" y="476" on="1"/>
        <pt x="52" y="476" on="1"/>
        <pt x="51" y="480" on="0"/>
        <pt x="47" y="510" on="0"/>
        <pt x="47" y="524" on="1"/>
        <pt x="47" y="660" on="0"/>
        <pt x="193" y="660" on="1"/>
        <pt x="339" y="660" on="0"/>
        <pt x="339" y="524" on="1"/>
        <pt x="339" y="406" on="1"/>
        <pt x="452" y="406" on="1"/>
        <pt x="463" y="454" on="0"/>
        <pt x="537" y="505" on="0"/>
        <pt x="602" y="505" on="1"/>
        <pt x="629" y="505" on="0"/>
        <pt x="677" y="498" on="0"/>
        <pt x="687" y="494" on="1"/>
        <pt x="687" y="583" on="1"/>
        <pt x="401" y="583" on="1"/>
        <pt x="401" y="655" on="1"/>
      </contour>
      <contour>
        <pt x="690" y="421" on="1"/>
        <pt x="657" y="432" on="0"/>
        <pt x="612" y="432" on="1"/>
        <pt x="571" y="432" on="0"/>
        <pt x="532" y="396" on="0"/>
        <pt x="532" y="365" on="1"/>
        <pt x="532" y="205" on="1"/>
        <pt x="532" y="139" on="0"/>
        <pt x="613" y="139" on="1"/>
        <pt x="638" y="139" on="0"/>
        <pt x="680" y="146" on="0"/>
        <pt x="690" y="150" on="1"/>
      </contour>
      <contour>
        <pt x="254" y="333" on="1"/>
        <pt x="190" y="333" on="1"/>
        <pt x="152" y="333" on="0"/>
        <pt x="126" y="306" on="0"/>
        <pt x="126" y="276" on="1"/>
        <pt x="126" y="191" on="1"/>
        <pt x="126" y="161" on="0"/>
        <pt x="152" y="134" on="0"/>
        <pt x="190" y="134" on="1"/>
        <pt x="228" y="134" on="0"/>
        <pt x="254" y="161" on="0"/>
        <pt x="254" y="191" on="1"/>
      </contour>
    </TTGlyph>
    <TTGlyph name="dvBH_YA" xMin="44" yMin="0" xMax="938" yMax="660">
      <contour>
        <pt x="938" y="655" on="1"/>
        <pt x="938" y="583" on="1"/>
        <pt x="845" y="583" on="1"/>
        <pt x="845" y="0" on="1"/>
        <pt x="761" y="0" on="1"/>
        <pt x="761" y="96" on="1"/>
        <pt x="710" y="85" on="0"/>
        <pt x="657" y="85" on="1"/>
        <pt x="564" y="85" on="0"/>
        <pt x="451" y="169" on="0"/>
        <pt x="451" y="260" on="1"/>
        <pt x="451" y="333" on="1"/>
        <pt x="439" y="342" on="0"/>
        <pt x="410" y="342" on="1"/>
        <pt x="337" y="342" on="1"/>
        <pt x="337" y="188" on="1"/>
        <pt x="337" y="125" on="0"/>
        <pt x="266" y="59" on="0"/>
        <pt x="190" y="59" on="1"/>
        <pt x="44" y="59" on="0"/>
        <pt x="44" y="188" on="1"/>
        <pt x="44" y="287" on="1"/>
        <pt x="44" y="351" on="0"/>
        <pt x="114" y="415" on="0"/>
        <pt x="190" y="415" on="1"/>
        <pt x="254" y="415" on="1"/>
        <pt x="254" y="522" on="1"/>
        <pt x="254" y="553" on="0"/>
        <pt x="230" y="582" on="0"/>
        <pt x="193" y="582" on="1"/>
        <pt x="157" y="582" on="0"/>
        <pt x="133" y="552" on="0"/>
        <pt x="133" y="522" on="1"/>
        <pt x="133" y="508" on="0"/>
        <pt x="136" y="480" on="0"/>
        <pt x="137" y="476" on="1"/>
        <pt x="52" y="476" on="1"/>
        <pt x="51" y="480" on="0"/>
        <pt x="48" y="510" on="0"/>
        <pt x="48" y="524" on="1"/>
        <pt x="48" y="660" on="0"/>
        <pt x="193" y="660" on="1"/>
        <pt x="339" y="660" on="0"/>
        <pt x="339" y="524" on="1"/>
        <pt x="339" y="415" on="1"/>
        <pt x="417" y="415" on="1"/>
        <pt x="481" y="415" on="0"/>
        <pt x="505" y="388" on="1"/>
        <pt x="545" y="391" on="0"/>
        <pt x="576" y="422" on="0"/>
        <pt x="576" y="457" on="1"/>
        <pt x="576" y="520" on="1"/>
        <pt x="576" y="538" on="0"/>
        <pt x="572" y="567" on="0"/>
        <pt x="569" y="581" on="0"/>
        <pt x="568" y="583" on="1"/>
        <pt x="396" y="583" on="1"/>
        <pt x="396" y="655" on="1"/>
      </contour>
      <contour>
        <pt x="761" y="583" on="1"/>
        <pt x="652" y="583" on="1"/>
        <pt x="653" y="579" on="0"/>
        <pt x="659" y="545" on="0"/>
        <pt x="659" y="520" on="1"/>
        <pt x="659" y="445" on="1"/>
        <pt x="659" y="329" on="0"/>
        <pt x="534" y="326" on="1"/>
        <pt x="534" y="269" on="1"/>
        <pt x="534" y="216" on="0"/>
        <pt x="596" y="164" on="0"/>
        <pt x="661" y="164" on="1"/>
        <pt x="715" y="164" on="0"/>
        <pt x="761" y="175" on="1"/>
      </contour>
      <contour>
        <pt x="254" y="342" on="1"/>
        <pt x="190" y="342" on="1"/>
        <pt x="152" y="342" on="0"/>
        <pt x="127" y="315" on="0"/>
        <pt x="127" y="285" on="1"/>
        <pt x="127" y="191" on="1"/>
        <pt x="127" y="161" on="0"/>
        <pt x="152" y="134" on="0"/>
        <pt x="190" y="134" on="1"/>
        <pt x="229" y="134" on="0"/>
        <pt x="254" y="161" on="0"/>
        <pt x="254" y="191" on="1"/>
      </contour>
    </TTGlyph>
    <TTGlyph name="dvB_BA" xMin="-28" yMin="0" xMax="718" yMax="655">
      <contour>
        <pt x="718" y="583" on="1"/>
        <pt x="625" y="583" on="1"/>
        <pt x="625" y="0" on="1"/>
        <pt x="545" y="0" on="1"/>
        <pt x="545" y="77" on="1"/>
        <pt x="534" y="72" on="0"/>
        <pt x="491" y="65" on="0"/>
        <pt x="463" y="65" on="1"/>
        <pt x="374" y="65" on="0"/>
        <pt x="333" y="106" on="1"/>
        <pt x="295" y="65" on="0"/>
        <pt x="210" y="65" on="1"/>
        <pt x="123" y="65" on="0"/>
        <pt x="42" y="137" on="0"/>
        <pt x="42" y="208" on="1"/>
        <pt x="42" y="363" on="1"/>
        <pt x="42" y="433" on="0"/>
        <pt x="119" y="505" on="0"/>
        <pt x="203" y="505" on="1"/>
        <pt x="220" y="505" on="0"/>
        <pt x="244" y="503" on="0"/>
        <pt x="247" y="502" on="1"/>
        <pt x="247" y="429" on="1"/>
        <pt x="244" y="430" on="0"/>
        <pt x="222" y="433" on="0"/>
        <pt x="208" y="433" on="1"/>
        <pt x="170" y="433" on="0"/>
        <pt x="132" y="409" on="0"/>
        <pt x="127" y="386" on="1"/>
        <pt x="298" y="250" on="1"/>
        <pt x="298" y="365" on="1"/>
        <pt x="298" y="437" on="0"/>
        <pt x="380" y="505" on="0"/>
        <pt x="461" y="505" on="1"/>
        <pt x="514" y="505" on="0"/>
        <pt x="545" y="493" on="1"/>
        <pt x="545" y="583" on="1"/>
        <pt x="-28" y="583" on="1"/>
        <pt x="-28" y="655" on="1"/>
        <pt x="718" y="655" on="1"/>
      </contour>
      <contour>
        <pt x="399" y="433" on="0"/>
        <pt x="384" y="389" on="1"/>
        <pt x="545" y="254" on="1"/>
        <pt x="545" y="420" on="1"/>
        <pt x="511" y="433" on="0"/>
        <pt x="468" y="433" on="1"/>
      </contour>
      <contour>
        <pt x="513" y="138" on="0"/>
        <pt x="545" y="148" on="1"/>
        <pt x="545" y="187" on="1"/>
        <pt x="380" y="326" on="1"/>
        <pt x="380" y="208" on="1"/>
        <pt x="380" y="138" on="0"/>
        <pt x="468" y="138" on="1"/>
      </contour>
      <contour>
        <pt x="251" y="138" on="0"/>
        <pt x="291" y="163" on="0"/>
        <pt x="296" y="188" on="1"/>
        <pt x="124" y="324" on="1"/>
        <pt x="124" y="210" on="1"/>
        <pt x="124" y="174" on="0"/>
        <pt x="162" y="138" on="0"/>
        <pt x="211" y="138" on="1"/>
      </contour>
    </TTGlyph>
    <TTGlyph name="dvB_BHA" xMin="-28" yMin="0" xMax="881" yMax="660">
      <contour>
        <pt x="881" y="655" on="1"/>
        <pt x="881" y="583" on="1"/>
        <pt x="789" y="583" on="1"/>
        <pt x="789" y="0" on="1"/>
        <pt x="704" y="0" on="1"/>
        <pt x="704" y="333" on="1"/>
        <pt x="586" y="333" on="1"/>
        <pt x="586" y="188" on="1"/>
        <pt x="586" y="125" on="0"/>
        <pt x="516" y="59" on="0"/>
        <pt x="440" y="59" on="1"/>
        <pt x="357" y="59" on="0"/>
        <pt x="322" y="99" on="1"/>
        <pt x="283" y="65" on="0"/>
        <pt x="208" y="65" on="1"/>
        <pt x="123" y="65" on="0"/>
        <pt x="42" y="137" on="0"/>
        <pt x="42" y="208" on="1"/>
        <pt x="42" y="363" on="1"/>
        <pt x="42" y="433" on="0"/>
        <pt x="119" y="505" on="0"/>
        <pt x="203" y="505" on="1"/>
        <pt x="220" y="505" on="0"/>
        <pt x="244" y="503" on="0"/>
        <pt x="247" y="502" on="1"/>
        <pt x="247" y="429" on="1"/>
        <pt x="244" y="430" on="0"/>
        <pt x="222" y="433" on="0"/>
        <pt x="208" y="433" on="1"/>
        <pt x="170" y="433" on="0"/>
        <pt x="132" y="409" on="0"/>
        <pt x="127" y="386" on="1"/>
        <pt x="294" y="254" on="1"/>
        <pt x="294" y="279" on="1"/>
        <pt x="294" y="342" on="0"/>
        <pt x="364" y="406" on="0"/>
        <pt x="440" y="406" on="1"/>
        <pt x="504" y="406" on="1"/>
        <pt x="504" y="522" on="1"/>
        <pt x="504" y="552" on="0"/>
        <pt x="479" y="582" on="0"/>
        <pt x="443" y="582" on="1"/>
        <pt x="407" y="582" on="0"/>
        <pt x="382" y="552" on="0"/>
        <pt x="382" y="522" on="1"/>
        <pt x="382" y="510" on="0"/>
        <pt x="385" y="481" on="0"/>
        <pt x="386" y="476" on="1"/>
        <pt x="301" y="476" on="1"/>
        <pt x="300" y="480" on="0"/>
        <pt x="297" y="510" on="0"/>
        <pt x="297" y="524" on="1"/>
        <pt x="297" y="660" on="0"/>
        <pt x="443" y="660" on="1"/>
        <pt x="589" y="660" on="0"/>
        <pt x="589" y="524" on="1"/>
        <pt x="589" y="406" on="1"/>
        <pt x="704" y="406" on="1"/>
        <pt x="704" y="655" on="1"/>
      </contour>
      <contour>
        <pt x="244" y="583" on="1"/>
        <pt x="-28" y="583" on="1"/>
        <pt x="-28" y="655" on="1"/>
        <pt x="244" y="655" on="1"/>
      </contour>
      <contour>
        <pt x="504" y="333" on="1"/>
        <pt x="440" y="333" on="1"/>
        <pt x="402" y="333" on="0"/>
        <pt x="376" y="306" on="0"/>
        <pt x="376" y="276" on="1"/>
        <pt x="376" y="191" on="1"/>
        <pt x="376" y="161" on="0"/>
        <pt x="402" y="134" on="0"/>
        <pt x="440" y="134" on="1"/>
        <pt x="479" y="134" on="0"/>
        <pt x="504" y="161" on="0"/>
        <pt x="504" y="191" on="1"/>
      </contour>
      <contour>
        <pt x="248" y="138" on="0"/>
        <pt x="287" y="165" on="0"/>
        <pt x="292" y="192" on="1"/>
        <pt x="124" y="324" on="1"/>
        <pt x="124" y="210" on="1"/>
        <pt x="124" y="174" on="0"/>
        <pt x="162" y="138" on="0"/>
        <pt x="208" y="138" on="1"/>
      </contour>
    </TTGlyph>
    <TTGlyph name="dvB_BH_RA" xMin="-28" yMin="-50" xMax="883" yMax="660">
      <contour>
        <pt x="883" y="655" on="1"/>
        <pt x="883" y="583" on="1"/>
        <pt x="790" y="583" on="1"/>
        <pt x="790" y="-3" on="1"/>
        <pt x="709" y="-3" on="1"/>
        <pt x="709" y="20" on="1"/>
        <pt x="709" y="114" on="0"/>
        <pt x="716" y="154" on="1"/>
        <pt x="715" y="154" on="1"/>
        <pt x="703" y="122" on="0"/>
        <pt x="632" y="44" on="1"/>
        <pt x="545" y="-50" on="1"/>
        <pt x="441" y="-50" on="1"/>
        <pt x="705" y="244" on="1"/>
        <pt x="705" y="359" on="1"/>
        <pt x="586" y="359" on="1"/>
        <pt x="586" y="257" on="1"/>
        <pt x="586" y="193" on="0"/>
        <pt x="516" y="128" on="0"/>
        <pt x="440" y="128" on="1"/>
        <pt x="388" y="128" on="0"/>
        <pt x="353" y="144" on="1"/>
        <pt x="323" y="65" on="0"/>
        <pt x="208" y="65" on="1"/>
        <pt x="123" y="65" on="0"/>
        <pt x="42" y="137" on="0"/>
        <pt x="42" y="208" on="1"/>
        <pt x="42" y="363" on="1"/>
        <pt x="42" y="433" on="0"/>
        <pt x="119" y="505" on="0"/>
        <pt x="203" y="505" on="1"/>
        <pt x="220" y="505" on="0"/>
        <pt x="244" y="503" on="0"/>
        <pt x="247" y="502" on="1"/>
        <pt x="247" y="429" on="1"/>
        <pt x="244" y="430" on="0"/>
        <pt x="222" y="433" on="0"/>
        <pt x="208" y="433" on="1"/>
        <pt x="170" y="433" on="0"/>
        <pt x="132" y="409" on="0"/>
        <pt x="127" y="386" on="1"/>
        <pt x="293" y="254" on="1"/>
        <pt x="293" y="257" on="1"/>
        <pt x="293" y="303" on="1"/>
        <pt x="293" y="367" on="0"/>
        <pt x="364" y="432" on="0"/>
        <pt x="440" y="432" on="1"/>
        <pt x="503" y="432" on="1"/>
        <pt x="503" y="522" on="1"/>
        <pt x="503" y="553" on="0"/>
        <pt x="479" y="582" on="0"/>
        <pt x="443" y="582" on="1"/>
        <pt x="406" y="582" on="0"/>
        <pt x="382" y="552" on="0"/>
        <pt x="382" y="522" on="1"/>
        <pt x="382" y="507" on="0"/>
        <pt x="384" y="485" on="0"/>
        <pt x="385" y="482" on="1"/>
        <pt x="300" y="482" on="1"/>
        <pt x="299" y="485" on="0"/>
        <pt x="297" y="508" on="0"/>
        <pt x="297" y="524" on="1"/>
        <pt x="297" y="660" on="0"/>
        <pt x="443" y="660" on="1"/>
        <pt x="588" y="660" on="0"/>
        <pt x="588" y="524" on="1"/>
        <pt x="588" y="432" on="1"/>
        <pt x="705" y="432" on="1"/>
        <pt x="705" y="655" on="1"/>
      </contour>
      <contour>
        <pt x="247" y="583" on="1"/>
        <pt x="-28" y="583" on="1"/>
        <pt x="-28" y="655" on="1"/>
        <pt x="247" y="655" on="1"/>
      </contour>
      <contour>
        <pt x="503" y="359" on="1"/>
        <pt x="440" y="359" on="1"/>
        <pt x="401" y="359" on="0"/>
        <pt x="376" y="332" on="0"/>
        <pt x="376" y="302" on="1"/>
        <pt x="376" y="259" on="1"/>
        <pt x="376" y="230" on="0"/>
        <pt x="402" y="202" on="0"/>
        <pt x="440" y="202" on="1"/>
        <pt x="478" y="202" on="0"/>
        <pt x="503" y="229" on="0"/>
        <pt x="503" y="259" on="1"/>
      </contour>
      <contour>
        <pt x="248" y="138" on="0"/>
        <pt x="287" y="165" on="0"/>
        <pt x="292" y="192" on="1"/>
        <pt x="124" y="324" on="1"/>
        <pt x="124" y="210" on="1"/>
        <pt x="124" y="174" on="0"/>
        <pt x="162" y="138" on="0"/>
        <pt x="208" y="138" on="1"/>
      </contour>
    </TTGlyph>
    <TTGlyph name="dvB_DA" xMin="-28" yMin="-6" xMax="692" yMax="655">
      <contour>
        <pt x="409" y="423" on="0"/>
        <pt x="378" y="393" on="0"/>
        <pt x="378" y="363" on="1"/>
        <pt x="378" y="211" on="1"/>
        <pt x="378" y="146" on="0"/>
        <pt x="458" y="146" on="1"/>
        <pt x="493" y="146" on="0"/>
        <pt x="528" y="155" on="1"/>
        <pt x="528" y="249" on="1"/>
        <pt x="611" y="249" on="1"/>
        <pt x="611" y="-6" on="1"/>
        <pt x="528" y="-6" on="1"/>
        <pt x="528" y="79" on="1"/>
        <pt x="495" y="70" on="0"/>
        <pt x="449" y="70" on="1"/>
        <pt x="372" y="70" on="0"/>
        <pt x="332" y="107" on="1"/>
        <pt x="295" y="65" on="0"/>
        <pt x="210" y="65" on="1"/>
        <pt x="123" y="65" on="0"/>
        <pt x="42" y="137" on="0"/>
        <pt x="42" y="208" on="1"/>
        <pt x="42" y="363" on="1"/>
        <pt x="42" y="433" on="0"/>
        <pt x="119" y="505" on="0"/>
        <pt x="203" y="505" on="1"/>
        <pt x="220" y="505" on="0"/>
        <pt x="244" y="503" on="0"/>
        <pt x="247" y="502" on="1"/>
        <pt x="247" y="429" on="1"/>
        <pt x="244" y="430" on="0"/>
        <pt x="222" y="433" on="0"/>
        <pt x="208" y="433" on="1"/>
        <pt x="170" y="433" on="0"/>
        <pt x="132" y="409" on="0"/>
        <pt x="127" y="386" on="1"/>
        <pt x="293" y="254" on="1"/>
        <pt x="293" y="366" on="1"/>
        <pt x="293" y="435" on="0"/>
        <pt x="369" y="500" on="0"/>
        <pt x="450" y="500" on="1"/>
        <pt x="513" y="500" on="1"/>
        <pt x="513" y="583" on="1"/>
        <pt x="-28" y="583" on="1"/>
        <pt x="-28" y="655" on="1"/>
        <pt x="692" y="655" on="1"/>
        <pt x="692" y="583" on="1"/>
        <pt x="598" y="583" on="1"/>
        <pt x="598" y="423" on="1"/>
        <pt x="450" y="423" on="1"/>
      </contour>
      <contour>
        <pt x="249" y="138" on="0"/>
        <pt x="288" y="160" on="0"/>
        <pt x="295" y="183" on="1"/>
        <pt x="294" y="185" on="0"/>
        <pt x="294" y="190" on="1"/>
        <pt x="124" y="324" on="1"/>
        <pt x="124" y="210" on="1"/>
        <pt x="124" y="174" on="0"/>
        <pt x="162" y="138" on="0"/>
        <pt x="211" y="138" on="1"/>
      </contour>
    </TTGlyph>
    <TTGlyph name="dvB_DHA" xMin="-28" yMin="0" xMax="762" yMax="655">
      <contour>
        <pt x="762" y="655" on="1"/>
        <pt x="762" y="583" on="1"/>
        <pt x="670" y="583" on="1"/>
        <pt x="670" y="0" on="1"/>
        <pt x="585" y="0" on="1"/>
        <pt x="585" y="74" on="1"/>
        <pt x="535" y="61" on="0"/>
        <pt x="477" y="61" on="1"/>
        <pt x="380" y="61" on="0"/>
        <pt x="331" y="108" on="1"/>
        <pt x="294" y="65" on="0"/>
        <pt x="208" y="65" on="1"/>
        <pt x="123" y="65" on="0"/>
        <pt x="42" y="137" on="0"/>
        <pt x="42" y="208" on="1"/>
        <pt x="42" y="363" on="1"/>
        <pt x="42" y="433" on="0"/>
        <pt x="119" y="505" on="0"/>
        <pt x="203" y="505" on="1"/>
        <pt x="220" y="505" on="0"/>
        <pt x="244" y="503" on="0"/>
        <pt x="247" y="502" on="1"/>
        <pt x="247" y="429" on="1"/>
        <pt x="244" y="430" on="0"/>
        <pt x="222" y="433" on="0"/>
        <pt x="208" y="433" on="1"/>
        <pt x="170" y="433" on="0"/>
        <pt x="132" y="409" on="0"/>
        <pt x="127" y="386" on="1"/>
        <pt x="293" y="254" on="1"/>
        <pt x="293" y="266" on="1"/>
        <pt x="293" y="344" on="0"/>
        <pt x="349" y="364" on="1"/>
        <pt x="322" y="376" on="0"/>
        <pt x="299" y="423" on="0"/>
        <pt x="299" y="460" on="1"/>
        <pt x="299" y="520" on="1"/>
        <pt x="299" y="538" on="0"/>
        <pt x="303" y="566" on="0"/>
        <pt x="308" y="581" on="0"/>
        <pt x="309" y="583" on="1"/>
        <pt x="-28" y="583" on="1"/>
        <pt x="-28" y="655" on="1"/>
        <pt x="483" y="655" on="1"/>
        <pt x="483" y="583" on="1"/>
        <pt x="396" y="583" on="1"/>
        <pt x="395" y="581" on="0"/>
        <pt x="389" y="566" on="0"/>
        <pt x="384" y="538" on="0"/>
        <pt x="384" y="520" on="1"/>
        <pt x="384" y="462" on="1"/>
        <pt x="384" y="432" on="0"/>
        <pt x="413" y="403" on="0"/>
        <pt x="453" y="402" on="1"/>
        <pt x="491" y="402" on="1"/>
        <pt x="491" y="323" on="1"/>
        <pt x="451" y="323" on="1"/>
        <pt x="410" y="323" on="0"/>
        <pt x="378" y="293" on="0"/>
        <pt x="378" y="264" on="1"/>
        <pt x="378" y="218" on="1"/>
        <pt x="378" y="174" on="0"/>
        <pt x="433" y="138" on="0"/>
        <pt x="486" y="138" on="1"/>
        <pt x="535" y="138" on="0"/>
        <pt x="585" y="151" on="1"/>
        <pt x="585" y="655" on="1"/>
      </contour>
      <contour>
        <pt x="248" y="138" on="0"/>
        <pt x="287" y="165" on="0"/>
        <pt x="292" y="192" on="1"/>
        <pt x="124" y="324" on="1"/>
        <pt x="124" y="210" on="1"/>
        <pt x="124" y="174" on="0"/>
        <pt x="162" y="138" on="0"/>
        <pt x="208" y="138" on="1"/>
      </contour>
    </TTGlyph>
    <TTGlyph name="dvB_DH_VA" xMin="-28" yMin="0" xMax="1000" yMax="655">
      <contour>
        <pt x="1000" y="655" on="1"/>
        <pt x="1000" y="583" on="1"/>
        <pt x="908" y="583" on="1"/>
        <pt x="908" y="0" on="1"/>
        <pt x="823" y="0" on="1"/>
        <pt x="823" y="76" on="1"/>
        <pt x="813" y="72" on="0"/>
        <pt x="765" y="65" on="0"/>
        <pt x="738" y="65" on="1"/>
        <pt x="663" y="65" on="0"/>
        <pt x="624" y="98" on="1"/>
        <pt x="584" y="88" on="0"/>
        <pt x="519" y="76" on="0"/>
        <pt x="485" y="76" on="1"/>
        <pt x="387" y="76" on="0"/>
        <pt x="339" y="118" on="1"/>
        <pt x="302" y="65" on="0"/>
        <pt x="207" y="65" on="1"/>
        <pt x="41" y="65" on="0"/>
        <pt x="41" y="208" on="1"/>
        <pt x="41" y="363" on="1"/>
        <pt x="41" y="433" on="0"/>
        <pt x="119" y="505" on="0"/>
        <pt x="203" y="505" on="1"/>
        <pt x="219" y="505" on="0"/>
        <pt x="243" y="503" on="0"/>
        <pt x="246" y="502" on="1"/>
        <pt x="246" y="429" on="1"/>
        <pt x="243" y="430" on="0"/>
        <pt x="221" y="433" on="0"/>
        <pt x="208" y="433" on="1"/>
        <pt x="170" y="433" on="0"/>
        <pt x="131" y="410" on="0"/>
        <pt x="126" y="387" on="1"/>
        <pt x="293" y="254" on="1"/>
        <pt x="293" y="277" on="1"/>
        <pt x="293" y="355" on="0"/>
        <pt x="349" y="375" on="1"/>
        <pt x="322" y="387" on="0"/>
        <pt x="299" y="435" on="0"/>
        <pt x="299" y="471" on="1"/>
        <pt x="299" y="520" on="1"/>
        <pt x="299" y="539" on="0"/>
        <pt x="303" y="567" on="0"/>
        <pt x="306" y="581" on="0"/>
        <pt x="307" y="583" on="1"/>
        <pt x="-28" y="583" on="1"/>
        <pt x="-28" y="655" on="1"/>
        <pt x="455" y="655" on="1"/>
        <pt x="455" y="583" on="1"/>
        <pt x="394" y="583" on="1"/>
        <pt x="393" y="581" on="0"/>
        <pt x="388" y="566" on="0"/>
        <pt x="384" y="538" on="0"/>
        <pt x="384" y="520" on="1"/>
        <pt x="384" y="473" on="1"/>
        <pt x="384" y="444" on="0"/>
        <pt x="413" y="414" on="0"/>
        <pt x="453" y="414" on="1"/>
        <pt x="491" y="414" on="1"/>
        <pt x="491" y="335" on="1"/>
        <pt x="451" y="335" on="1"/>
        <pt x="410" y="335" on="0"/>
        <pt x="378" y="304" on="0"/>
        <pt x="378" y="275" on="1"/>
        <pt x="378" y="233" on="1"/>
        <pt x="378" y="190" on="0"/>
        <pt x="434" y="153" on="0"/>
        <pt x="488" y="153" on="1"/>
        <pt x="532" y="153" on="0"/>
        <pt x="587" y="165" on="1"/>
        <pt x="584" y="183" on="0"/>
        <pt x="584" y="204" on="1"/>
        <pt x="584" y="366" on="1"/>
        <pt x="584" y="432" on="0"/>
        <pt x="661" y="505" on="0"/>
        <pt x="738" y="505" on="1"/>
        <pt x="765" y="505" on="0"/>
        <pt x="813" y="498" on="0"/>
        <pt x="823" y="494" on="1"/>
        <pt x="823" y="583" on="1"/>
        <pt x="570" y="583" on="1"/>
        <pt x="570" y="655" on="1"/>
      </contour>
      <contour>
        <pt x="826" y="421" on="1"/>
        <pt x="793" y="432" on="0"/>
        <pt x="748" y="432" on="1"/>
        <pt x="707" y="432" on="0"/>
        <pt x="668" y="396" on="0"/>
        <pt x="668" y="365" on="1"/>
        <pt x="668" y="205" on="1"/>
        <pt x="668" y="139" on="0"/>
        <pt x="749" y="139" on="1"/>
        <pt x="774" y="139" on="0"/>
        <pt x="816" y="146" on="0"/>
        <pt x="826" y="150" on="1"/>
      </contour>
      <contour>
        <pt x="248" y="138" on="0"/>
        <pt x="287" y="165" on="0"/>
        <pt x="292" y="192" on="1"/>
        <pt x="123" y="324" on="1"/>
        <pt x="123" y="210" on="1"/>
        <pt x="123" y="174" on="0"/>
        <pt x="161" y="138" on="0"/>
        <pt x="208" y="138" on="1"/>
      </contour>
    </TTGlyph>
    <TTGlyph name="dvB_JA" xMin="-28" yMin="0" xMax="902" yMax="655">
      <contour>
        <pt x="902" y="583" on="1"/>
        <pt x="814" y="583" on="1"/>
        <pt x="814" y="0" on="1"/>
        <pt x="729" y="0" on="1"/>
        <pt x="729" y="420" on="1"/>
        <pt x="604" y="420" on="1"/>
        <pt x="605" y="418" on="0"/>
        <pt x="608" y="404" on="0"/>
        <pt x="612" y="375" on="0"/>
        <pt x="612" y="356" on="1"/>
        <pt x="612" y="205" on="1"/>
        <pt x="612" y="133" on="0"/>
        <pt x="527" y="58" on="0"/>
        <pt x="446" y="58" on="1"/>
        <pt x="413" y="58" on="0"/>
        <pt x="332" y="73" on="0"/>
        <pt x="302" y="82" on="1"/>
        <pt x="265" y="65" on="0"/>
        <pt x="208" y="65" on="1"/>
        <pt x="123" y="65" on="0"/>
        <pt x="42" y="137" on="0"/>
        <pt x="42" y="208" on="1"/>
        <pt x="42" y="363" on="1"/>
        <pt x="42" y="434" on="0"/>
        <pt x="121" y="505" on="0"/>
        <pt x="208" y="505" on="1"/>
        <pt x="292" y="505" on="0"/>
        <pt x="371" y="434" on="0"/>
        <pt x="371" y="363" on="1"/>
        <pt x="371" y="208" on="1"/>
        <pt x="371" y="175" on="0"/>
        <pt x="362" y="148" on="1"/>
        <pt x="416" y="136" on="0"/>
        <pt x="443" y="136" on="1"/>
        <pt x="527" y="136" on="0"/>
        <pt x="527" y="207" on="1"/>
        <pt x="527" y="353" on="1"/>
        <pt x="527" y="371" on="0"/>
        <pt x="523" y="400" on="0"/>
        <pt x="519" y="414" on="0"/>
        <pt x="518" y="416" on="1"/>
        <pt x="434" y="416" on="1"/>
        <pt x="434" y="493" on="1"/>
        <pt x="729" y="493" on="1"/>
        <pt x="729" y="583" on="1"/>
        <pt x="-28" y="583" on="1"/>
        <pt x="-28" y="655" on="1"/>
        <pt x="902" y="655" on="1"/>
      </contour>
      <contour>
        <pt x="293" y="360" on="1"/>
        <pt x="293" y="395" on="0"/>
        <pt x="254" y="433" on="0"/>
        <pt x="208" y="433" on="1"/>
        <pt x="156" y="433" on="0"/>
        <pt x="136" y="405" on="1"/>
        <pt x="293" y="229" on="1"/>
      </contour>
      <contour>
        <pt x="265" y="138" on="0"/>
        <pt x="282" y="166" on="1"/>
        <pt x="124" y="345" on="1"/>
        <pt x="124" y="210" on="1"/>
        <pt x="124" y="174" on="0"/>
        <pt x="162" y="138" on="0"/>
        <pt x="208" y="138" on="1"/>
      </contour>
    </TTGlyph>
    <TTGlyph name="dvB_JHA" xMin="-28" yMin="-66" xMax="1000" yMax="655">
      <contour>
        <pt x="1000" y="583" on="1"/>
        <pt x="908" y="583" on="1"/>
        <pt x="908" y="0" on="1"/>
        <pt x="823" y="0" on="1"/>
        <pt x="823" y="248" on="1"/>
        <pt x="695" y="248" on="1"/>
        <pt x="720" y="228" on="0"/>
        <pt x="720" y="183" on="1"/>
        <pt x="720" y="143" on="1"/>
        <pt x="720" y="75" on="0"/>
        <pt x="646" y="12" on="0"/>
        <pt x="570" y="12" on="1"/>
        <pt x="521" y="12" on="0"/>
        <pt x="489" y="21" on="1"/>
        <pt x="489" y="-66" on="1"/>
        <pt x="407" y="-66" on="1"/>
        <pt x="407" y="160" on="1"/>
        <pt x="489" y="160" on="1"/>
        <pt x="489" y="96" on="1"/>
        <pt x="513" y="88" on="0"/>
        <pt x="559" y="88" on="1"/>
        <pt x="601" y="88" on="0"/>
        <pt x="636" y="119" on="0"/>
        <pt x="636" y="148" on="1"/>
        <pt x="636" y="183" on="1"/>
        <pt x="636" y="213" on="0"/>
        <pt x="604" y="243" on="0"/>
        <pt x="564" y="243" on="1"/>
        <pt x="366" y="243" on="1"/>
        <pt x="366" y="194" on="1"/>
        <pt x="366" y="57" on="0"/>
        <pt x="208" y="57" on="1"/>
        <pt x="42" y="57" on="0"/>
        <pt x="42" y="199" on="1"/>
        <pt x="42" y="354" on="1"/>
        <pt x="42" y="425" on="0"/>
        <pt x="119" y="497" on="0"/>
        <pt x="203" y="497" on="1"/>
        <pt x="221" y="497" on="0"/>
        <pt x="253" y="493" on="0"/>
        <pt x="257" y="492" on="1"/>
        <pt x="257" y="420" on="1"/>
        <pt x="253" y="421" on="0"/>
        <pt x="224" y="424" on="0"/>
        <pt x="208" y="424" on="1"/>
        <pt x="171" y="424" on="0"/>
        <pt x="132" y="401" on="0"/>
        <pt x="127" y="378" on="1"/>
        <pt x="293" y="246" on="1"/>
        <pt x="293" y="317" on="1"/>
        <pt x="396" y="317" on="1"/>
        <pt x="388" y="341" on="0"/>
        <pt x="388" y="370" on="1"/>
        <pt x="388" y="378" on="1"/>
        <pt x="388" y="443" on="0"/>
        <pt x="463" y="505" on="0"/>
        <pt x="541" y="505" on="1"/>
        <pt x="625" y="505" on="1"/>
        <pt x="625" y="583" on="1"/>
        <pt x="-28" y="583" on="1"/>
        <pt x="-28" y="655" on="1"/>
        <pt x="1000" y="655" on="1"/>
      </contour>
      <contour>
        <pt x="823" y="583" on="1"/>
        <pt x="710" y="583" on="1"/>
        <pt x="710" y="430" on="1"/>
        <pt x="541" y="430" on="1"/>
        <pt x="503" y="430" on="0"/>
        <pt x="473" y="404" on="0"/>
        <pt x="473" y="377" on="1"/>
        <pt x="473" y="372" on="1"/>
        <pt x="473" y="345" on="0"/>
        <pt x="502" y="318" on="0"/>
        <pt x="539" y="317" on="1"/>
        <pt x="823" y="317" on="1"/>
      </contour>
      <contour>
        <pt x="248" y="129" on="0"/>
        <pt x="287" y="156" on="0"/>
        <pt x="292" y="183" on="1"/>
        <pt x="124" y="316" on="1"/>
        <pt x="124" y="202" on="1"/>
        <pt x="124" y="166" on="0"/>
        <pt x="162" y="129" on="0"/>
        <pt x="208" y="129" on="1"/>
      </contour>
    </TTGlyph>
    <TTGlyph name="dvB_J_YA" xMin="42" yMin="0" xMax="1202" yMax="655">
      <contour>
        <pt x="177" y="583" on="1"/>
        <pt x="175" y="583" on="1"/>
        <pt x="175" y="655" on="1"/>
        <pt x="177" y="655" on="1"/>
      </contour>
      <contour>
        <pt x="1202" y="583" on="1"/>
        <pt x="1110" y="583" on="1"/>
        <pt x="1110" y="0" on="1"/>
        <pt x="1025" y="0" on="1"/>
        <pt x="1025" y="96" on="1"/>
        <pt x="974" y="85" on="0"/>
        <pt x="922" y="85" on="1"/>
        <pt x="829" y="85" on="0"/>
        <pt x="715" y="169" on="0"/>
        <pt x="715" y="260" on="1"/>
        <pt x="715" y="370" on="1"/>
        <pt x="715" y="401" on="0"/>
        <pt x="679" y="420" on="0"/>
        <pt x="632" y="420" on="1"/>
        <pt x="604" y="420" on="1"/>
        <pt x="605" y="418" on="0"/>
        <pt x="608" y="404" on="0"/>
        <pt x="612" y="375" on="0"/>
        <pt x="612" y="356" on="1"/>
        <pt x="612" y="205" on="1"/>
        <pt x="612" y="133" on="0"/>
        <pt x="527" y="58" on="0"/>
        <pt x="446" y="58" on="1"/>
        <pt x="411" y="58" on="0"/>
        <pt x="325" y="75" on="0"/>
        <pt x="296" y="84" on="1"/>
        <pt x="323" y="158" on="1"/>
        <pt x="350" y="150" on="0"/>
        <pt x="421" y="136" on="0"/>
        <pt x="443" y="136" on="1"/>
        <pt x="527" y="136" on="0"/>
        <pt x="527" y="207" on="1"/>
        <pt x="527" y="353" on="1"/>
        <pt x="527" y="371" on="0"/>
        <pt x="523" y="400" on="0"/>
        <pt x="519" y="414" on="0"/>
        <pt x="518" y="416" on="1"/>
        <pt x="434" y="416" on="1"/>
        <pt x="434" y="493" on="1"/>
        <pt x="652" y="493" on="1"/>
        <pt x="716" y="493" on="0"/>
        <pt x="783" y="449" on="0"/>
        <pt x="787" y="402" on="1"/>
        <pt x="816" y="407" on="0"/>
        <pt x="840" y="437" on="0"/>
        <pt x="840" y="469" on="1"/>
        <pt x="840" y="520" on="1"/>
        <pt x="840" y="546" on="0"/>
        <pt x="834" y="579" on="0"/>
        <pt x="833" y="583" on="1"/>
        <pt x="293" y="583" on="1"/>
        <pt x="293" y="655" on="1"/>
        <pt x="1202" y="655" on="1"/>
      </contour>
      <contour>
        <pt x="1025" y="583" on="1"/>
        <pt x="916" y="583" on="1"/>
        <pt x="917" y="579" on="0"/>
        <pt x="924" y="545" on="0"/>
        <pt x="924" y="520" on="1"/>
        <pt x="924" y="457" on="1"/>
        <pt x="924" y="341" on="0"/>
        <pt x="799" y="338" on="1"/>
        <pt x="799" y="269" on="1"/>
        <pt x="799" y="216" on="0"/>
        <pt x="860" y="164" on="0"/>
        <pt x="925" y="164" on="1"/>
        <pt x="979" y="164" on="0"/>
        <pt x="1025" y="175" on="1"/>
      </contour>
      <contour>
        <pt x="293" y="315" on="1"/>
        <pt x="254" y="315" on="1"/>
        <pt x="226" y="352" on="0"/>
        <pt x="169" y="413" on="0"/>
        <pt x="160" y="413" on="1"/>
        <pt x="159" y="415" on="0"/>
        <pt x="159" y="419" on="1"/>
        <pt x="159" y="427" on="0"/>
        <pt x="170" y="427" on="1"/>
        <pt x="173" y="427" on="0"/>
        <pt x="185" y="425" on="1"/>
        <pt x="204" y="425" on="0"/>
        <pt x="255" y="391" on="0"/>
        <pt x="293" y="348" on="0"/>
        <pt x="293" y="336" on="1"/>
      </contour>
      <contour>
        <pt x="42" y="317" on="0"/>
        <pt x="124" y="316" on="1"/>
        <pt x="124" y="255" on="1"/>
        <pt x="42" y="254" on="0"/>
        <pt x="42" y="249" on="1"/>
        <pt x="42" y="322" on="1"/>
      </contour>
      <contour>
        <pt x="371" y="252" on="0"/>
        <pt x="328" y="255" on="0"/>
        <pt x="293" y="255" on="1"/>
        <pt x="293" y="315" on="1"/>
        <pt x="371" y="316" on="0"/>
        <pt x="371" y="322" on="1"/>
        <pt x="371" y="249" on="1"/>
      </contour>
      <contour>
        <pt x="124" y="318" on="0"/>
        <pt x="125" y="316" on="1"/>
        <pt x="124" y="316" on="1"/>
        <pt x="124" y="321" on="1"/>
      </contour>
      <contour>
        <pt x="208" y="255" on="1"/>
        <pt x="166" y="255" on="1"/>
        <pt x="133" y="296" on="0"/>
        <pt x="125" y="316" on="1"/>
        <pt x="148" y="315" on="0"/>
        <pt x="208" y="315" on="1"/>
        <pt x="254" y="315" on="1"/>
        <pt x="290" y="269" on="0"/>
        <pt x="293" y="255" on="1"/>
      </contour>
      <contour>
        <pt x="124" y="255" on="1"/>
        <pt x="166" y="255" on="1"/>
        <pt x="194" y="218" on="0"/>
        <pt x="250" y="159" on="0"/>
        <pt x="259" y="159" on="1"/>
        <pt x="260" y="157" on="0"/>
        <pt x="260" y="153" on="1"/>
        <pt x="260" y="143" on="0"/>
        <pt x="247" y="143" on="1"/>
        <pt x="244" y="143" on="0"/>
        <pt x="232" y="145" on="1"/>
        <pt x="212" y="145" on="0"/>
        <pt x="161" y="178" on="0"/>
        <pt x="124" y="221" on="0"/>
        <pt x="124" y="234" on="1"/>
      </contour>
      <contour>
        <pt x="293" y="255" on="1"/>
        <pt x="293" y="255" on="1"/>
        <pt x="293" y="253" on="1"/>
      </contour>
    </TTGlyph>
    <TTGlyph name="dvB_JxA" xMin="-28" yMin="-86" xMax="907" yMax="655">
      <contour>
        <pt x="907" y="583" on="1"/>
        <pt x="814" y="583" on="1"/>
        <pt x="814" y="0" on="1"/>
        <pt x="729" y="0" on="1"/>
        <pt x="729" y="420" on="1"/>
        <pt x="604" y="420" on="1"/>
        <pt x="605" y="418" on="0"/>
        <pt x="608" y="404" on="0"/>
        <pt x="612" y="375" on="0"/>
        <pt x="612" y="356" on="1"/>
        <pt x="612" y="205" on="1"/>
        <pt x="612" y="133" on="0"/>
        <pt x="527" y="58" on="0"/>
        <pt x="446" y="58" on="1"/>
        <pt x="413" y="58" on="0"/>
        <pt x="332" y="73" on="0"/>
        <pt x="302" y="82" on="1"/>
        <pt x="265" y="65" on="0"/>
        <pt x="208" y="65" on="1"/>
        <pt x="123" y="65" on="0"/>
        <pt x="42" y="137" on="0"/>
        <pt x="42" y="208" on="1"/>
        <pt x="42" y="363" on="1"/>
        <pt x="42" y="434" on="0"/>
        <pt x="121" y="505" on="0"/>
        <pt x="208" y="505" on="1"/>
        <pt x="292" y="505" on="0"/>
        <pt x="371" y="434" on="0"/>
        <pt x="371" y="363" on="1"/>
        <pt x="371" y="208" on="1"/>
        <pt x="371" y="175" on="0"/>
        <pt x="362" y="148" on="1"/>
        <pt x="416" y="136" on="0"/>
        <pt x="443" y="136" on="1"/>
        <pt x="527" y="136" on="0"/>
        <pt x="527" y="207" on="1"/>
        <pt x="527" y="353" on="1"/>
        <pt x="527" y="371" on="0"/>
        <pt x="523" y="400" on="0"/>
        <pt x="519" y="414" on="0"/>
        <pt x="518" y="416" on="1"/>
        <pt x="434" y="416" on="1"/>
        <pt x="434" y="493" on="1"/>
        <pt x="729" y="493" on="1"/>
        <pt x="729" y="583" on="1"/>
        <pt x="-28" y="583" on="1"/>
        <pt x="-28" y="655" on="1"/>
        <pt x="907" y="655" on="1"/>
      </contour>
      <contour>
        <pt x="293" y="360" on="1"/>
        <pt x="293" y="395" on="0"/>
        <pt x="254" y="433" on="0"/>
        <pt x="208" y="433" on="1"/>
        <pt x="156" y="433" on="0"/>
        <pt x="136" y="405" on="1"/>
        <pt x="293" y="229" on="1"/>
      </contour>
      <contour>
        <pt x="265" y="138" on="0"/>
        <pt x="282" y="166" on="1"/>
        <pt x="124" y="345" on="1"/>
        <pt x="124" y="210" on="1"/>
        <pt x="124" y="174" on="0"/>
        <pt x="162" y="138" on="0"/>
        <pt x="208" y="138" on="1"/>
      </contour>
      <contour>
        <pt x="367" y="15" on="0"/>
        <pt x="367" y="-35" on="1"/>
        <pt x="367" y="-86" on="0"/>
        <pt x="316" y="-86" on="1"/>
        <pt x="266" y="-86" on="0"/>
        <pt x="266" y="-35" on="1"/>
        <pt x="266" y="15" on="0"/>
        <pt x="317" y="15" on="1"/>
      </contour>
    </TTGlyph>
    <TTGlyph name="dvB_LA" xMin="-28" yMin="0" xMax="907" yMax="655">
      <contour>
        <pt x="907" y="583" on="1"/>
        <pt x="815" y="583" on="1"/>
        <pt x="815" y="0" on="1"/>
        <pt x="730" y="0" on="1"/>
        <pt x="730" y="394" on="1"/>
        <pt x="704" y="405" on="0"/>
        <pt x="669" y="405" on="1"/>
        <pt x="599" y="405" on="0"/>
        <pt x="599" y="344" on="1"/>
        <pt x="599" y="209" on="1"/>
        <pt x="514" y="209" on="1"/>
        <pt x="514" y="344" on="1"/>
        <pt x="514" y="373" on="0"/>
        <pt x="485" y="405" on="0"/>
        <pt x="448" y="405" on="1"/>
        <pt x="410" y="405" on="0"/>
        <pt x="383" y="372" on="0"/>
        <pt x="383" y="342" on="1"/>
        <pt x="383" y="164" on="1"/>
        <pt x="383" y="122" on="0"/>
        <pt x="422" y="77" on="0"/>
        <pt x="476" y="77" on="1"/>
        <pt x="497" y="77" on="0"/>
        <pt x="534" y="82" on="1"/>
        <pt x="534" y="5" on="1"/>
        <pt x="507" y="0" on="0"/>
        <pt x="473" y="0" on="1"/>
        <pt x="342" y="0" on="0"/>
        <pt x="310" y="87" on="1"/>
        <pt x="271" y="65" on="0"/>
        <pt x="210" y="65" on="1"/>
        <pt x="123" y="65" on="0"/>
        <pt x="42" y="137" on="0"/>
        <pt x="42" y="208" on="1"/>
        <pt x="42" y="363" on="1"/>
        <pt x="42" y="433" on="0"/>
        <pt x="119" y="505" on="0"/>
        <pt x="203" y="505" on="1"/>
        <pt x="220" y="505" on="0"/>
        <pt x="244" y="503" on="0"/>
        <pt x="247" y="502" on="1"/>
        <pt x="247" y="429" on="1"/>
        <pt x="244" y="430" on="0"/>
        <pt x="222" y="433" on="0"/>
        <pt x="208" y="433" on="1"/>
        <pt x="170" y="433" on="0"/>
        <pt x="132" y="409" on="0"/>
        <pt x="127" y="386" on="1"/>
        <pt x="298" y="250" on="1"/>
        <pt x="298" y="344" on="1"/>
        <pt x="298" y="411" on="0"/>
        <pt x="372" y="484" on="0"/>
        <pt x="446" y="484" on="1"/>
        <pt x="486" y="484" on="0"/>
        <pt x="541" y="457" on="0"/>
        <pt x="555" y="436" on="1"/>
        <pt x="589" y="483" on="0"/>
        <pt x="664" y="483" on="1"/>
        <pt x="701" y="483" on="0"/>
        <pt x="730" y="472" on="1"/>
        <pt x="730" y="583" on="1"/>
        <pt x="-28" y="583" on="1"/>
        <pt x="-28" y="655" on="1"/>
        <pt x="907" y="655" on="1"/>
      </contour>
      <contour>
        <pt x="251" y="138" on="0"/>
        <pt x="291" y="163" on="0"/>
        <pt x="296" y="188" on="1"/>
        <pt x="124" y="324" on="1"/>
        <pt x="124" y="210" on="1"/>
        <pt x="124" y="174" on="0"/>
        <pt x="162" y="138" on="0"/>
        <pt x="211" y="138" on="1"/>
      </contour>
    </TTGlyph>
    <TTGlyph name="dvB_L_YA" xMin="-28" yMin="0" xMax="1200" yMax="655">
      <contour>
        <pt x="1200" y="583" on="1"/>
        <pt x="1108" y="583" on="1"/>
        <pt x="1108" y="0" on="1"/>
        <pt x="1023" y="0" on="1"/>
        <pt x="1023" y="96" on="1"/>
        <pt x="972" y="85" on="0"/>
        <pt x="920" y="85" on="1"/>
        <pt x="826" y="85" on="0"/>
        <pt x="713" y="169" on="0"/>
        <pt x="713" y="260" on="1"/>
        <pt x="713" y="342" on="1"/>
        <pt x="713" y="374" on="0"/>
        <pt x="688" y="405" on="0"/>
        <pt x="650" y="405" on="1"/>
        <pt x="616" y="405" on="0"/>
        <pt x="590" y="373" on="0"/>
        <pt x="590" y="342" on="1"/>
        <pt x="590" y="209" on="1"/>
        <pt x="505" y="209" on="1"/>
        <pt x="505" y="342" on="1"/>
        <pt x="505" y="372" on="0"/>
        <pt x="478" y="405" on="0"/>
        <pt x="440" y="405" on="1"/>
        <pt x="402" y="405" on="0"/>
        <pt x="374" y="373" on="0"/>
        <pt x="374" y="342" on="1"/>
        <pt x="374" y="164" on="1"/>
        <pt x="374" y="122" on="0"/>
        <pt x="414" y="77" on="0"/>
        <pt x="468" y="77" on="1"/>
        <pt x="511" y="77" on="0"/>
        <pt x="527" y="79" on="1"/>
        <pt x="527" y="2" on="1"/>
        <pt x="513" y="0" on="0"/>
        <pt x="464" y="0" on="1"/>
        <pt x="398" y="0" on="0"/>
        <pt x="320" y="43" on="0"/>
        <pt x="304" y="87" on="1"/>
        <pt x="266" y="65" on="0"/>
        <pt x="207" y="65" on="1"/>
        <pt x="41" y="65" on="0"/>
        <pt x="41" y="208" on="1"/>
        <pt x="41" y="363" on="1"/>
        <pt x="41" y="433" on="0"/>
        <pt x="119" y="505" on="0"/>
        <pt x="203" y="505" on="1"/>
        <pt x="219" y="505" on="0"/>
        <pt x="243" y="503" on="0"/>
        <pt x="246" y="502" on="1"/>
        <pt x="246" y="429" on="1"/>
        <pt x="243" y="430" on="0"/>
        <pt x="221" y="433" on="0"/>
        <pt x="208" y="433" on="1"/>
        <pt x="170" y="433" on="0"/>
        <pt x="131" y="410" on="0"/>
        <pt x="126" y="387" on="1"/>
        <pt x="293" y="254" on="1"/>
        <pt x="293" y="344" on="1"/>
        <pt x="293" y="411" on="0"/>
        <pt x="365" y="484" on="0"/>
        <pt x="438" y="484" on="1"/>
        <pt x="478" y="484" on="0"/>
        <pt x="533" y="457" on="0"/>
        <pt x="546" y="436" on="1"/>
        <pt x="563" y="459" on="0"/>
        <pt x="612" y="483" on="0"/>
        <pt x="649" y="483" on="1"/>
        <pt x="760" y="483" on="0"/>
        <pt x="784" y="390" on="1"/>
        <pt x="814" y="395" on="0"/>
        <pt x="838" y="425" on="0"/>
        <pt x="838" y="457" on="1"/>
        <pt x="838" y="520" on="1"/>
        <pt x="838" y="546" on="0"/>
        <pt x="832" y="579" on="0"/>
        <pt x="831" y="583" on="1"/>
        <pt x="-28" y="583" on="1"/>
        <pt x="-28" y="655" on="1"/>
        <pt x="1200" y="655" on="1"/>
      </contour>
      <contour>
        <pt x="1023" y="583" on="1"/>
        <pt x="914" y="583" on="1"/>
        <pt x="915" y="579" on="0"/>
        <pt x="921" y="545" on="0"/>
        <pt x="921" y="520" on="1"/>
        <pt x="921" y="445" on="1"/>
        <pt x="921" y="329" on="0"/>
        <pt x="797" y="326" on="1"/>
        <pt x="797" y="269" on="1"/>
        <pt x="797" y="216" on="0"/>
        <pt x="858" y="164" on="0"/>
        <pt x="923" y="164" on="1"/>
        <pt x="977" y="164" on="0"/>
        <pt x="1023" y="175" on="1"/>
      </contour>
      <contour>
        <pt x="248" y="138" on="0"/>
        <pt x="287" y="165" on="0"/>
        <pt x="292" y="192" on="1"/>
        <pt x="123" y="324" on="1"/>
        <pt x="123" y="210" on="1"/>
        <pt x="123" y="174" on="0"/>
        <pt x="161" y="138" on="0"/>
        <pt x="208" y="138" on="1"/>
      </contour>
    </TTGlyph>
    <TTGlyph name="dvB_NA" xMin="-28" yMin="0" xMax="853" yMax="655">
      <contour>
        <pt x="853" y="583" on="1"/>
        <pt x="761" y="583" on="1"/>
        <pt x="761" y="0" on="1"/>
        <pt x="676" y="0" on="1"/>
        <pt x="676" y="405" on="1"/>
        <pt x="558" y="405" on="1"/>
        <pt x="568" y="375" on="0"/>
        <pt x="568" y="338" on="1"/>
        <pt x="568" y="192" on="1"/>
        <pt x="568" y="126" on="0"/>
        <pt x="499" y="58" on="0"/>
        <pt x="427" y="58" on="1"/>
        <pt x="350" y="58" on="0"/>
        <pt x="315" y="97" on="1"/>
        <pt x="277" y="65" on="0"/>
        <pt x="203" y="65" on="1"/>
        <pt x="119" y="65" on="0"/>
        <pt x="42" y="137" on="0"/>
        <pt x="42" y="208" on="1"/>
        <pt x="42" y="357" on="1"/>
        <pt x="42" y="427" on="0"/>
        <pt x="119" y="499" on="0"/>
        <pt x="203" y="499" on="1"/>
        <pt x="289" y="499" on="0"/>
        <pt x="327" y="456" on="1"/>
        <pt x="362" y="482" on="0"/>
        <pt x="427" y="482" on="1"/>
        <pt x="676" y="482" on="1"/>
        <pt x="676" y="583" on="1"/>
        <pt x="-28" y="583" on="1"/>
        <pt x="-28" y="655" on="1"/>
        <pt x="853" y="655" on="1"/>
      </contour>
      <contour>
        <pt x="168" y="426" on="0"/>
        <pt x="132" y="403" on="0"/>
        <pt x="127" y="380" on="1"/>
        <pt x="285" y="257" on="1"/>
        <pt x="285" y="354" on="1"/>
        <pt x="285" y="392" on="0"/>
        <pt x="250" y="426" on="0"/>
        <pt x="204" y="426" on="1"/>
      </contour>
      <contour>
        <pt x="487" y="336" on="1"/>
        <pt x="487" y="370" on="0"/>
        <pt x="477" y="404" on="0"/>
        <pt x="477" y="405" on="1"/>
        <pt x="427" y="405" on="1"/>
        <pt x="393" y="405" on="0"/>
        <pt x="367" y="377" on="0"/>
        <pt x="367" y="348" on="1"/>
        <pt x="367" y="192" on="1"/>
        <pt x="367" y="164" on="0"/>
        <pt x="393" y="135" on="0"/>
        <pt x="427" y="135" on="1"/>
        <pt x="461" y="135" on="0"/>
        <pt x="487" y="163" on="0"/>
        <pt x="487" y="192" on="1"/>
      </contour>
      <contour>
        <pt x="244" y="138" on="0"/>
        <pt x="281" y="165" on="0"/>
        <pt x="284" y="194" on="1"/>
        <pt x="124" y="318" on="1"/>
        <pt x="124" y="210" on="1"/>
        <pt x="124" y="174" on="0"/>
        <pt x="159" y="138" on="0"/>
        <pt x="204" y="138" on="1"/>
      </contour>
    </TTGlyph>
    <TTGlyph name="dvB_R" xMin="-28" yMin="-73" xMax="395" yMax="655">
      <contour>
        <pt x="395" y="655" on="1"/>
        <pt x="395" y="583" on="1"/>
        <pt x="-28" y="583" on="1"/>
        <pt x="-28" y="655" on="1"/>
      </contour>
      <contour>
        <pt x="295" y="505" on="0"/>
        <pt x="374" y="434" on="0"/>
        <pt x="374" y="363" on="1"/>
        <pt x="374" y="221" on="1"/>
        <pt x="374" y="189" on="0"/>
        <pt x="355" y="142" on="0"/>
        <pt x="323" y="105" on="0"/>
        <pt x="289" y="71" on="1"/>
        <pt x="141" y="-73" on="1"/>
        <pt x="32" y="-73" on="1"/>
        <pt x="191" y="81" on="1"/>
        <pt x="115" y="85" on="0"/>
        <pt x="45" y="156" on="0"/>
        <pt x="45" y="221" on="1"/>
        <pt x="45" y="363" on="1"/>
        <pt x="45" y="434" on="0"/>
        <pt x="124" y="505" on="0"/>
        <pt x="211" y="505" on="1"/>
      </contour>
      <contour>
        <pt x="174" y="433" on="0"/>
        <pt x="135" y="410" on="0"/>
        <pt x="129" y="387" on="1"/>
        <pt x="296" y="266" on="1"/>
        <pt x="296" y="360" on="1"/>
        <pt x="296" y="397" on="0"/>
        <pt x="257" y="433" on="0"/>
        <pt x="211" y="433" on="1"/>
      </contour>
      <contour>
        <pt x="250" y="151" on="0"/>
        <pt x="290" y="178" on="0"/>
        <pt x="294" y="204" on="1"/>
        <pt x="126" y="327" on="1"/>
        <pt x="126" y="224" on="1"/>
        <pt x="126" y="188" on="0"/>
        <pt x="165" y="151" on="0"/>
        <pt x="211" y="151" on="1"/>
      </contour>
    </TTGlyph>
    <TTGlyph name="dvB_RA" xMin="-28" yMin="-48" xMax="465" yMax="655">
      <contour>
        <pt x="465" y="655" on="1"/>
        <pt x="465" y="583" on="1"/>
        <pt x="373" y="583" on="1"/>
        <pt x="373" y="0" on="1"/>
        <pt x="293" y="0" on="1"/>
        <pt x="293" y="105" on="1"/>
        <pt x="287" y="103" on="1"/>
        <pt x="142" y="-48" on="1"/>
        <pt x="40" y="-48" on="1"/>
        <pt x="179" y="95" on="1"/>
        <pt x="111" y="100" on="0"/>
        <pt x="45" y="161" on="0"/>
        <pt x="45" y="224" on="1"/>
        <pt x="45" y="365" on="1"/>
        <pt x="45" y="437" on="0"/>
        <pt x="127" y="505" on="0"/>
        <pt x="208" y="505" on="1"/>
        <pt x="262" y="505" on="0"/>
        <pt x="293" y="493" on="1"/>
        <pt x="293" y="583" on="1"/>
        <pt x="-28" y="583" on="1"/>
        <pt x="-28" y="655" on="1"/>
      </contour>
      <contour>
        <pt x="146" y="433" on="0"/>
        <pt x="131" y="389" on="1"/>
        <pt x="293" y="253" on="1"/>
        <pt x="293" y="420" on="1"/>
        <pt x="257" y="433" on="0"/>
        <pt x="215" y="433" on="1"/>
      </contour>
      <contour>
        <pt x="127" y="156" on="0"/>
        <pt x="215" y="156" on="1"/>
        <pt x="255" y="156" on="0"/>
        <pt x="293" y="167" on="1"/>
        <pt x="293" y="187" on="1"/>
        <pt x="127" y="327" on="1"/>
        <pt x="127" y="227" on="1"/>
      </contour>
    </TTGlyph>
    <TTGlyph name="dvB_SA" xMin="-28" yMin="-5" xMax="881" yMax="655">
      <contour>
        <pt x="881" y="583" on="1"/>
        <pt x="789" y="583" on="1"/>
        <pt x="789" y="0" on="1"/>
        <pt x="704" y="0" on="1"/>
        <pt x="704" y="282" on="1"/>
        <pt x="556" y="282" on="1"/>
        <pt x="519" y="245" on="0"/>
        <pt x="444" y="245" on="1"/>
        <pt x="409" y="245" on="0"/>
        <pt x="379" y="253" on="1"/>
        <pt x="379" y="152" on="1"/>
        <pt x="379" y="111" on="0"/>
        <pt x="432" y="72" on="0"/>
        <pt x="485" y="72" on="1"/>
        <pt x="522" y="72" on="0"/>
        <pt x="574" y="82" on="0"/>
        <pt x="607" y="92" on="1"/>
        <pt x="607" y="14" on="1"/>
        <pt x="548" y="-5" on="0"/>
        <pt x="476" y="-5" on="1"/>
        <pt x="411" y="-5" on="0"/>
        <pt x="323" y="41" on="0"/>
        <pt x="306" y="85" on="1"/>
        <pt x="269" y="65" on="0"/>
        <pt x="210" y="65" on="1"/>
        <pt x="123" y="65" on="0"/>
        <pt x="42" y="137" on="0"/>
        <pt x="42" y="208" on="1"/>
        <pt x="42" y="363" on="1"/>
        <pt x="42" y="433" on="0"/>
        <pt x="119" y="505" on="0"/>
        <pt x="203" y="505" on="1"/>
        <pt x="217" y="505" on="0"/>
        <pt x="236" y="503" on="0"/>
        <pt x="239" y="503" on="1"/>
        <pt x="239" y="430" on="1"/>
        <pt x="237" y="431" on="0"/>
        <pt x="220" y="433" on="0"/>
        <pt x="208" y="433" on="1"/>
        <pt x="170" y="433" on="0"/>
        <pt x="132" y="409" on="0"/>
        <pt x="127" y="386" on="1"/>
        <pt x="294" y="254" on="1"/>
        <pt x="294" y="450" on="1"/>
        <pt x="379" y="450" on="1"/>
        <pt x="379" y="329" on="1"/>
        <pt x="405" y="321" on="0"/>
        <pt x="435" y="321" on="1"/>
        <pt x="475" y="321" on="0"/>
        <pt x="506" y="354" on="0"/>
        <pt x="506" y="383" on="1"/>
        <pt x="506" y="520" on="1"/>
        <pt x="506" y="538" on="0"/>
        <pt x="502" y="567" on="0"/>
        <pt x="498" y="581" on="0"/>
        <pt x="497" y="583" on="1"/>
        <pt x="-28" y="583" on="1"/>
        <pt x="-28" y="655" on="1"/>
        <pt x="881" y="655" on="1"/>
      </contour>
      <contour>
        <pt x="704" y="583" on="1"/>
        <pt x="583" y="583" on="1"/>
        <pt x="584" y="579" on="0"/>
        <pt x="590" y="546" on="0"/>
        <pt x="590" y="520" on="1"/>
        <pt x="590" y="383" on="1"/>
        <pt x="590" y="373" on="0"/>
        <pt x="588" y="355" on="1"/>
        <pt x="704" y="355" on="1"/>
      </contour>
      <contour>
        <pt x="247" y="138" on="0"/>
        <pt x="287" y="159" on="0"/>
        <pt x="294" y="180" on="1"/>
        <pt x="294" y="190" on="1"/>
        <pt x="124" y="324" on="1"/>
        <pt x="124" y="210" on="1"/>
        <pt x="124" y="174" on="0"/>
        <pt x="162" y="138" on="0"/>
        <pt x="211" y="138" on="1"/>
      </contour>
    </TTGlyph>
    <TTGlyph name="dvB_SHA" xMin="-28" yMin="-2" xMax="878" yMax="660">
      <contour>
        <pt x="533" y="660" on="0"/>
        <pt x="610" y="588" on="0"/>
        <pt x="610" y="521" on="1"/>
        <pt x="610" y="384" on="1"/>
        <pt x="610" y="248" on="0"/>
        <pt x="461" y="248" on="1"/>
        <pt x="416" y="248" on="0"/>
        <pt x="382" y="260" on="1"/>
        <pt x="382" y="159" on="1"/>
        <pt x="382" y="118" on="0"/>
        <pt x="436" y="75" on="0"/>
        <pt x="487" y="75" on="1"/>
        <pt x="520" y="75" on="0"/>
        <pt x="571" y="85" on="0"/>
        <pt x="603" y="95" on="1"/>
        <pt x="603" y="16" on="1"/>
        <pt x="545" y="-2" on="0"/>
        <pt x="477" y="-2" on="1"/>
        <pt x="415" y="-2" on="0"/>
        <pt x="329" y="45" on="0"/>
        <pt x="311" y="88" on="1"/>
        <pt x="273" y="65" on="0"/>
        <pt x="210" y="65" on="1"/>
        <pt x="123" y="65" on="0"/>
        <pt x="42" y="137" on="0"/>
        <pt x="42" y="208" on="1"/>
        <pt x="42" y="363" on="1"/>
        <pt x="42" y="433" on="0"/>
        <pt x="119" y="505" on="0"/>
        <pt x="203" y="505" on="1"/>
        <pt x="220" y="505" on="0"/>
        <pt x="244" y="503" on="0"/>
        <pt x="247" y="502" on="1"/>
        <pt x="247" y="429" on="1"/>
        <pt x="244" y="430" on="0"/>
        <pt x="222" y="433" on="0"/>
        <pt x="208" y="433" on="1"/>
        <pt x="170" y="433" on="0"/>
        <pt x="132" y="409" on="0"/>
        <pt x="127" y="386" on="1"/>
        <pt x="297" y="251" on="1"/>
        <pt x="297" y="404" on="1"/>
        <pt x="382" y="404" on="1"/>
        <pt x="382" y="335" on="1"/>
        <pt x="417" y="324" on="0"/>
        <pt x="454" y="324" on="1"/>
        <pt x="494" y="324" on="0"/>
        <pt x="525" y="356" on="0"/>
        <pt x="525" y="386" on="1"/>
        <pt x="525" y="519" on="1"/>
        <pt x="525" y="549" on="0"/>
        <pt x="494" y="582" on="0"/>
        <pt x="454" y="582" on="1"/>
        <pt x="414" y="582" on="0"/>
        <pt x="382" y="548" on="0"/>
        <pt x="382" y="518" on="1"/>
        <pt x="382" y="490" on="0"/>
        <pt x="386" y="480" on="1"/>
        <pt x="301" y="480" on="1"/>
        <pt x="297" y="504" on="0"/>
        <pt x="297" y="521" on="1"/>
        <pt x="297" y="588" on="0"/>
        <pt x="375" y="660" on="0"/>
        <pt x="454" y="660" on="1"/>
      </contour>
      <contour>
        <pt x="243" y="583" on="1"/>
        <pt x="-28" y="583" on="1"/>
        <pt x="-28" y="655" on="1"/>
        <pt x="243" y="655" on="1"/>
      </contour>
      <contour>
        <pt x="878" y="655" on="1"/>
        <pt x="878" y="583" on="1"/>
        <pt x="786" y="583" on="1"/>
        <pt x="786" y="0" on="1"/>
        <pt x="701" y="0" on="1"/>
        <pt x="701" y="655" on="1"/>
      </contour>
      <contour>
        <pt x="251" y="138" on="0"/>
        <pt x="291" y="163" on="0"/>
        <pt x="296" y="188" on="1"/>
        <pt x="124" y="324" on="1"/>
        <pt x="124" y="210" on="1"/>
        <pt x="124" y="174" on="0"/>
        <pt x="162" y="138" on="0"/>
        <pt x="211" y="138" on="1"/>
      </contour>
    </TTGlyph>
    <TTGlyph name="dvB_TA" xMin="-28" yMin="-1" xMax="721" yMax="655">
      <contour>
        <pt x="721" y="583" on="1"/>
        <pt x="628" y="583" on="1"/>
        <pt x="628" y="0" on="1"/>
        <pt x="543" y="0" on="1"/>
        <pt x="543" y="412" on="1"/>
        <pt x="504" y="423" on="0"/>
        <pt x="464" y="423" on="1"/>
        <pt x="383" y="423" on="0"/>
        <pt x="383" y="356" on="1"/>
        <pt x="383" y="137" on="1"/>
        <pt x="383" y="106" on="0"/>
        <pt x="417" y="77" on="0"/>
        <pt x="458" y="78" on="1"/>
        <pt x="458" y="-1" on="1"/>
        <pt x="435" y="-1" on="1"/>
        <pt x="323" y="-1" on="0"/>
        <pt x="303" y="84" on="1"/>
        <pt x="267" y="65" on="0"/>
        <pt x="210" y="65" on="1"/>
        <pt x="123" y="65" on="0"/>
        <pt x="42" y="137" on="0"/>
        <pt x="42" y="208" on="1"/>
        <pt x="42" y="363" on="1"/>
        <pt x="42" y="433" on="0"/>
        <pt x="119" y="505" on="0"/>
        <pt x="203" y="505" on="1"/>
        <pt x="220" y="505" on="0"/>
        <pt x="244" y="503" on="0"/>
        <pt x="247" y="502" on="1"/>
        <pt x="247" y="429" on="1"/>
        <pt x="244" y="430" on="0"/>
        <pt x="222" y="433" on="0"/>
        <pt x="208" y="433" on="1"/>
        <pt x="170" y="433" on="0"/>
        <pt x="132" y="409" on="0"/>
        <pt x="127" y="386" on="1"/>
        <pt x="298" y="250" on="1"/>
        <pt x="298" y="358" on="1"/>
        <pt x="298" y="425" on="0"/>
        <pt x="377" y="501" on="0"/>
        <pt x="455" y="501" on="1"/>
        <pt x="510" y="501" on="0"/>
        <pt x="543" y="490" on="1"/>
        <pt x="543" y="583" on="1"/>
        <pt x="-28" y="583" on="1"/>
        <pt x="-28" y="655" on="1"/>
        <pt x="721" y="655" on="1"/>
      </contour>
      <contour>
        <pt x="251" y="138" on="0"/>
        <pt x="291" y="163" on="0"/>
        <pt x="296" y="188" on="1"/>
        <pt x="124" y="324" on="1"/>
        <pt x="124" y="210" on="1"/>
        <pt x="124" y="174" on="0"/>
        <pt x="162" y="138" on="0"/>
        <pt x="211" y="138" on="1"/>
      </contour>
    </TTGlyph>
    <TTGlyph name="dvB_VA" xMin="-28" yMin="0" xMax="710" yMax="655">
      <contour>
        <pt x="710" y="583" on="1"/>
        <pt x="617" y="583" on="1"/>
        <pt x="617" y="0" on="1"/>
        <pt x="532" y="0" on="1"/>
        <pt x="532" y="76" on="1"/>
        <pt x="521" y="72" on="0"/>
        <pt x="475" y="65" on="0"/>
        <pt x="447" y="65" on="1"/>
        <pt x="367" y="65" on="0"/>
        <pt x="328" y="104" on="1"/>
        <pt x="289" y="65" on="0"/>
        <pt x="210" y="65" on="1"/>
        <pt x="123" y="65" on="0"/>
        <pt x="42" y="137" on="0"/>
        <pt x="42" y="208" on="1"/>
        <pt x="42" y="363" on="1"/>
        <pt x="42" y="433" on="0"/>
        <pt x="119" y="505" on="0"/>
        <pt x="203" y="505" on="1"/>
        <pt x="220" y="505" on="0"/>
        <pt x="244" y="503" on="0"/>
        <pt x="247" y="502" on="1"/>
        <pt x="247" y="429" on="1"/>
        <pt x="244" y="430" on="0"/>
        <pt x="222" y="433" on="0"/>
        <pt x="208" y="433" on="1"/>
        <pt x="170" y="433" on="0"/>
        <pt x="132" y="409" on="0"/>
        <pt x="127" y="386" on="1"/>
        <pt x="294" y="254" on="1"/>
        <pt x="294" y="366" on="1"/>
        <pt x="294" y="432" on="0"/>
        <pt x="370" y="505" on="0"/>
        <pt x="447" y="505" on="1"/>
        <pt x="474" y="505" on="0"/>
        <pt x="522" y="498" on="0"/>
        <pt x="532" y="494" on="1"/>
        <pt x="532" y="583" on="1"/>
        <pt x="-28" y="583" on="1"/>
        <pt x="-28" y="655" on="1"/>
        <pt x="710" y="655" on="1"/>
      </contour>
      <contour>
        <pt x="535" y="421" on="1"/>
        <pt x="524" y="425" on="0"/>
        <pt x="482" y="432" on="0"/>
        <pt x="458" y="432" on="1"/>
        <pt x="416" y="432" on="0"/>
        <pt x="377" y="396" on="0"/>
        <pt x="377" y="365" on="1"/>
        <pt x="377" y="205" on="1"/>
        <pt x="377" y="139" on="0"/>
        <pt x="458" y="139" on="1"/>
        <pt x="483" y="139" on="0"/>
        <pt x="527" y="146" on="0"/>
        <pt x="535" y="150" on="1"/>
      </contour>
      <contour>
        <pt x="250" y="138" on="0"/>
        <pt x="287" y="165" on="0"/>
        <pt x="292" y="192" on="1"/>
        <pt x="124" y="324" on="1"/>
        <pt x="124" y="210" on="1"/>
        <pt x="124" y="174" on="0"/>
        <pt x="162" y="138" on="0"/>
        <pt x="211" y="138" on="1"/>
      </contour>
    </TTGlyph>
    <TTGlyph name="dvB_YA" xMin="-28" yMin="0" xMax="781" yMax="655">
      <contour>
        <pt x="781" y="583" on="1"/>
        <pt x="688" y="583" on="1"/>
        <pt x="688" y="0" on="1"/>
        <pt x="603" y="0" on="1"/>
        <pt x="603" y="96" on="1"/>
        <pt x="552" y="85" on="0"/>
        <pt x="500" y="85" on="1"/>
        <pt x="402" y="85" on="0"/>
        <pt x="349" y="128" on="1"/>
        <pt x="314" y="65" on="0"/>
        <pt x="210" y="65" on="1"/>
        <pt x="123" y="65" on="0"/>
        <pt x="42" y="137" on="0"/>
        <pt x="42" y="208" on="1"/>
        <pt x="42" y="363" on="1"/>
        <pt x="42" y="433" on="0"/>
        <pt x="119" y="505" on="0"/>
        <pt x="203" y="505" on="1"/>
        <pt x="220" y="505" on="0"/>
        <pt x="244" y="503" on="0"/>
        <pt x="247" y="502" on="1"/>
        <pt x="247" y="429" on="1"/>
        <pt x="244" y="430" on="0"/>
        <pt x="222" y="433" on="0"/>
        <pt x="208" y="433" on="1"/>
        <pt x="170" y="433" on="0"/>
        <pt x="132" y="409" on="0"/>
        <pt x="127" y="386" on="1"/>
        <pt x="293" y="254" on="1"/>
        <pt x="293" y="260" on="1"/>
        <pt x="293" y="387" on="1"/>
        <pt x="315" y="387" on="1"/>
        <pt x="375" y="387" on="0"/>
        <pt x="419" y="416" on="0"/>
        <pt x="419" y="457" on="1"/>
        <pt x="419" y="520" on="1"/>
        <pt x="419" y="538" on="0"/>
        <pt x="415" y="567" on="0"/>
        <pt x="412" y="581" on="0"/>
        <pt x="411" y="583" on="1"/>
        <pt x="-28" y="583" on="1"/>
        <pt x="-28" y="655" on="1"/>
        <pt x="781" y="655" on="1"/>
      </contour>
      <contour>
        <pt x="603" y="583" on="1"/>
        <pt x="495" y="583" on="1"/>
        <pt x="496" y="579" on="0"/>
        <pt x="502" y="545" on="0"/>
        <pt x="502" y="520" on="1"/>
        <pt x="502" y="445" on="1"/>
        <pt x="502" y="329" on="0"/>
        <pt x="377" y="326" on="1"/>
        <pt x="377" y="269" on="1"/>
        <pt x="377" y="216" on="0"/>
        <pt x="438" y="164" on="0"/>
        <pt x="503" y="164" on="1"/>
        <pt x="557" y="164" on="0"/>
        <pt x="603" y="175" on="1"/>
      </contour>
      <contour>
        <pt x="251" y="138" on="0"/>
        <pt x="291" y="163" on="0"/>
        <pt x="296" y="188" on="1"/>
        <pt x="124" y="324" on="1"/>
        <pt x="124" y="210" on="1"/>
        <pt x="124" y="174" on="0"/>
        <pt x="162" y="138" on="0"/>
        <pt x="211" y="138" on="1"/>
      </contour>
    </TTGlyph>
    <TTGlyph name="dvC" xMin="-34" yMin="59" xMax="332" yMax="655">
      <contour>
        <pt x="-34" y="583" on="1"/>
        <pt x="-34" y="655" on="1"/>
        <pt x="323" y="655" on="1"/>
        <pt x="323" y="583" on="1"/>
      </contour>
      <contour>
        <pt x="314" y="67" on="0"/>
        <pt x="256" y="59" on="0"/>
        <pt x="232" y="59" on="1"/>
        <pt x="77" y="59" on="0"/>
        <pt x="77" y="200" on="1"/>
        <pt x="77" y="332" on="1"/>
        <pt x="77" y="354" on="0"/>
        <pt x="81" y="388" on="0"/>
        <pt x="85" y="406" on="0"/>
        <pt x="86" y="408" on="1"/>
        <pt x="7" y="408" on="1"/>
        <pt x="7" y="484" on="1"/>
        <pt x="265" y="484" on="1"/>
        <pt x="265" y="410" on="1"/>
        <pt x="173" y="410" on="1"/>
        <pt x="172" y="408" on="0"/>
        <pt x="167" y="390" on="0"/>
        <pt x="162" y="356" on="0"/>
        <pt x="162" y="332" on="1"/>
        <pt x="162" y="203" on="1"/>
        <pt x="162" y="169" on="0"/>
        <pt x="201" y="135" on="0"/>
        <pt x="243" y="135" on="1"/>
        <pt x="264" y="135" on="0"/>
        <pt x="314" y="143" on="0"/>
        <pt x="332" y="149" on="1"/>
        <pt x="332" y="73" on="1"/>
      </contour>
    </TTGlyph>
    <TTGlyph name="dvCA" xMin="-28" yMin="0" xMax="497" yMax="655">
      <contour>
        <pt x="168" y="169" on="0"/>
        <pt x="206" y="135" on="0"/>
        <pt x="247" y="135" on="1"/>
        <pt x="284" y="135" on="0"/>
        <pt x="320" y="147" on="1"/>
        <pt x="320" y="583" on="1"/>
        <pt x="-28" y="583" on="1"/>
        <pt x="-28" y="655" on="1"/>
        <pt x="497" y="655" on="1"/>
        <pt x="497" y="583" on="1"/>
        <pt x="405" y="583" on="1"/>
        <pt x="405" y="0" on="1"/>
        <pt x="320" y="0" on="1"/>
        <pt x="320" y="71" on="1"/>
        <pt x="281" y="59" on="0"/>
        <pt x="236" y="59" on="1"/>
        <pt x="83" y="59" on="0"/>
        <pt x="83" y="200" on="1"/>
        <pt x="83" y="332" on="1"/>
        <pt x="83" y="354" on="0"/>
        <pt x="87" y="388" on="0"/>
        <pt x="91" y="406" on="0"/>
        <pt x="92" y="408" on="1"/>
        <pt x="12" y="408" on="1"/>
        <pt x="12" y="484" on="1"/>
        <pt x="271" y="484" on="1"/>
        <pt x="271" y="410" on="1"/>
        <pt x="179" y="410" on="1"/>
        <pt x="178" y="408" on="0"/>
        <pt x="173" y="390" on="0"/>
        <pt x="168" y="356" on="0"/>
        <pt x="168" y="332" on="1"/>
        <pt x="168" y="203" on="1"/>
      </contour>
    </TTGlyph>
    <TTGlyph name="dvCH" xMin="-28" yMin="14" xMax="547" yMax="655">
      <contour>
        <pt x="397" y="496" on="0"/>
        <pt x="470" y="427" on="0"/>
        <pt x="470" y="364" on="1"/>
        <pt x="470" y="170" on="1"/>
        <pt x="470" y="113" on="0"/>
        <pt x="430" y="46" on="0"/>
        <pt x="340" y="14" on="0"/>
        <pt x="263" y="14" on="1"/>
        <pt x="151" y="14" on="0"/>
        <pt x="55" y="84" on="0"/>
        <pt x="55" y="164" on="1"/>
        <pt x="55" y="196" on="1"/>
        <pt x="55" y="270" on="0"/>
        <pt x="110" y="289" on="1"/>
        <pt x="82" y="301" on="0"/>
        <pt x="60" y="348" on="0"/>
        <pt x="60" y="385" on="1"/>
        <pt x="60" y="516" on="1"/>
        <pt x="60" y="563" on="0"/>
        <pt x="85" y="583" on="1"/>
        <pt x="-28" y="583" on="1"/>
        <pt x="-28" y="655" on="1"/>
        <pt x="547" y="655" on="1"/>
        <pt x="547" y="583" on="1"/>
        <pt x="211" y="583" on="1"/>
        <pt x="175" y="583" on="0"/>
        <pt x="145" y="551" on="0"/>
        <pt x="145" y="515" on="1"/>
        <pt x="145" y="387" on="1"/>
        <pt x="145" y="358" on="0"/>
        <pt x="174" y="328" on="0"/>
        <pt x="214" y="327" on="1"/>
        <pt x="274" y="327" on="1"/>
        <pt x="274" y="252" on="1"/>
        <pt x="216" y="252" on="1"/>
        <pt x="174" y="252" on="0"/>
        <pt x="140" y="223" on="0"/>
        <pt x="140" y="191" on="1"/>
        <pt x="140" y="168" on="1"/>
        <pt x="140" y="137" on="0"/>
        <pt x="159" y="105" on="0"/>
        <pt x="212" y="91" on="0"/>
        <pt x="263" y="91" on="1"/>
        <pt x="314" y="91" on="0"/>
        <pt x="367" y="107" on="0"/>
        <pt x="387" y="141" on="0"/>
        <pt x="387" y="173" on="1"/>
        <pt x="387" y="353" on="1"/>
        <pt x="387" y="390" on="0"/>
        <pt x="355" y="424" on="0"/>
        <pt x="313" y="424" on="1"/>
        <pt x="294" y="424" on="0"/>
        <pt x="261" y="415" on="0"/>
        <pt x="261" y="414" on="1"/>
        <pt x="261" y="487" on="1"/>
        <pt x="266" y="489" on="0"/>
        <pt x="302" y="496" on="0"/>
        <pt x="323" y="496" on="1"/>
      </contour>
    </TTGlyph>
    <TTGlyph name="dvCHA" xMin="-28" yMin="14" xMax="548" yMax="655">
      <contour>
        <pt x="58" y="538" on="0"/>
        <pt x="62" y="566" on="0"/>
        <pt x="67" y="581" on="0"/>
        <pt x="68" y="583" on="1"/>
        <pt x="-28" y="583" on="1"/>
        <pt x="-28" y="655" on="1"/>
        <pt x="548" y="655" on="1"/>
        <pt x="548" y="583" on="1"/>
        <pt x="400" y="583" on="1"/>
        <pt x="400" y="484" on="1"/>
        <pt x="436" y="472" on="0"/>
        <pt x="468" y="413" on="0"/>
        <pt x="468" y="364" on="1"/>
        <pt x="468" y="170" on="1"/>
        <pt x="468" y="113" on="0"/>
        <pt x="428" y="46" on="0"/>
        <pt x="338" y="14" on="0"/>
        <pt x="261" y="14" on="1"/>
        <pt x="149" y="14" on="0"/>
        <pt x="52" y="84" on="0"/>
        <pt x="52" y="164" on="1"/>
        <pt x="52" y="196" on="1"/>
        <pt x="52" y="230" on="0"/>
        <pt x="79" y="279" on="0"/>
        <pt x="108" y="289" on="1"/>
        <pt x="80" y="301" on="0"/>
        <pt x="58" y="348" on="0"/>
        <pt x="58" y="385" on="1"/>
        <pt x="58" y="520" on="1"/>
      </contour>
      <contour>
        <pt x="143" y="358" on="0"/>
        <pt x="172" y="328" on="0"/>
        <pt x="212" y="327" on="1"/>
        <pt x="272" y="327" on="1"/>
        <pt x="272" y="252" on="1"/>
        <pt x="214" y="252" on="1"/>
        <pt x="172" y="252" on="0"/>
        <pt x="138" y="223" on="0"/>
        <pt x="138" y="191" on="1"/>
        <pt x="138" y="167" on="1"/>
        <pt x="138" y="136" on="0"/>
        <pt x="157" y="104" on="0"/>
        <pt x="209" y="91" on="0"/>
        <pt x="261" y="91" on="1"/>
        <pt x="312" y="91" on="0"/>
        <pt x="365" y="107" on="0"/>
        <pt x="385" y="141" on="0"/>
        <pt x="385" y="173" on="1"/>
        <pt x="385" y="353" on="1"/>
        <pt x="385" y="390" on="0"/>
        <pt x="354" y="424" on="0"/>
        <pt x="314" y="424" on="1"/>
        <pt x="294" y="424" on="0"/>
        <pt x="263" y="417" on="0"/>
        <pt x="259" y="415" on="1"/>
        <pt x="259" y="488" on="1"/>
        <pt x="264" y="489" on="0"/>
        <pt x="299" y="496" on="0"/>
        <pt x="322" y="496" on="1"/>
        <pt x="322" y="583" on="1"/>
        <pt x="153" y="583" on="1"/>
        <pt x="152" y="581" on="0"/>
        <pt x="147" y="566" on="0"/>
        <pt x="143" y="538" on="0"/>
        <pt x="143" y="520" on="1"/>
        <pt x="143" y="387" on="1"/>
      </contour>
    </TTGlyph>
    <TTGlyph name="dvCH_R" xMin="-28" yMin="-303" xMax="548" yMax="655">
      <component glyphName="dvCHA" x="0" y="0" flags="0x0"/>
      <component glyphName="dvRashtrasign" x="478" y="13" flags="0x4"/>
      <component glyphName="dvVirama" x="368" y="-90" flags="0x4"/>
    </TTGlyph>
    <TTGlyph name="dvCH_RA" xMin="-28" yMin="-118" xMax="548" yMax="655">
      <component glyphName="dvCHA" x="0" y="0" flags="0x0"/>
      <component glyphName="dvRashtrasign" x="478" y="13" flags="0x4"/>
    </TTGlyph>
    <TTGlyph name="dvCH_R_YA" xMin="-28" yMin="-118" xMax="1055" yMax="655">
      <contour>
        <pt x="1055" y="583" on="1"/>
        <pt x="963" y="583" on="1"/>
        <pt x="963" y="0" on="1"/>
        <pt x="878" y="0" on="1"/>
        <pt x="878" y="71" on="1"/>
        <pt x="810" y="60" on="0"/>
        <pt x="764" y="60" on="1"/>
        <pt x="673" y="60" on="0"/>
        <pt x="568" y="144" on="0"/>
        <pt x="568" y="235" on="1"/>
        <pt x="568" y="298" on="1"/>
        <pt x="613" y="298" on="1"/>
        <pt x="659" y="298" on="0"/>
        <pt x="693" y="321" on="0"/>
        <pt x="693" y="353" on="1"/>
        <pt x="693" y="364" on="1"/>
        <pt x="693" y="393" on="0"/>
        <pt x="668" y="420" on="0"/>
        <pt x="633" y="420" on="1"/>
        <pt x="461" y="420" on="1"/>
        <pt x="468" y="398" on="0"/>
        <pt x="468" y="364" on="1"/>
        <pt x="468" y="170" on="1"/>
        <pt x="468" y="103" on="0"/>
        <pt x="412" y="32" on="0"/>
        <pt x="346" y="20" on="1"/>
        <pt x="418" y="-118" on="1"/>
        <pt x="330" y="-118" on="1"/>
        <pt x="266" y="14" on="1"/>
        <pt x="261" y="14" on="1"/>
        <pt x="261" y="14" on="1"/>
        <pt x="197" y="-118" on="1"/>
        <pt x="109" y="-118" on="1"/>
        <pt x="181" y="19" on="1"/>
        <pt x="113" y="30" on="0"/>
        <pt x="52" y="100" on="0"/>
        <pt x="52" y="164" on="1"/>
        <pt x="52" y="196" on="1"/>
        <pt x="52" y="230" on="0"/>
        <pt x="79" y="279" on="0"/>
        <pt x="108" y="289" on="1"/>
        <pt x="80" y="301" on="0"/>
        <pt x="58" y="348" on="0"/>
        <pt x="58" y="385" on="1"/>
        <pt x="58" y="520" on="1"/>
        <pt x="58" y="538" on="0"/>
        <pt x="62" y="566" on="0"/>
        <pt x="67" y="581" on="0"/>
        <pt x="68" y="583" on="1"/>
        <pt x="-28" y="583" on="1"/>
        <pt x="-28" y="655" on="1"/>
        <pt x="1055" y="655" on="1"/>
      </contour>
      <contour>
        <pt x="385" y="353" on="1"/>
        <pt x="385" y="390" on="0"/>
        <pt x="354" y="424" on="0"/>
        <pt x="314" y="424" on="1"/>
        <pt x="294" y="424" on="0"/>
        <pt x="263" y="417" on="0"/>
        <pt x="259" y="415" on="1"/>
        <pt x="259" y="488" on="1"/>
        <pt x="264" y="489" on="0"/>
        <pt x="299" y="496" on="0"/>
        <pt x="322" y="496" on="1"/>
        <pt x="322" y="583" on="1"/>
        <pt x="153" y="583" on="1"/>
        <pt x="152" y="581" on="0"/>
        <pt x="147" y="566" on="0"/>
        <pt x="143" y="538" on="0"/>
        <pt x="143" y="520" on="1"/>
        <pt x="143" y="387" on="1"/>
        <pt x="143" y="358" on="0"/>
        <pt x="172" y="328" on="0"/>
        <pt x="212" y="327" on="1"/>
        <pt x="272" y="327" on="1"/>
        <pt x="272" y="252" on="1"/>
        <pt x="214" y="252" on="1"/>
        <pt x="172" y="252" on="0"/>
        <pt x="138" y="223" on="0"/>
        <pt x="138" y="191" on="1"/>
        <pt x="138" y="167" on="1"/>
        <pt x="138" y="136" on="0"/>
        <pt x="157" y="104" on="0"/>
        <pt x="209" y="91" on="0"/>
        <pt x="261" y="91" on="1"/>
        <pt x="312" y="91" on="0"/>
        <pt x="365" y="107" on="0"/>
        <pt x="385" y="141" on="0"/>
        <pt x="385" y="173" on="1"/>
      </contour>
      <contour>
        <pt x="878" y="583" on="1"/>
        <pt x="400" y="583" on="1"/>
        <pt x="400" y="497" on="1"/>
        <pt x="631" y="497" on="1"/>
        <pt x="706" y="497" on="0"/>
        <pt x="776" y="435" on="0"/>
        <pt x="776" y="369" on="1"/>
        <pt x="776" y="350" on="1"/>
        <pt x="776" y="234" on="0"/>
        <pt x="652" y="234" on="1"/>
        <pt x="652" y="233" on="1"/>
        <pt x="652" y="184" on="0"/>
        <pt x="704" y="139" on="0"/>
        <pt x="769" y="139" on="1"/>
        <pt x="819" y="139" on="0"/>
        <pt x="878" y="150" on="1"/>
      </contour>
    </TTGlyph>
</ttFont>
